<svg width="37" height="22" fill="none" xmlns="http://www.w3.org/2000/svg"><path d="M15.737.034l-2.955 2.914a6.07 6.07 0 00-2.399 1.284L8.845 5.583a3.26 3.26 0 01-2.15.804H5.55v7.3a4.66 4.66 0 013.14 1.335l2.057 2.03.405.4 1.561 1.539a.937.937 0 001.307 0 .858.858 0 00.213-.33c.162-.44.538-.77 1-.873.463-.103.949.034 1.284.37l.624.605a1.728 1.728 0 002.423 0c.312-.308.48-.702.497-1.107.023-.501.324-.946.786-1.163.463-.217 1-.171 1.41.12.544.382 1.302.33 1.787-.148a1.35 1.35 0 000-1.934l-4.382-4.323-2.07 1.882a4.217 4.217 0 01-5.607.052 4.081 4.081 0 01-.093-6.074l4.053-3.775A8.604 8.604 0 0121.8 0c2.087 0 4.105.758 5.66 2.122L29.2 3.65h6.875a.92.92 0 01.925.912v11.863c0 1.01-.827 1.825-1.85 1.825H33.3a1.849 1.849 0 01-1.601-.913H26.79a4.191 4.191 0 01-.78 1.067 4.211 4.211 0 01-3.642 1.146 4.361 4.361 0 01-.844 1.152c-1.579 1.557-4.047 1.71-5.805.462-1.45 1.186-3.613 1.112-4.972-.234l-1.555-1.54-.405-.399-2.058-2.03a1.873 1.873 0 00-1.179-.53c0 1.003-.832 1.819-1.85 1.819H1.85A1.836 1.836 0 010 16.425V4.562c0-.501.416-.912.925-.912h5.77c.115 0 .225-.04.306-.114L8.533 2.19A8.885 8.885 0 0114.378 0h.595c.255 0 .515.011.764.034zM31.45 14.6V6.387h-2.775c-.341 0-.67-.125-.92-.348l-2.133-1.87a5.787 5.787 0 00-3.82-1.432c-1.47 0-2.88.554-3.95 1.546L13.8 8.058a1.37 1.37 0 00.029 2.036 1.414 1.414 0 001.879-.017l4.156-3.787a1.396 1.396 0 011.96.08c.52.56.486 1.42-.08 1.934l-.047.045 4.301 4.243c.578.57.954 1.272 1.122 2.002h4.33v.006zm-27.75.912a.906.906 0 00-.27-.645.931.931 0 00-1.31 0 .906.906 0 000 1.29.932.932 0 001.31 0 .906.906 0 00.27-.645zm30.525.913c.245 0 .48-.097.654-.268a.906.906 0 000-1.29.931.931 0 00-1.308 0 .906.906 0 000 1.29.932.932 0 00.654.268z" fill="#7E6A8C"/></svg>