<svg width="33" height="26" fill="none" xmlns="http://www.w3.org/2000/svg"><path d="M19.834 1.625h6.613c.914 0 1.653.726 1.653 1.625s-.739 1.625-1.653 1.625h-5.869a4.072 4.072 0 01-2.396 2.91V22.75h8.265c.914 0 1.653.726 1.653 1.625S27.36 26 26.447 26H6.61c-.914 0-1.653-.726-1.653-1.625s.739-1.625 1.653-1.625h8.265V7.785c-1.214-.523-2.128-1.605-2.397-2.91H6.61c-.914 0-1.653-.726-1.653-1.625s.739-1.625 1.653-1.625h6.612A4.153 4.153 0 0116.528 0c1.354 0 2.552.64 3.306 1.625zm2.873 14.625h7.48l-3.74-6.307-3.74 6.307zm3.74 4.875c-3.25 0-5.951-1.727-6.51-4.007-.134-.558.052-1.132.347-1.63l4.918-8.287a1.458 1.458 0 012.49-.001l4.917 8.288c.295.498.48 1.072.347 1.63-.558 2.28-3.26 4.007-6.51 4.007zM6.548 9.943l-3.74 6.307h7.485L6.548 9.943zM.044 17.118c-.134-.558.052-1.132.347-1.63l4.917-8.287A1.444 1.444 0 016.553 6.5c.512 0 .987.27 1.245.7l4.918 8.288c.295.498.48 1.072.346 1.63-.563 2.28-3.265 4.007-6.514 4.007-3.25 0-5.946-1.727-6.504-4.007z" fill="#F5615F"/></svg>