<svg xmlns="http://www.w3.org/2000/svg" width="141.451" height="50.57"><path d="M70.219 22.513a5.114 5.114 0 01-3.736 1.644c-3.555 0-6.405-2.884-6.405-6.887s2.85-6.887 6.405-6.887a6.31 6.31 0 015.6 3.5l-2.505.7a3.814 3.814 0 00-3.1-1.6c-2.316 0-3.848 1.765-3.848 4.3a4.018 4.018 0 003.986 4.3 3.659 3.659 0 003.616-2.273v-.56h-3.439v-2.117h5.518v7.283h-2.092V22.53zm12.57 1.403l-2.462-4.528h-2.006v4.528h-2.454V10.693h4.3c3.039 0 4.855 1.722 4.855 4.408a3.857 3.857 0 01-2.333 3.8l2.841 5.019zm-4.468-6.887h2.186a1.953 1.953 0 100-3.9h-2.186zm15.556-6.603a6.556 6.556 0 016.431 6.887 6.556 6.556 0 01-6.431 6.887c-3.547 0-6.405-2.884-6.405-6.887s2.858-6.887 6.405-6.887zm0 11.192c2.281 0 3.865-1.722 3.865-4.3s-1.584-4.3-3.865-4.3-3.848 1.722-3.848 4.3 1.593 4.261 3.848 4.261zm19.904-10.925v7.473c0 3.883-2.083 6.026-5.329 6.026s-5.329-2.109-5.329-6.026v-7.473h2.454v7.43c0 2.454.99 3.59 2.875 3.59s2.867-1.136 2.867-3.59v-7.43zm8.041 0c2.97 0 4.769 1.662 4.769 4.408s-1.8 4.442-4.769 4.442h-1.954v4.373h-2.454V10.693zm-.052 6.4c1.446 0 2.281-.758 2.281-1.989s-.861-1.954-2.281-1.954h-1.9v3.943zM66.198 32.388a2.411 2.411 0 00-2.471-2.049c-1.3 0-2.212.663-2.212 1.722s1.369 1.524 2.677 1.946 3.263 1.1 3.263 3.151c0 1.782-1.438 3.082-3.616 3.082a3.607 3.607 0 01-3.762-3.108l1.111-.3a2.583 2.583 0 002.695 2.307c1.472 0 2.359-.861 2.359-1.928 0-1.541-1.722-1.86-3.108-2.324-1.128-.379-2.789-.921-2.789-2.746 0-1.644 1.446-2.867 3.444-2.867a3.444 3.444 0 013.53 2.824zm8.274-3.134a5.226 5.226 0 015.165 5.493 5.165 5.165 0 11-10.262 0 5.217 5.217 0 015.1-5.493zm0 9.771a3.986 3.986 0 003.943-4.3 3.954 3.954 0 10-7.877 0 3.97 3.97 0 003.934 4.3zm8.937-8.406v3.624h4.227v1.119h-4.227v4.7h-1.154V29.469h6.448v1.15zm14.833-1.15v1.15h-3.28v9.4h-1.145v-9.4h-3.306v-1.15zm14.803 0l-3.354 10.55h-.956l-1.636-5.544c-.439-1.5-.534-2.075-.551-2.075a19.263 19.263 0 01-.534 2.075l-1.634 5.544h-1.016l-3.349-10.55h1.2l2.238 7.137c.267.861.4 1.532.422 1.532a14.8 14.8 0 01.43-1.532l1.722-5.716h.99l1.722 5.716c.3.861.413 1.532.43 1.532s.155-.628.422-1.532l2.238-7.137zm7.691 7.8h-4.96l-1.1 2.75h-1.24l4.3-10.555h1.059l4.309 10.555h-1.24zm-.439-1.1l-1.567-3.926c-.207-.542-.448-1.283-.465-1.283s-.25.74-.465 1.283l-1.567 3.926zm10.667 3.85l-2.23-3.952a4.925 4.925 0 01-.508 0h-1.853v3.934h-1.16V29.469h3.013c2.307 0 3.693 1.291 3.693 3.332a2.987 2.987 0 01-2.058 3.03l2.4 4.193zm-2.583-5.036a2.126 2.126 0 002.393-2.187 2.1 2.1 0 00-2.393-2.178h-1.963v4.365zm13.069 3.878v1.158h-6.681v-10.55h6.594v1.15h-5.434v3.263h4.365v1.1h-4.365v3.874z" fill="#fff"/><path d="M39.727 33.283A16.469 16.469 0 1125.298 8.868a16.8 16.8 0 014.046.5C10.06 4.469 1.417 19.156 1.288 19.388a24.708 24.708 0 0017.7 29.864c.215.001 12.029-.369 20.739-15.969z" fill="#fff" stroke="#fff"/><path d="M23.679 21.479a4.132 4.132 0 103.048 7.68l19.29-7.653s-5.851-6.569-22.338-.027z" fill="#fff" stroke="#fff"/><path d="M1.279 19.396A24.777 24.777 0 0131.41 1.318a4.141 4.141 0 11-2.023 8.024C9.905 4.426 1.279 19.396 1.279 19.396zM23.68 21.48l19.293-7.653a4.132 4.132 0 013.048 7.679s-5.855-6.569-22.341-.026zm1.618 28.59a24.639 24.639 0 01-6.319-.861s11.949-.267 20.748-15.97a4.135 4.135 0 117.24 3.995A24.759 24.759 0 0125.298 50.07z" fill="none" stroke="#fff"/></svg>