<svg id="Camada_1" data-name="Camada 1" xmlns="http://www.w3.org/2000/svg" viewBox="0 0 180 53.19"><defs><style>.cls-1{fill:#fff}.cls-2{fill:#be97c6}</style></defs><path class="cls-1" d="M110 10.66a15.21 15.21 0 00-7.85 2.19V5.43a1.5 1.5 0 00-1.5-1.5h-4.44a1.5 1.5 0 00-1.5 1.5v20.93A15.32 15.32 0 10110 10.66zm0 23.17a7.85 7.85 0 117.88-7.83 7.85 7.85 0 01-7.88 7.83zM92.25 26a15.39 15.39 0 10-7.48 13.13v.47a1.5 1.5 0 001.5 1.5h4.48a1.5 1.5 0 001.5-1.5V27.48h-.08a14.72 14.72 0 00.08-1.48zm-15.33 7.83A7.85 7.85 0 1184.77 26a7.85 7.85 0 01-7.85 7.83z" transform="translate(0 -.41)"/><path class="cls-1" d="M158.14 26a15.39 15.39 0 10-7.48 13.13v.47a1.5 1.5 0 001.5 1.5h4.48a1.5 1.5 0 001.5-1.5V27.48h-.08a14.72 14.72 0 00.08-1.48zm-15.33 7.84a7.85 7.85 0 117.85-7.84 7.85 7.85 0 01-7.85 7.83zm28.58 7.94a9.86 9.86 0 01-10.94-8.07 1.45 1.45 0 011.43-1.7h4.74A1.51 1.51 0 01168 33a2.38 2.38 0 002.78 1.35 2.34 2.34 0 001.53-1.35 2.38 2.38 0 00-1.31-3.22l-4.22-1.52A9.13 9.13 0 11179.11 18a1.49 1.49 0 01-1.48 1.76H173a1.55 1.55 0 01-1.39-.77 1.66 1.66 0 10-2.13 2.29l4 1.45a9.85 9.85 0 01-2.14 19z" transform="translate(0 -.41)"/><circle class="cls-2" cx="139.05" cy="51.12" r="1.74"/><path class="cls-1" d="M146.29 46.1a3.52 3.52 0 012.61 1.12 3.67 3.67 0 011.1 2.65 3.57 3.57 0 01-1.1 2.64 3.68 3.68 0 01-2.66 1.08 3.73 3.73 0 01-2.61-6.39 3.69 3.69 0 012.69-1.09zm-.23 1.67h-.15a2.18 2.18 0 00-.63.23 2.28 2.28 0 00-.52.39 2 2 0 00-.44.67 2.3 2.3 0 00-.14.79 2.05 2.05 0 00.58 1.47 1.92 1.92 0 001.45.62 2 2 0 001.49-.6 2.05 2.05 0 00.58-1.49 2.1 2.1 0 00-.6-1.5 2 2 0 00-1.47-.62zm4.86-1.44h1.57V47a2 2 0 01.77-.61 3.13 3.13 0 011-.25h.36a2.93 2.93 0 011 .27 2.6 2.6 0 01.82.6l.1.09a1 1 0 01.08.11 2.61 2.61 0 01.48 1.22 11.41 11.41 0 01.08 1.32v3.64h-1.69v-4.03a3.35 3.35 0 00-.08-.54 1.8 1.8 0 00-.2-.47 1.19 1.19 0 00-.45-.41 1.56 1.56 0 00-.59-.18h-.25a1.69 1.69 0 00-.57.2 1.24 1.24 0 00-.44.41 2.09 2.09 0 00-.19.48 3.45 3.45 0 00-.07.55v3.96h-1.69zm7.63-2.33h1.69v9.39h-1.69zm3.05 0h1.69v1.53h-1.69zm0 2.35h1.69v7h-1.69zm3.05-.02h1.56V47a2 2 0 01.77-.61 3.07 3.07 0 011-.25h.36a2.81 2.81 0 011 .27 2.49 2.49 0 01.82.6l.1.09a.44.44 0 01.08.11 2.61 2.61 0 01.48 1.22 9.55 9.55 0 01.08 1.32v3.64h-1.69v-4.03a5.07 5.07 0 00-.09-.54 1.78 1.78 0 00-.19-.47 1.19 1.19 0 00-.45-.41 1.61 1.61 0 00-.59-.18h-.26a1.85 1.85 0 00-.57.2 1.13 1.13 0 00-.43.41 1.46 1.46 0 00-.19.48 3.47 3.47 0 00-.08.55v3.96h-1.69zm9.11 4.27a1.91 1.91 0 00.7 1 2 2 0 001.16.37 2.44 2.44 0 00.9-.17 1.67 1.67 0 00.67-.44h1.87a3.11 3.11 0 01-1.29 1.61 3.66 3.66 0 01-2.09.65 3.67 3.67 0 01-3.68-3.71 3.71 3.71 0 011.08-2.68 3.52 3.52 0 012.65-1.12 3.37 3.37 0 012.56 1.11 3.64 3.64 0 011.05 2.58 1.72 1.72 0 010 .32 2.91 2.91 0 010 .31.29.29 0 000 .09v.08zm3.85-1.5a1.82 1.82 0 00-.74-1 2.05 2.05 0 00-1.18-.36h-.1a2.27 2.27 0 00-1.14.4 1.71 1.71 0 00-.72.94z" transform="translate(0 -.41)"/><rect class="cls-1" x="24.93" y="26.23" width="18.84" height="19.64" rx="4" transform="rotate(-180 34.35 35.845)"/><path class="cls-1" d="M0 42.88a3 3 0 003 3h12.85a3 3 0 003-3V3.4a3 3 0 00-3-3H8.77L0 9.18z" transform="translate(0 -.41)"/><path class="cls-2" d="M0 9.18h5.78a3 3 0 003-3V.41z" transform="translate(0 -.41)"/></svg>