<svg width="31" height="31" fill="none" xmlns="http://www.w3.org/2000/svg"><path d="M29.063 1.94c0-.78-.473-1.489-1.2-1.791a1.94 1.94 0 00-2.112.417l-2.64 2.646a15.5 15.5 0 01-10.96 4.54H3.876A3.878 3.878 0 000 11.628v5.812a3.878 3.878 0 003.875 3.875v7.749c0 1.071.866 1.937 1.938 1.937h3.875a1.935 1.935 0 001.937-1.937v-7.75h.527a15.5 15.5 0 0110.959 4.541l2.64 2.64a1.93 1.93 0 002.113.417 1.938 1.938 0 001.198-1.792v-8.93C30.19 17.658 31 16.223 31 14.534s-.811-3.124-1.938-3.657V1.941zm-3.875 4.644v15.898a19.368 19.368 0 00-13.036-5.043h-.527v-5.812h.527c4.831 0 9.475-1.804 13.036-5.043z" fill="#EA9B65"/></svg>