<svg width="37" height="25" fill="none" xmlns="http://www.w3.org/2000/svg"><path d="M7.194 3.125c0 2.298-1.843 4.167-4.11 4.167v10.416c2.267 0 4.11 1.869 4.11 4.167h22.612c0-2.298 1.843-4.167 4.11-4.167V7.292c-2.267 0-4.11-1.869-4.11-4.167H7.194zM0 4.167C0 1.868 1.844 0 4.111 0H32.89C35.156 0 37 1.868 37 4.167v16.666C37 23.132 35.156 25 32.889 25H4.11C1.844 25 0 23.131 0 20.833V4.167zM11.306 12.5c0-.958.186-1.906.547-2.79a7.3 7.3 0 011.56-2.366 7.188 7.188 0 012.334-1.58 7.111 7.111 0 015.506 0 7.188 7.188 0 012.334 1.58 7.3 7.3 0 011.56 2.366 7.376 7.376 0 010 5.58 7.3 7.3 0 01-1.56 2.366 7.187 7.187 0 01-2.334 1.58 7.11 7.11 0 01-5.506 0 7.187 7.187 0 01-2.334-1.58 7.3 7.3 0 01-1.56-2.366 7.376 7.376 0 01-.547-2.79zm5.138-3.125c0 .573.463 1.042 1.028 1.042v4.166h-.514c-.565 0-1.027.47-1.027 1.042 0 .573.462 1.042 1.027 1.042h3.084c.565 0 1.027-.47 1.027-1.042 0-.573-.462-1.042-1.027-1.042h-.514V9.375c0-.573-.463-1.042-1.028-1.042h-1.028a1.04 1.04 0 00-1.028 1.042z" fill="#28D990"/></svg>