<svg width="29" height="27" fill="none" xmlns="http://www.w3.org/2000/svg"><path d="M19.47 16.875c4.89 0 8.851-3.776 8.851-8.438 0-.806-.122-1.587-.343-2.33-.171-.57-.907-.696-1.344-.28l-4.248 4.05a.91.91 0 01-.625.248h-3.175c-.487 0-.885-.38-.885-.844V6.254a.83.83 0 01.26-.596l4.248-4.05c.437-.416.299-1.118-.293-1.281A9.349 9.349 0 0019.47 0c-4.89 0-8.85 3.776-8.85 8.438 0 1.007.188 1.977.525 2.873L1.1 20.889A3.502 3.502 0 000 23.42C0 25.397 1.682 27 3.756 27c.996 0 1.952-.38 2.655-1.05l10.045-9.576c.94.327 1.958.501 3.015.501zm-15.045 4.64c.352 0 .69.134.939.371.249.238.389.56.389.895 0 .336-.14.658-.39.895-.248.238-.586.37-.938.37s-.69-.133-.939-.37a1.237 1.237 0 01-.388-.895c0-.335.14-.657.388-.895.25-.237.587-.37.94-.37z" fill="#7E6A8C"/></svg>