<svg width="22" height="30" viewBox="0 0 22 30" fill="none" xmlns="http://www.w3.org/2000/svg">
<path d="M18.3333 27.1875C18.8375 27.1875 19.25 26.7656 19.25 26.25V9.375H14.6667C13.6526 9.375 12.8333 8.53711 12.8333 7.5V2.8125H3.66667C3.1625 2.8125 2.75 3.23438 2.75 3.75V26.25C2.75 26.7656 3.1625 27.1875 3.66667 27.1875H18.3333ZM0 3.75C0 1.68164 1.64427 0 3.66667 0H13.1484C14.1224 0 15.0562 0.392578 15.7437 1.0957L20.9286 6.39844C21.6161 7.10156 22 8.05664 22 9.05273V26.25C22 28.3184 20.3557 30 18.3333 30H3.66667C1.64427 30 0 28.3184 0 26.25V3.75Z" fill="#7E6A8C"/>
</svg>
