<svg width="37" height="22" viewBox="0 0 37 22" fill="none" xmlns="http://www.w3.org/2000/svg">
<path d="M15.7366 0.0342179L12.7823 2.94845C11.8978 3.18798 11.0769 3.62711 10.3831 4.23163L8.84531 5.58324C8.25562 6.10221 7.48672 6.38736 6.69469 6.38736H5.55V13.6872C6.72937 13.7214 7.85094 14.1948 8.68922 15.0217L10.7473 17.052L11.152 17.4512L12.713 18.991C13.0714 19.3446 13.6611 19.3446 14.0195 18.991C14.1178 18.8941 14.193 18.78 14.2334 18.6602C14.3953 18.2211 14.7711 17.8903 15.2336 17.7877C15.6961 17.685 16.1817 17.8219 16.517 18.1584L17.1414 18.7629C17.812 19.4244 18.8989 19.4244 19.5637 18.7629C19.8759 18.4549 20.0436 18.0614 20.0609 17.6565C20.0841 17.1546 20.3847 16.7098 20.8472 16.4931C21.3097 16.2764 21.8473 16.322 22.2578 16.6129C22.8013 16.995 23.5586 16.9436 24.0442 16.4646C24.5877 15.9285 24.5877 15.0616 24.0442 14.5313L19.662 10.2084L17.5923 12.0904C16.0141 13.5275 13.5917 13.5503 11.9845 12.1417C10.1519 10.5334 10.1114 7.72757 11.892 6.068L15.9447 2.29261C17.5287 0.821232 19.6216 0 21.8011 0C23.8881 0 25.9058 0.758499 27.4609 2.12152L29.2011 3.64992H31.45H33.7625H36.075C36.5838 3.64992 37 4.06054 37 4.5624V16.4247C37 17.4341 36.1733 18.2496 35.15 18.2496H33.3C32.6178 18.2496 32.0166 17.8846 31.6986 17.3371H26.7903C26.5938 17.7192 26.3336 18.0842 26.0098 18.4036C25.0212 19.3788 23.6511 19.7609 22.3677 19.5499C22.1595 19.9662 21.8762 20.354 21.5236 20.7019C19.9453 22.2588 17.4767 22.4128 15.7192 21.1639C14.2681 22.3501 12.1059 22.2759 10.7473 20.93L9.19219 19.3902L8.7875 18.991L6.72938 16.9607C6.41141 16.6471 5.99516 16.4646 5.55 16.4304C5.55 17.4341 4.7175 18.2496 3.7 18.2496H1.85C0.826719 18.2496 0 17.4341 0 16.4247V4.5624C0 4.06054 0.41625 3.64992 0.925 3.64992H3.2375H5.55H6.69469C6.81031 3.64992 6.92016 3.61 7.00109 3.53586L8.53313 2.18995C10.1461 0.781312 12.2216 0 14.378 0H14.9734C15.2278 0 15.488 0.0114059 15.7366 0.0342179ZM31.45 14.5997V6.38736H28.675C28.3339 6.38736 28.0044 6.2619 27.7558 6.03948L25.6225 4.1689C24.5703 3.24501 23.2117 2.73744 21.8011 2.73744C20.3327 2.73744 18.922 3.29063 17.8525 4.28296L13.7998 8.05835C13.2044 8.61724 13.2159 9.55824 13.8287 10.0943C14.3664 10.5677 15.1816 10.5563 15.7077 10.0772L19.8644 6.29041C20.4252 5.77714 21.3039 5.81136 21.8242 6.37026C22.3445 6.92915 22.3098 7.7903 21.7433 8.30357L21.697 8.3492L25.9983 12.5922C26.5764 13.1625 26.9522 13.864 27.1198 14.594H31.45V14.5997ZM3.7 15.5122C3.7 15.2702 3.60255 15.0381 3.42907 14.867C3.2556 14.6958 3.02033 14.5997 2.775 14.5997C2.52967 14.5997 2.2944 14.6958 2.12093 14.867C1.94746 15.0381 1.85 15.2702 1.85 15.5122C1.85 15.7542 1.94746 15.9863 2.12093 16.1574C2.2944 16.3285 2.52967 16.4247 2.775 16.4247C3.02033 16.4247 3.2556 16.3285 3.42907 16.1574C3.60255 15.9863 3.7 15.7542 3.7 15.5122ZM34.225 16.4247C34.4703 16.4247 34.7056 16.3285 34.8791 16.1574C35.0525 15.9863 35.15 15.7542 35.15 15.5122C35.15 15.2702 35.0525 15.0381 34.8791 14.867C34.7056 14.6958 34.4703 14.5997 34.225 14.5997C33.9797 14.5997 33.7444 14.6958 33.5709 14.867C33.3975 15.0381 33.3 15.2702 33.3 15.5122C33.3 15.7542 33.3975 15.9863 33.5709 16.1574C33.7444 16.3285 33.9797 16.4247 34.225 16.4247Z" fill="#7E6A8C"/>
</svg>
