<svg width="33" height="26" viewBox="0 0 33 26" fill="none" xmlns="http://www.w3.org/2000/svg">
<path d="M19.8345 1.625H26.4467C27.361 1.625 28.0997 2.35117 28.0997 3.25C28.0997 4.14883 27.361 4.875 26.4467 4.875H20.5784C20.3098 6.18516 19.3954 7.2668 18.1815 7.78477V22.75H26.4467C27.361 22.75 28.0997 23.4762 28.0997 24.375C28.0997 25.2738 27.361 26 26.4467 26H16.5284H6.61013C5.69579 26 4.95708 25.2738 4.95708 24.375C4.95708 23.4762 5.69579 22.75 6.61013 22.75H14.8754V7.78477C13.6614 7.26172 12.7471 6.18008 12.4784 4.875H6.61013C5.69579 4.875 4.95708 4.14883 4.95708 3.25C4.95708 2.35117 5.69579 1.625 6.61013 1.625H13.2223C13.9765 0.639844 15.175 0 16.5284 0C17.8818 0 19.0803 0.639844 19.8345 1.625ZM22.7067 16.25H30.1867L26.4467 9.94297L22.7067 16.25ZM26.4467 21.125C23.1974 21.125 20.4957 19.3984 19.9378 17.1184C19.8035 16.5598 19.9895 15.9859 20.2839 15.4883L25.2017 7.20078C25.46 6.76406 25.9353 6.5 26.4467 6.5C26.9581 6.5 27.4334 6.76914 27.6916 7.20078L32.6095 15.4883C32.9039 15.9859 33.0899 16.5598 32.9556 17.1184C32.3977 19.3984 29.696 21.125 26.4467 21.125ZM6.54814 9.94297L2.80812 16.25H10.2933L6.54814 9.94297ZM0.0444319 17.1184C-0.0898782 16.5598 0.0960896 15.9859 0.390539 15.4883L5.30835 7.20078C5.56664 6.76406 6.04189 6.5 6.55331 6.5C7.06472 6.5 7.53997 6.76914 7.79826 7.20078L12.7161 15.4883C13.0105 15.9859 13.1965 16.5598 13.0622 17.1184C12.4991 19.3984 9.79741 21.125 6.54814 21.125C3.29887 21.125 0.602335 19.3984 0.0444319 17.1184Z" fill="#7E6A8C"/>
</svg>
