<svg xmlns="http://www.w3.org/2000/svg" width="141.451" height="50.57" viewBox="0 0 141.451 50.57"><g transform="translate(0.557 0.6)"><g transform="translate(59.521 9.783)"><path d="M79.621,27.41a5.114,5.114,0,0,1-3.736,1.644c-3.555,0-6.405-2.884-6.405-6.887s2.85-6.887,6.405-6.887a6.31,6.31,0,0,1,5.6,3.5l-2.505.7a3.814,3.814,0,0,0-3.1-1.6c-2.316,0-3.848,1.765-3.848,4.3a4.018,4.018,0,0,0,3.986,4.3,3.659,3.659,0,0,0,3.616-2.273v-.56H76.195V21.53h5.518v7.283H79.621V27.427Z" transform="translate(-69.48 -15.28)" fill="#fff"/><path d="M94.742,28.863l-2.462-4.528H90.274v4.528H87.82V15.64h4.3c3.039,0,4.855,1.722,4.855,4.408a3.857,3.857,0,0,1-2.333,3.8l2.841,5.019Zm-4.468-6.887H92.46a1.953,1.953,0,1,0,0-3.9H90.274Z" transform="translate(-72.031 -15.33)" fill="#fff"/><path d="M107.705,15.33a6.556,6.556,0,0,1,6.431,6.887,6.556,6.556,0,0,1-6.431,6.887c-3.547,0-6.405-2.884-6.405-6.887S104.158,15.33,107.705,15.33Zm0,11.192c2.281,0,3.865-1.722,3.865-4.3s-1.584-4.3-3.865-4.3-3.848,1.722-3.848,4.3,1.593,4.261,3.848,4.261Z" transform="translate(-73.906 -15.287)" fill="#fff"/><path d="M130.138,15.64v7.473c0,3.883-2.083,6.026-5.329,6.026s-5.329-2.109-5.329-6.026V15.64h2.454v7.43c0,2.454.99,3.59,2.875,3.59s2.867-1.136,2.867-3.59V15.64Z" transform="translate(-76.435 -15.33)" fill="#fff"/><path d="M140.488,15.64c2.97,0,4.769,1.662,4.769,4.408s-1.8,4.442-4.769,4.442h-1.954v4.373H136.08V15.64Zm-.052,6.4c1.446,0,2.281-.758,2.281-1.989s-.861-1.954-2.281-1.954h-1.9v3.943Z" transform="translate(-78.744 -15.33)" fill="#fff"/><g transform="translate(0 18.871)"><path d="M75.6,40.336a2.411,2.411,0,0,0-2.471-2.049c-1.3,0-2.212.663-2.212,1.722s1.369,1.524,2.677,1.946,3.263,1.1,3.263,3.151c0,1.782-1.438,3.082-3.616,3.082a3.607,3.607,0,0,1-3.762-3.108l1.111-.3a2.583,2.583,0,0,0,2.695,2.307c1.472,0,2.359-.861,2.359-1.928,0-1.541-1.722-1.86-3.108-2.324-1.128-.379-2.789-.921-2.789-2.746,0-1.644,1.446-2.867,3.444-2.867a3.444,3.444,0,0,1,3.53,2.824Z" transform="translate(-69.48 -37.202)" fill="#fff"/><path d="M85.371,37.2a5.226,5.226,0,0,1,5.165,5.493,5.165,5.165,0,1,1-10.262,0,5.217,5.217,0,0,1,5.1-5.493Zm0,9.771a3.986,3.986,0,0,0,3.943-4.3,3.954,3.954,0,1,0-7.877,0A3.97,3.97,0,0,0,85.371,46.971Z" transform="translate(-70.977 -37.2)" fill="#fff"/><path d="M96.394,38.6v3.624h4.227v1.119H96.394v4.7H95.24V37.45h6.448V38.6Z" transform="translate(-73.063 -37.235)" fill="#fff"/><path d="M112.561,37.45V38.6h-3.28V48h-1.145V38.6H104.83V37.45Z" transform="translate(-74.397 -37.235)" fill="#fff"/><path d="M128.9,37.45,125.546,48h-.956l-1.636-5.544c-.439-1.5-.534-2.075-.551-2.075h0a19.263,19.263,0,0,1-.534,2.075L120.235,48h-1.016L115.87,37.45h1.2l2.238,7.137c.267.861.4,1.532.422,1.532h0a14.8,14.8,0,0,1,.43-1.532l1.722-5.716h.99l1.722,5.716c.3.861.413,1.532.43,1.532h0s.155-.628.422-1.532l2.238-7.137Z" transform="translate(-75.933 -37.235)" fill="#fff"/><path d="M138.76,45.25H133.8L132.7,48h-1.24l4.3-10.555h1.059L141.128,48h-1.24Zm-.439-1.1-1.567-3.926c-.207-.542-.448-1.283-.465-1.283h0s-.25.74-.465,1.283l-1.567,3.926Z" transform="translate(-78.102 -37.235)" fill="#fff"/><path d="M150.891,48l-2.23-3.952a4.925,4.925,0,0,1-.508,0H146.3v3.934H145.14V37.45h3.013c2.307,0,3.693,1.291,3.693,3.332a2.987,2.987,0,0,1-2.058,3.03l2.4,4.193Zm-2.583-5.036a2.126,2.126,0,0,0,2.393-2.187,2.1,2.1,0,0,0-2.393-2.178h-1.963v4.365Z" transform="translate(-80.005 -37.235)" fill="#fff"/><path d="M162.921,46.842V48H156.24V37.45h6.594V38.6H157.4v3.263h4.365v1.1H157.4v3.874Z" transform="translate(-81.549 -37.235)" fill="#fff"/></g></g><path d="M39.51,37.854A16.469,16.469,0,1,1,25.081,13.439a16.8,16.8,0,0,1,4.046.5C9.843,9.04,1.2,23.727,1.071,23.959a24.708,24.708,0,0,0,17.7,29.864C18.986,53.824,30.8,53.454,39.51,37.854Z" transform="translate(-0.34 -5.171)" fill="#fff" stroke="#fff" stroke-width="1"/><path d="M26.762,27.7A4.132,4.132,0,1,0,29.81,35.38L49.1,27.727S43.249,21.158,26.762,27.7Z" transform="translate(-3.64 -6.821)" fill="#fff" stroke="#fff" stroke-width="1"/><path d="M1.18,22.706A24.777,24.777,0,0,1,31.311,4.628a4.141,4.141,0,1,1-2.023,8.024C9.806,7.736,1.18,22.706,1.18,22.706Z" transform="translate(-0.458 -3.91)" fill="none" stroke="#fff" stroke-width="1"/><path d="M27.2,26.892l19.293-7.653a4.132,4.132,0,0,1,3.048,7.679S43.686,20.349,27.2,26.892Z" transform="translate(-4.077 -6.012)" fill="none" stroke="#fff" stroke-width="1"/><path d="M28.059,58.315a24.639,24.639,0,0,1-6.319-.861s11.949-.267,20.748-15.97a4.134,4.134,0,1,1,7.24,3.995A24.759,24.759,0,0,1,28.059,58.315Z" transform="translate(-3.318 -8.845)" fill="none" stroke="#fff" stroke-width="1"/></g></svg>