<svg width="31" height="31" viewBox="0 0 31 31" fill="none" xmlns="http://www.w3.org/2000/svg">
<path d="M29.0625 1.94066C29.0625 1.15969 28.5902 0.451368 27.8637 0.148667C27.1371 -0.154035 26.3076 0.0154783 25.7506 0.566395L23.1107 3.21201C20.2045 6.11794 16.2629 7.75253 12.1518 7.75253H11.625H9.6875H3.875C1.7377 7.75253 0 9.49003 0 11.6271V17.439C0 19.576 1.7377 21.3136 3.875 21.3136V29.0627C3.875 30.1343 4.74082 31 5.8125 31H9.6875C10.7592 31 11.625 30.1343 11.625 29.0627V21.3136H12.1518C16.2629 21.3136 20.2045 22.9481 23.1107 25.8541L25.7506 28.4936C26.3076 29.0506 27.1371 29.2141 27.8637 28.9114C28.5902 28.6087 29.0625 27.9064 29.0625 27.1194V18.1897C30.1887 17.6569 31 16.2221 31 14.533C31 12.844 30.1887 11.4092 29.0625 10.8764V1.94066ZM25.1875 6.5841V14.533V22.482C21.6273 19.2431 16.9834 17.439 12.1518 17.439H11.625V11.6271H12.1518C16.9834 11.6271 21.6273 9.82301 25.1875 6.5841Z" fill="#EA9B65"/>
</svg>
