<svg width="37" height="25" viewBox="0 0 37 25" fill="none" xmlns="http://www.w3.org/2000/svg">
<path d="M7.19444 3.125C7.19444 5.42318 5.35087 7.29167 3.08333 7.29167V17.7083C5.35087 17.7083 7.19444 19.5768 7.19444 21.875H29.8056C29.8056 19.5768 31.6491 17.7083 33.9167 17.7083V7.29167C31.6491 7.29167 29.8056 5.42318 29.8056 3.125H7.19444ZM0 4.16667C0 1.86849 1.84358 0 4.11111 0H32.8889C35.1564 0 37 1.86849 37 4.16667V20.8333C37 23.1315 35.1564 25 32.8889 25H4.11111C1.84358 25 0 23.1315 0 20.8333V4.16667ZM11.3056 12.5C11.3056 11.5424 11.4916 10.5943 11.8532 9.7096C12.2148 8.82493 12.7447 8.02111 13.4128 7.34401C14.0808 6.66692 14.8739 6.12982 15.7468 5.76338C16.6197 5.39694 17.5552 5.20833 18.5 5.20833C19.4448 5.20833 20.3803 5.39694 21.2532 5.76338C22.1261 6.12982 22.9192 6.66692 23.5872 7.34401C24.2553 8.02111 24.7852 8.82493 25.1468 9.7096C25.5084 10.5943 25.6944 11.5424 25.6944 12.5C25.6944 13.4576 25.5084 14.4057 25.1468 15.2904C24.7852 16.1751 24.2553 16.9789 23.5872 17.656C22.9192 18.3331 22.1261 18.8702 21.2532 19.2366C20.3803 19.6031 19.4448 19.7917 18.5 19.7917C17.5552 19.7917 16.6197 19.6031 15.7468 19.2366C14.8739 18.8702 14.0808 18.3331 13.4128 17.656C12.7447 16.9789 12.2148 16.1751 11.8532 15.2904C11.4916 14.4057 11.3056 13.4576 11.3056 12.5ZM16.4444 9.375C16.4444 9.94792 16.9069 10.4167 17.4722 10.4167V14.5833H16.9583C16.3931 14.5833 15.9306 15.0521 15.9306 15.625C15.9306 16.1979 16.3931 16.6667 16.9583 16.6667H18.5H20.0417C20.6069 16.6667 21.0694 16.1979 21.0694 15.625C21.0694 15.0521 20.6069 14.5833 20.0417 14.5833H19.5278V9.375C19.5278 8.80208 19.0653 8.33333 18.5 8.33333H17.4722C16.9069 8.33333 16.4444 8.80208 16.4444 9.375Z" fill="#7E6A8C"/>
</svg>
