<svg width="29" height="27" viewBox="0 0 29 27" fill="none" xmlns="http://www.w3.org/2000/svg">
<path d="M19.4708 16.875C24.3606 16.875 28.3211 13.0992 28.3211 8.4375C28.3211 7.63066 28.1994 6.8502 27.9782 6.10664C27.8067 5.53711 27.071 5.41055 26.634 5.82715L22.3858 9.87715C22.2199 10.0354 21.9931 10.125 21.7608 10.125H18.5857C18.099 10.125 17.7007 9.74531 17.7007 9.28125V6.2543C17.7007 6.03281 17.7947 5.8166 17.9607 5.6584L22.2088 1.6084C22.6458 1.1918 22.5075 0.49043 21.9157 0.326953C21.1357 0.116016 20.3171 0 19.4708 0C14.5809 0 10.6204 3.77578 10.6204 8.4375C10.6204 9.44473 10.8085 10.415 11.1459 11.3115L1.10076 20.8881C0.398265 21.5578 0 22.4701 0 23.4193C0 25.3969 1.68157 27 3.75587 27C4.75153 27 5.70847 26.6203 6.41097 25.9506L16.4561 16.374C17.3965 16.701 18.4142 16.875 19.4708 16.875ZM4.42517 21.5156C4.77726 21.5156 5.11493 21.649 5.36389 21.8863C5.61286 22.1237 5.75272 22.4456 5.75272 22.7812C5.75272 23.1169 5.61286 23.4388 5.36389 23.6762C5.11493 23.9135 4.77726 24.0469 4.42517 24.0469C4.07308 24.0469 3.73542 23.9135 3.48645 23.6762C3.23749 23.4388 3.09762 23.1169 3.09762 22.7812C3.09762 22.4456 3.23749 22.1237 3.48645 21.8863C3.73542 21.649 4.07308 21.5156 4.42517 21.5156Z" fill="#7E6A8C"/>
</svg>
