<?xml version="1.0" standalone="no"?>
<!DOCTYPE svg PUBLIC "-//W3C//DTD SVG 1.1//EN" "http://www.w3.org/Graphics/SVG/1.1/DTD/svg11.dtd" >
<svg xmlns="http://www.w3.org/2000/svg" xmlns:xlink="http://www.w3.org/1999/xlink" version="1.1">
<metadata>
Created by FontForge 20190801 at Fri Apr  9 18:12:08 1999
 By www-data
(c)1995-1998 Apple Computer, Inc. All Rights Reserved
</metadata>
<defs>
<font id="TEXTILE" horiz-adv-x="1365" >
  <font-face 
    font-family="TEXTILE"
    font-weight="400"
    font-stretch="normal"
    units-per-em="2048"
    panose-1="0 0 4 0 0 0 0 0 0 0"
    ascent="1638"
    descent="-410"
    x-height="1373"
    cap-height="1739"
    bbox="-1000 -770 2715 2280"
    underline-thickness="100"
    underline-position="-250"
    unicode-range="U+0020-F8FF"
  />
<missing-glyph horiz-adv-x="1024" 
d="M128 0v2048h768v-2048h-768zM256 128h512v1792h-512v-1792z" />
    <glyph glyph-name=".notdef" horiz-adv-x="1024" 
d="M128 0v2048h768v-2048h-768zM256 128h512v1792h-512v-1792z" />
    <glyph glyph-name=".null" horiz-adv-x="0" 
 />
    <glyph glyph-name="glyph2" horiz-adv-x="683" 
 />
    <glyph glyph-name="space" unicode=" " horiz-adv-x="683" 
 />
    <glyph glyph-name="exclam" unicode="!" horiz-adv-x="671" 
d="M615 476q-82 -38 -159 -38q-131 0 -131 97q0 59 20 153q106 497 106 854q0 66 -18 153q124 53 219 53q161 0 161 -134q0 -62 -26 -166l-40 -160q-154 -616 -154 -738q0 -32 22 -74zM217 266q122 32 198 32q166 0 166 -123q0 -13 -22 -155q-128 -48 -226 -48
q-120 0 -120 78q0 24 10 70t10 70q0 25 -16 76z" />
    <glyph glyph-name="quotedbl" unicode="&#x22;" horiz-adv-x="840" 
d="M566 1223q-54 -16 -107 -16q-102 0 -102 67q0 65 25 192t25 192q0 25 -12 54q83 36 153 36q134 0 134 -79q0 -57 -60.5 -202.5t-60.5 -210.5q0 -19 5 -33zM966 1223q-54 -16 -107 -16q-102 0 -102 67q0 65 25 192t25 192q0 22 -12 54q82 36 152 36q135 0 135 -75
q0 -60 -60 -206t-60 -212q0 -18 4 -32z" />
    <glyph glyph-name="numbersign" unicode="#" horiz-adv-x="1513" 
d="M649 477q-136 -262 -136 -424q0 -28 7 -61q-75 -25 -122 -25q-114 0 -114 97q0 89 157 413h-20q-121 0 -249 -63q31 169 112 222q69 45 253 45l174 371h-23q-161 0 -303 -60q42 174 142 226q73 37 279 37q116 242 116 375q0 43 -13 93q79 25 136 25q115 0 115 -106
q0 -82 -56 -199l-90 -188h187q101 239 133 293q110 183 241 183q50 0 121 -21q-89 -95 -274 -455h21q106 0 228 52q-17 -255 -346 -255q-57 -122 -160 -371h26q148 0 283 90q-47 -294 -381 -294q-87 -255 -87 -335q0 -68 28 -127q-97 -47 -164 -47q-107 0 -107 121
q0 87 113 388h-227zM745 681h205q2 5 164 371h-195z" />
    <glyph glyph-name="dollar" unicode="$" horiz-adv-x="1195" 
d="M274 507q59 -249 254 -309l115 578q-291 193 -291 400q0 232 160 377q150 135 387 154q3 24 3 67q0 49 -14 91q34 12 74 12q121 0 121 -90q0 -33 -10 -80q280 -27 280 -156q0 -70 -99 -186q-113 139 -218 155l-112 -564q288 -216 288 -420q0 -224 -166 -373
q-156 -139 -385 -155q-7 -59 -7 -111q0 -25 15 -76q-57 -15 -99 -15q-100 0 -100 68q0 25 20 132q-128 9 -242 71q-141 76 -141 188q0 115 167 242zM866 1524q-219 -33 -219 -266q0 -108 129 -188zM696 186q227 28 227 252q0 115 -130 233z" />
    <glyph glyph-name="percent" unicode="%" horiz-adv-x="1867" 
d="M674 -39q-191 48 -191 138q0 109 268 448l316 400q111 145 402 523q-143 -64 -264 -64q-51 0 -91 11q3 -24 3 -31q0 -215 -133 -387q-144 -186 -353 -186q-301 0 -301 323q0 147 82 312q97 194 228 194q62 0 111 -99q-199 -120 -199 -402q0 -152 114 -152q117 0 186 160
q54 125 54 260q0 33 -5 56q-95 45 -95 100q0 85 109 183q121 -143 352 -143q154 0 388 122q82 43 118 43q70 0 125 -74q-231 -183 -686 -822q-465 -652 -538 -913zM1537 839q46 80 111 80q247 0 247 -327q0 -235 -130 -406q-142 -186 -370 -186q-302 0 -302 267
q0 196 127 357.5t317 214.5zM1579 739q-259 -114 -259 -427q0 -136 120 -136q111 0 178 135q55 110 55 233q0 119 -94 195z" />
    <glyph glyph-name="ampersand" unicode="&#x26;" horiz-adv-x="1707" 
d="M1175 200q-286 -241 -607 -241q-458 0 -458 358q0 390 478 612q-151 109 -151 294q0 254 183 396q167 129 429 129q375 0 375 -140q0 -85 -123 -189q-64 152 -255 152q-274 0 -274 -310q0 -138 99 -199q80 23 135 23q74 0 148 -45q-67 -142 -175 -230q-22 -3 -50 -3
q-86 0 -182 37q-250 -167 -250 -445q0 -223 232 -223q203 0 379 187q173 183 173 387q0 38 -45 74t-45 57q0 60 93 180q116 -42 261 -42q190 0 371 55q-38 -311 -309 -311q-25 0 -53 2q-133 -383 -133 -684q0 -84 55 -174q-123 -120 -231 -120q-115 0 -115 120q0 73 45 293z
" />
    <glyph glyph-name="quotesingle" unicode="'" horiz-adv-x="512" 
d="M591 1171q-63 -16 -122 -16q-101 0 -101 74q0 57 18.5 169.5t18.5 169.5q0 84 -33 125q130 55 240 55q129 0 129 -66q0 -62 -79.5 -230t-79.5 -241q0 -16 9 -40z" />
    <glyph glyph-name="parenleft" unicode="(" horiz-adv-x="853" 
d="M1223 1643q-338 -111 -535 -467q-176 -319 -176 -701q0 -567 393 -604q-107 -212 -267 -212q-242 0 -367 251q-99 198 -99 466q0 241 128 559q136 339 340 559q235 254 487 254q75 0 96 -105z" />
    <glyph glyph-name="parenright" unicode=")" horiz-adv-x="853" 
d="M-89 -237q338 115 533 468q177 318 177 700q0 567 -393 604q107 213 267 213q241 0 367 -252q99 -198 99 -465q0 -241 -127 -559q-136 -340 -340 -559q-236 -254 -488 -254q-74 0 -95 104z" />
    <glyph glyph-name="asterisk" unicode="*" horiz-adv-x="984" 
d="M782 843l-30 -1h-10q-149 0 -149 103q0 58 62 244q-190 -113 -263 -245q-97 61 -97 140q0 96 330 208q-204 144 -204 209q0 66 103 132q46 -112 165 -231q3 190 43 252q51 78 223 94q-81 -168 -145 -359q192 144 294 144q73 0 84 -166q-47 9 -78 9q-90 0 -259 -86
q268 -131 268 -245q0 -71 -144 -105q-49 124 -195 243q-16 -143 -16 -212q0 -54 18 -128z" />
    <glyph glyph-name="plus" unicode="+" horiz-adv-x="1195" 
d="M232 492q34 196 115 259q77 60 281 60q33 145 33 274q0 55 -15 115q83 26 149 26q151 0 151 -98q0 -60 -24 -159l-38 -158h46q161 0 303 56q-33 -193 -119 -255q-77 -57 -281 -57q-31 -154 -31 -242q0 -69 28 -134q-84 -30 -161 -30q-153 0 -153 98q0 125 61 308h-49
q-149 0 -296 -63z" />
    <glyph glyph-name="comma" unicode="," horiz-adv-x="653" 
d="M-54 -207q32 -9 60 -9q239 0 239 239q0 96 -90 176q137 86 279 86q140 0 140 -140q0 -181 -176 -337q-170 -150 -354 -150q-104 0 -104 78q0 16 6 57z" />
    <glyph glyph-name="hyphen" unicode="-" horiz-adv-x="718" 
d="M185 548q95 286 275 286q23 0 68.5 -2.5t68.5 -2.5q112 0 211 37q-17 -290 -324 -290h-58q-152 0 -241 -28z" />
    <glyph glyph-name="hyphen" unicode="&#x2010;" horiz-adv-x="718" 
d="M185 548q95 286 275 286q23 0 68.5 -2.5t68.5 -2.5q112 0 211 37q-17 -290 -324 -290h-58q-152 0 -241 -28z" />
    <glyph glyph-name="period" unicode="." horiz-adv-x="603" 
d="M170 301q118 33 197 33q164 0 164 -125q0 -39 -27 -189q-125 -48 -221 -48q-120 0 -120 94q0 26 10.5 78.5t10.5 78.5q0 35 -14 78z" />
    <glyph glyph-name="slash" unicode="/" horiz-adv-x="1012" 
d="M393 -341q-253 66 -253 206q0 153 370 897q366 735 498 863q127 123 296 123q51 0 113 -16q-165 -140 -418 -554q-245 -401 -422 -810q-193 -446 -193 -653q0 -25 9 -56z" />
    <glyph glyph-name="zero" unicode="0" 
d="M186 467q0 264 104 551q113 315 304 507q220 223 495 223q430 0 430 -504q0 -265 -101 -552q-111 -317 -299 -510q-218 -224 -494 -224q-439 0 -439 509zM728 134q217 0 338 468q88 336 88 643q0 327 -181 327q-214 0 -335 -467q-87 -337 -87 -641q0 -330 177 -330z" />
    <glyph glyph-name="one" unicode="1" 
d="M945 221q94 10 134 10q158 0 158 -108q0 -57 -58 -188q-122 65 -290 65h-195q-44 0 -133 -4.5t-133 -4.5q-156 0 -156 102q0 44 48 177q97 -44 284 -49l251 1262q-86 -20 -152 -20q-134 0 -134 143q0 56 21 148q137 -53 335 -53q164 0 324 48z" />
    <glyph glyph-name="two" unicode="2" 
d="M181 148q255 196 541 557q339 430 339 665q0 145 -144 145q-215 0 -431 -208q-17 54 -17 106q0 174 223 266q168 69 372 69q373 0 373 -321q0 -155 -164 -404q-122 -186 -345 -435q-154 -166 -307 -332q183 27 394 27q260 0 260 -191q0 -77 -40 -168q-156 76 -435 76
q-84 0 -251.5 -24t-251.5 -24q-118 0 -118 123v8z" />
    <glyph glyph-name="three" unicode="3" 
d="M227 278q174 -108 339 -108q151 0 252.5 102t101.5 253q0 190 -166 243q-87 -23 -145 -23q-122 0 -206 50q42 126 136 220q60 17 113 17q84 0 159 -19q239 168 239 356q0 176 -162 176q-166 0 -331 -113q-31 64 -31 113q0 203 481 203q383 0 383 -311q0 -286 -394 -484
q282 -68 282 -345q0 -280 -224 -469q-213 -180 -498 -180q-400 0 -400 159q0 58 71 160z" />
    <glyph glyph-name="four" unicode="4" 
d="M818 568q-95 -1 -286.5 -30t-284.5 -29q-77 0 -77 88q0 14 3 43t3 43q175 166 294 447q117 275 124 522q137 96 223 96q75 0 75 -76q0 -101 -152 -425q-74 -153 -221 -458q50 7 346 18q146 669 146 832v22q98 46 199 46q129 0 129 -96q0 -51 -21 -138l-33 -136l-105 -527
q220 -3 220 -106q0 -59 -71 -203q-88 47 -199 59q-62 -317 -62 -413q0 -49 19 -107q-104 -54 -203 -54q-146 0 -146 120q0 90 31 234z" />
    <glyph glyph-name="five" unicode="5" 
d="M221 274q138 -110 343 -110q393 0 393 431q0 245 -257 245q-180 0 -300 -45l285 964q228 -52 396 -52q219 0 428 59q-121 -323 -378 -323q-156 0 -303 30l-123 -385q70 17 188 17q421 0 421 -416q0 -316 -238 -527q-229 -203 -548 -203q-381 0 -381 160q0 49 74 155z" />
    <glyph glyph-name="six" unicode="6" 
d="M589 810q193 215 396 215q327 0 327 -347q0 -285 -187 -499q-195 -222 -476 -222q-457 0 -457 490q0 271 134 571q140 313 363 510q249 220 529 220q177 0 177 -145q0 -47 -24 -121q-63 41 -147 41q-217 0 -409 -258q-150 -200 -226 -455zM559 614q-28 -129 -28 -204
q0 -259 203 -259q254 0 254 392q0 218 -166 218q-124 0 -263 -147z" />
    <glyph glyph-name="seven" unicode="7" 
d="M703 -29q-51 -12 -99 -12q-246 0 -246 159q0 255 342 719q251 339 539 618q-93 -13 -354 -13q-396 0 -396 110q0 79 79 207q192 -52 554 -52q312 0 516 35l-105 -243q-319 -308 -546 -698q-262 -451 -284 -830z" />
    <glyph glyph-name="eight" unicode="8" 
d="M649 902q-171 132 -171 309q0 236 179 390q171 147 411 147q372 0 372 -291q0 -274 -363 -508q260 -191 260 -377q0 -275 -200 -448q-191 -165 -470 -165q-460 0 -460 360q0 303 442 583zM940 1046q167 164 167 346q0 180 -133 180q-192 0 -192 -254q0 -133 158 -272z
M773 813q-220 -216 -220 -474q0 -207 187 -207q121 0 210 89t89 210q0 158 -266 382z" />
    <glyph glyph-name="nine" unicode="9" 
d="M1068 897q-194 -216 -398 -216q-325 0 -325 347q0 286 186 500q195 222 477 222q457 0 457 -490q0 -271 -134 -571q-140 -313 -363 -510q-249 -220 -529 -220q-177 0 -177 145q0 49 23 121q65 -42 148 -42q216 0 409 258q150 201 226 456zM1098 1093q27 123 27 203
q0 260 -203 260q-254 0 -254 -392q0 -219 166 -219q122 0 264 148z" />
    <glyph glyph-name="colon" unicode=":" horiz-adv-x="603" 
d="M173 301q118 33 197 33q164 0 164 -125q0 -39 -27 -189q-125 -48 -221 -48q-120 0 -120 93q0 26 10.5 78.5t10.5 78.5q0 36 -14 79zM383 1360q122 33 198 33q164 0 164 -126q0 -51 -28 -188q-125 -48 -220 -48q-121 0 -121 93q0 26 10.5 78.5t10.5 78.5q0 39 -14 79z" />
    <glyph glyph-name="semicolon" unicode=";" horiz-adv-x="653" 
d="M3 -207q33 -9 62 -9q196 0 196 197q0 118 -129 218q118 86 260 86q174 0 174 -195q0 -171 -132.5 -301t-304.5 -130q-117 0 -126 134zM378 1360q122 33 197 33q164 0 164 -126q0 -56 -27 -188q-126 -48 -221 -48q-120 0 -120 92q0 27 10.5 79t10.5 79q0 39 -14 79z" />
    <glyph glyph-name="less" unicode="&#x3c;" horiz-adv-x="1024" 
d="M578 678q402 -210 402 -405q0 -77 -58 -174q-224 253 -498 387q-148 72 -178 104q-43 46 -69 186q315 62 542 195q156 91 468 352q3 -41 3 -64q0 -359 -612 -581z" />
    <glyph glyph-name="equal" unicode="=" 
d="M362 701q22 160 86 229q56 61 169 76q43 5 261 9q347 6 479 49q-55 -190 -144 -251q-84 -58 -288 -58h-285q-139 0 -278 -54zM277 292q31 175 99 236q76 69 239 69h333q192 0 326 55q-25 -206 -149 -269q-85 -43 -321 -43h-81l-83 1q-246 3 -363 -49z" />
    <glyph glyph-name="greater" unicode="&#x3e;" horiz-adv-x="1024" 
d="M724 723q-402 218 -402 406q0 76 59 174q217 -247 499 -387q148 -74 176 -104q38 -42 70 -187q-493 -97 -796 -361q-81 -70 -214 -185q-3 42 -3 66q0 356 611 578z" />
    <glyph glyph-name="question" unicode="?" horiz-adv-x="1020" 
d="M664 439q-101 -54 -187 -54q-134 0 -134 142q0 117 156 280q122 110 244 221q140 155 140 336q0 173 -167 173q-157 0 -293 -142q-58 66 -58 121q0 120 190 185q140 47 290 47q381 0 381 -336q0 -196 -151 -348q-94 -76 -280 -231q-151 -130 -151 -292q0 -59 20 -102z
M281 251q93 28 179 28q145 0 145 -105q0 -37 -23 -162q-108 -39 -197 -39q-109 0 -109 78q0 24 9 70.5t9 70.5t-13 59z" />
    <glyph glyph-name="at" unicode="@" horiz-adv-x="1877" 
d="M1476 290q38 -56 38 -113q0 -117 -262 -177q-179 -41 -355 -41q-693 0 -693 636q0 472 321 810q327 343 796 343q700 0 700 -624q0 -254 -140 -436q-152 -198 -399 -198q-231 0 -231 221q0 20 2 43q-224 -325 -435 -325q-206 0 -206 236q0 217 156 424q167 222 377 222
q101 0 235 -77q42 52 146 52q9 0 7 0l62 -1q-131 -301 -131 -501q0 -114 87 -114q254 0 254 431q0 461 -547 461q-372 0 -614 -293q-227 -275 -227 -655q0 -469 492 -469q309 0 567 145zM1307 1097q-104 77 -160 77q-123 0 -219 -179q-83 -155 -83 -291q0 -85 64 -85
q164 0 398 478z" />
    <glyph glyph-name="A" unicode="A" 
d="M508 559q-36 -76 -105 -230q-65 -151 -65 -253q0 -22 3 -40q-146 -50 -237 -50q-99 0 -99 74q0 46 36 111q184 344 559 1046q71 128 247 465l156 42q89 24 159 24q123 0 123 -185q0 -57 -3 -172t-3 -172v-561q0 -416 126 -588q-149 -84 -274 -84q-171 0 -184 342l-9 231
h-430zM587 744h356l-2 147v112q0 64 5 200q4 108 4 168v32l-2 102q-177 -340 -361 -761z" />
    <glyph glyph-name="B" unicode="B" 
d="M1049 952q349 -107 349 -374q0 -269 -263 -441q-230 -151 -512 -151q-30 0 -89.5 6.5t-89.5 6.5q-23 0 -69.5 -8.5t-69.5 -8.5q-128 0 -128 92q0 42 16 107q253 1030 253 1308q0 68 -33 124q228 135 612 135q452 0 452 -296q0 -301 -428 -500zM823 1549l-113 -572
q422 70 422 417q0 179 -157 179q-73 0 -152 -24zM557 210q119 -36 201 -36q132 0 212 125q69 108 69 247q0 216 -191 290q-97 -32 -175 -42z" />
    <glyph glyph-name="C" unicode="C" horiz-adv-x="1316" 
d="M1281 406q21 -80 21 -101q0 -143 -267 -254q-223 -93 -393 -93q-455 0 -455 511q0 286 112 573q121 309 328 495q235 211 531 211q366 0 366 -182q0 -102 -187 -253q-83 262 -276 262q-241 0 -374 -400q-98 -294 -98 -598q0 -374 242 -374q189 0 450 203z" />
    <glyph glyph-name="D" unicode="D" 
d="M415 1605q303 143 617 143q486 0 486 -488q0 -263 -125 -556q-131 -308 -342 -500q-238 -218 -512 -218q-37 0 -113 13q-99 -17 -115 -17q-134 0 -134 93q0 42 16 107q252 1025 252 1305q0 62 -30 118zM563 242q96 -30 158 -30q207 0 334 398q96 301 96 564
q0 352 -202 352q-43 0 -134 -21z" />
    <glyph glyph-name="E" unicode="E" horiz-adv-x="1195" 
d="M415 1603q185 106 458 106q35 0 105 -1t105 -1q179 0 372 38q-56 -261 -295 -261q-55 0 -174 5q-96 4 -151 4h-23l-100 -501h85q201 0 383 57q-23 -277 -349 -277q-27 0 -81 1t-81 1q-67 -338 -91 -511q124 -24 230 -24q217 0 401 67v-21q0 -296 -534 -296
q-42 0 -124.5 5.5t-124.5 5.5q-19 0 -57.5 -8.5t-57.5 -8.5q-134 0 -134 93q0 73 29 182l48 180q191 716 191 1049q0 58 -30 116z" />
    <glyph glyph-name="F" unicode="F" horiz-adv-x="1195" 
d="M415 1603q186 107 472 107q40 0 119 -1.5t119 -1.5q178 0 373 38q-58 -261 -294 -261q-62 0 -196 5q-108 4 -170 4h-26l-110 -550h103q226 0 407 56q-12 -149 -96 -214q-68 -53 -203 -61q2 0 -254 0q-103 -473 -103 -596q0 -37 8 -83q-137 -60 -244 -60q-140 0 -140 95
q0 65 27 167q238 899 238 1240q0 58 -30 116z" />
    <glyph glyph-name="G" unicode="G" horiz-adv-x="1301" 
d="M1360 1313q-80 261 -303 261q-247 0 -382 -408q-99 -300 -99 -612q0 -357 185 -357q64 0 163 42q67 174 115 424h-20q-101 0 -199 -43q18 172 92 222q61 41 248 41q43 0 127.5 3t127.5 3q-127 -386 -155 -660q-20 -193 -205 -193q-35 0 -90 4q-175 -81 -325 -81
q-213 0 -337 151q-116 142 -116 359q0 287 116 575q124 309 335 495q239 210 535 210q375 0 375 -179q0 -104 -188 -257z" />
    <glyph glyph-name="H" unicode="H" 
d="M1046 753h-427q-109 -505 -109 -624q0 -29 8 -82q-136 -61 -244 -61q-139 0 -139 96q0 64 27 167l43 164q198 755 198 1093q0 68 -38 127q150 88 302 88q126 0 126 -91q0 -68 -127 -638h428q81 396 81 512q0 72 -38 129q150 88 303 88q125 0 125 -91q0 -4 -54 -275
l-179 -899q-50 -251 -50 -327q0 -31 9 -82q-137 -61 -244 -61q-140 0 -140 96q0 64 27 167l43 164q18 69 69 340z" />
    <glyph glyph-name="I" unicode="I" horiz-adv-x="943" 
d="M598 1494q-93 -5 -177 -37l-1 45q-5 205 245 205h229q1 0 146 8q64 4 124 24l1 -27q8 -206 -223 -217l-254 -1279q102 0 177 29q3 -36 3 -53q0 -187 -192 -189l-294 -3q-158 -2 -264 -25q0 239 225 239z" />
    <glyph glyph-name="J" unicode="J" horiz-adv-x="894" 
d="M-19 51q27 -198 172 -198q183 0 279 483l172 864q36 181 36 311q0 64 -22 133q139 76 269 76q149 0 149 -107q0 -73 -41 -240l-62 -251l-129 -647q-163 -818 -780 -818q-255 0 -255 152q0 138 212 242z" />
    <glyph glyph-name="K" unicode="K" horiz-adv-x="1536" 
d="M565 47q-136 -61 -244 -61q-140 0 -140 96q0 64 27 166q241 910 241 1257q0 70 -39 131q164 84 302 84q127 0 127 -93l-54 -272l-87 -439q613 805 883 805q139 0 139 -131q0 -16 -15 -124l-53 2h-16q-126 0 -264 -99q-105 -76 -231 -220q-93 -113 -186 -225
q315 -679 564 -679h11q-46 -273 -244 -273q-184 0 -384 331q-137 225 -228 493q-118 -550 -118 -667q0 -31 9 -82z" />
    <glyph glyph-name="L" unicode="L" horiz-adv-x="1195" 
d="M579 274q143 -24 234 -24q220 0 416 81v-7q0 -218 -180 -291q-111 -45 -373 -45q-42 0 -125 5.5t-125 5.5q-19 0 -57 -8.5t-57 -8.5q-135 0 -135 92q0 70 30 182q242 900 242 1249q0 71 -38 128q150 88 303 88q125 0 125 -91q0 -4 -54 -275l-168 -844q-29 -144 -38 -237z
" />
    <glyph glyph-name="M" unicode="M" horiz-adv-x="1950" 
d="M681 1103q-160 -735 -160 -904q0 -74 32 -161q-120 -52 -225 -52q-145 0 -145 107q0 69 129 516q27 92 131 544q21 87 42 175q23 103 23 177q0 64 -41 124q151 92 283 92q98 0 126 -132q74 -346 229 -986q148 224 434 659q183 278 183 363q0 20 -10 54q111 42 246 42
q136 0 136 -85q0 -38 -21 -117l-32 -120q-226 -847 -226 -1235q0 -59 28 -115q-124 -63 -237 -63q-135 0 -135 112q0 85 62 398l130 656q-479 -720 -511 -874q-107 -62 -169 -62q-74 0 -138 213q-3 9 -65 277q-66 286 -99 397z" />
    <glyph glyph-name="N" unicode="N" horiz-adv-x="1536" 
d="M533 56q-150 -70 -253 -70q-142 0 -142 129q0 58 145 618l125 483q59 228 59 272q0 48 -42 96q176 137 306 137q112 0 181 -316q154 -705 292 -1053l119 548q79 380 79 567q0 94 -53 180q129 73 240 73q149 0 149 -117q0 -78 -35 -202l-58 -205q-29 -101 -167 -653
q-5 -21 -47 -184q-29 -113 -29 -188q0 -25 12 -71q-161 -114 -274 -114q-114 0 -235 272q-88 197 -179 536q-48 187 -95 375q-175 -729 -175 -891q0 -129 77 -222z" />
    <glyph glyph-name="O" unicode="O" 
d="M577 -41q-395 0 -395 523q0 252 116 541q123 309 320 503q226 222 488 222q417 0 417 -521q0 -262 -117 -551q-124 -308 -326 -499q-231 -218 -503 -218zM715 146q196 0 325 478q98 365 98 644q0 293 -148 293q-195 0 -324 -478q-99 -366 -99 -644q0 -293 148 -293z" />
    <glyph glyph-name="P" unicode="P" horiz-adv-x="1324" 
d="M654 695q-88 -410 -88 -549q0 -49 21 -95q-149 -65 -267 -65q-139 0 -139 95q0 63 27 167q237 914 237 1243q0 61 -29 116q214 141 629 141q479 0 479 -362q0 -307 -293 -498q-235 -153 -577 -193zM689 875q465 38 465 469q0 225 -213 225q-37 0 -117 -16z" />
    <glyph glyph-name="Q" unicode="Q" 
d="M924 44q236 -125 518 -125q53 0 109 4q-159 -265 -298 -265q-141 0 -528 309q-68 -8 -109 -8q-415 0 -415 520q0 252 116 542q123 310 321 504q226 223 488 223q417 0 417 -520q0 -328 -172 -666q-178 -348 -447 -518zM734 146q197 0 325 478q99 365 99 644
q0 293 -149 293q-195 0 -324 -478q-99 -366 -99 -644q0 -293 148 -293z" />
    <glyph glyph-name="R" unicode="R" horiz-adv-x="1474" 
d="M1052 862l102 -304q104 -311 342 -382q-94 -203 -287 -203q-182 0 -306 314q-36 92 -130 466q-43 -9 -131 -24l-60 -290q-34 -164 -34 -296q0 -46 21 -92q-148 -65 -258 -65q-130 0 -130 95q0 64 27 167q237 908 237 1243q0 61 -29 116q268 141 653 141q468 0 468 -309
q0 -339 -485 -577zM680 921q495 61 495 457q0 194 -204 194q-68 0 -166 -26z" />
    <glyph glyph-name="S" unicode="S" horiz-adv-x="1234" 
d="M321 409q13 -261 283 -261q298 0 298 272q0 136 -133 241q-16 12 -247 184q-133 120 -133 277q0 278 212 457q200 169 483 169q334 0 334 -148q0 -101 -150 -202q-93 169 -303 169q-256 0 -256 -223q0 -91 164 -231l234 -176q139 -136 139 -309q0 -284 -245 -482
q-231 -187 -521 -187q-125 0 -244 41q-161 56 -161 157q0 148 246 252z" />
    <glyph glyph-name="T" unicode="T" horiz-adv-x="1024" 
d="M608 1465h-39q-142 0 -284 -82q-17 65 -17 107q0 227 214 227q42 0 126.5 -5t126.5 -5h324q173 0 340 50l1 -34v-9q0 -96 -60 -175q-66 -86 -159 -86q-34 0 -114 7q-57 5 -93 5h-21l-201 -1009q-40 -201 -40 -312q0 -46 21 -93q-154 -65 -267 -65q-139 0 -139 95
q0 70 40 230l59 238z" />
    <glyph glyph-name="U" unicode="U" 
d="M353 1633q150 88 302 88q126 0 126 -91q0 -5 -54 -275l-143 -714q-37 -185 -37 -275q0 -169 129 -169q135 0 289 209l174 874q38 191 38 312q0 31 -7 81q118 47 231 47q159 0 159 -108q0 -57 -25 -148q-204 -744 -204 -1072q0 -139 91 -245q-192 -161 -325 -161
q-132 0 -153 186q-160 -213 -391 -213q-351 0 -351 399q0 193 94.5 572.5t94.5 573.5q0 72 -38 129z" />
    <glyph glyph-name="V" unicode="V" 
d="M836 3q-102 -57 -194 -57q-91 0 -127 179q-4 20 -25 249q-39 415 -74 642q-74 482 -173 585q173 119 299 119q129 0 175 -170q15 -54 34 -272l64 -737q511 783 635 1179q267 -6 267 -138q0 -33 -333 -538q-548 -832 -548 -1032v-9z" />
    <glyph glyph-name="W" unicode="W" horiz-adv-x="2048" 
d="M1175 1568q157 83 258 83t101 -147q0 -176 -13 -530q-16 -432 -13 -531l3 -104q514 1100 514 1347q0 18 -1 34l74 2h22q224 0 224 -138q0 -75 -82 -238l-265 -528l-216 -392q-156 -283 -170 -378q-144 -89 -254 -89q-78 0 -112 133q-25 97 -26 265q1 98 3 195l-9 437
l-413 -831q-13 -26 -13 -59q0 -18 4 -39q-123 -101 -214 -101q-177 0 -177 307q0 23 2 76q1 50 1 77v363q-3 282 -28 464q-34 247 -108 334q170 140 280 140q174 0 174 -396q0 -26 -1.5 -79t-1.5 -79q0 -456 -11 -714q485 1002 485 1060q0 24 -17 56z" />
    <glyph glyph-name="X" unicode="X" 
d="M657 618q-291 -324 -291 -573q0 -17 3 -31q-77 -28 -151 -28q-154 0 -154 91q0 101 205 377q162 218 292 350q-149 379 -149 608q0 237 351 317l-1 -48v-17q0 -225 124 -617q343 419 343 552q0 33 -19 74q102 47 196 47q139 0 139 -97q0 -230 -581 -760
q243 -578 424 -635q-139 -242 -295 -242q-213 0 -436 632z" />
    <glyph glyph-name="Y" unicode="Y" horiz-adv-x="1349" 
d="M598 780q-94 669 -322 790q156 172 312 172q117 0 187 -139q52 -104 81 -291l30 -252q388 688 647 688q122 0 185 -151q-176 -51 -384 -280q-120 -132 -296 -385q-199 -287 -199 -785q0 -53 21 -96q-154 -65 -267 -65q-139 0 -139 96q0 66 26 166q66 255 118 532z" />
    <glyph glyph-name="Z" unicode="Z" 
d="M1263 -54q-192 66 -573 66q-321 0 -566 -60q-57 89 -57 145q0 76 197 316l467 570q102 125 415 516q-216 -32 -453 -32q-195 0 -195 112q0 80 92 197q207 -70 448 -70q328 0 570 62q7 -27 7 -61q0 -130 -186 -349q-650 -767 -923 -1141q219 40 492 40q320 0 320 -135
q0 -76 -55 -176z" />
    <glyph glyph-name="bracketleft" unicode="[" horiz-adv-x="853" 
d="M513 1524q-13 41 -13 65q0 149 190 149q68 0 135 -31h55q143 0 262 32q-22 -142 -103 -182q-54 -26 -225 -26l-288 -1450q-15 -76 -15 -117q0 -115 170 -115q53 0 126 18q-13 -208 -273 -208q-330 0 -330 229q0 85 35 261z" />
    <glyph glyph-name="backslash" unicode="\" horiz-adv-x="985" 
d="M748 -341q11 63 11 121q0 327 -173 989q-178 679 -341 935q80 55 169 55q106 0 199 -191q67 -139 128 -383l66 -288q226 -861 226 -1027q0 -133 -285 -211z" />
    <glyph glyph-name="bracketright" unicode="]" horiz-adv-x="853" 
d="M619 -126q13 -45 13 -65q0 -149 -190 -149q-69 0 -136 31h-54q-144 0 -263 -32q22 142 103 182q54 26 225 26l288 1449q15 75 15 118q0 115 -170 115q-52 0 -126 -18q15 208 273 208q330 0 330 -229q0 -85 -35 -261z" />
    <glyph glyph-name="asciicircum" unicode="^" 
d="M943 1256q-367 -611 -690 -611h-14l-65 2q538 538 766 1101q116 -21 157 -66q36 -38 63 -157q138 -598 289 -874q-265 5 -376 180q-65 103 -130 425z" />
    <glyph glyph-name="underscore" unicode="_" horiz-adv-x="925" 
d="M64 17q73 -23 283 -23q67 0 119 1l166 3q221 0 221 -131q0 -33 -27 -163q-106 42 -271 42q-40 0 -119 -3t-119 -3q-270 0 -270 136z" />
    <glyph glyph-name="grave" unicode="`" horiz-adv-x="1024" 
d="M1025 1877q27 -92 148 -187l196 -154q-179 10 -397 67q-310 82 -310 195q0 79 363 79z" />
    <glyph glyph-name="a" unicode="a" 
d="M969 519q-300 -546 -554 -546q-263 0 -263 370q0 341 186 669q217 381 533 381q146 0 258 -74q55 61 151 61q116 0 227 -53q-76 -154 -142 -496q-61 -322 -61 -518q0 -143 51 -251q-88 -76 -202 -76q-211 0 -211 233q0 120 27 300zM1071 1027q-116 156 -230 156
q-143 0 -241 -320q-78 -253 -78 -443q0 -146 66 -146q70 0 263 334q142 244 220 419z" />
    <glyph glyph-name="b" unicode="b" 
d="M129 33q62 133 91 281l182 916q44 221 44 336q0 34 -12 85q114 69 222 69q155 0 155 -131q0 -72 -67 -384l-77 -358q288 519 555 519q263 0 263 -345q0 -340 -187 -668q-217 -380 -532 -380q-150 0 -258 74q-43 -61 -150 -61q-112 0 -229 47zM566 338q110 -155 230 -155
q144 0 242 322q77 252 77 445q0 114 -65 114q-165 0 -484 -726z" />
    <glyph glyph-name="c" unicode="c" horiz-adv-x="1111" 
d="M1112 328q15 -56 15 -89q0 -131 -214 -208q-163 -58 -324 -58q-426 0 -426 414q0 390 224 685q244 321 622 321q307 0 307 -129q0 -107 -194 -227q-81 171 -211 171q-344 0 -344 -720q0 -296 190 -296q160 0 355 136z" />
    <glyph glyph-name="d" unicode="d" 
d="M969 519q-300 -546 -554 -546q-263 0 -263 372q0 335 186 653q215 367 527 367q149 0 258 -73q32 153 32 270q0 40 -11 89q114 69 222 69q154 0 154 -131q0 -72 -26 -182q-190 -805 -190 -1094q0 -143 51 -251q-88 -76 -202 -76q-211 0 -211 233q0 120 27 300zM1065 1000
q-110 155 -229 155q-143 0 -239 -307q-75 -240 -75 -428q0 -146 65 -146q73 0 262 333z" />
    <glyph glyph-name="e" unicode="e" horiz-adv-x="1202" 
d="M559 562q-9 -80 -9 -134q0 -253 204 -253q189 0 436 195q25 -52 25 -92q0 -145 -231 -235q-181 -71 -354 -71q-470 0 -470 410q0 376 235 681q253 330 619 330q290 0 290 -246q0 -280 -242 -440q-205 -137 -503 -145zM578 735q394 7 394 336q0 140 -99 140
q-189 0 -295 -476z" />
    <glyph glyph-name="f" unicode="f" horiz-adv-x="1024" 
d="M804 981l-148 -745q-60 -302 -60 -420q0 -46 26 -104q-126 -53 -263 -53q-135 0 -135 107q0 84 30 208l50 206l159 801h-20q-95 0 -206 -52q10 159 60 209t207 50l28 138q86 422 638 422q314 0 314 -158q0 -72 -234 -165q-17 161 -151 161q-130 0 -191 -143
q-24 -56 -62 -255h88q170 0 324 34q4 -32 4 -58q0 -187 -303 -187q-26 0 -77.5 2t-77.5 2z" />
    <glyph glyph-name="g" unicode="g" 
d="M223 100q153 -244 379 -244q150 0 239 146q66 110 104 316l44 300q-297 -431 -544 -431q-248 0 -248 364q0 320 172 566q193 276 500 276q143 0 264 -74q38 60 146 60t228 -52q-83 -151 -131 -473l-58 -402q-44 -246 -119 -403q-97 -202 -259.5 -296.5t-376.5 -94.5
q-140 0 -309 56q-216 73 -216 183q0 124 185 203zM1076 1027q-107 158 -231 158q-149 0 -224 -233q-54 -165 -54 -354q0 -112 62 -112q169 0 447 541z" />
    <glyph glyph-name="h" unicode="h" 
d="M668 848q256 518 542 518q210 0 210 -214q0 -151 -70.5 -446t-70.5 -446q0 -123 60 -201q-115 -73 -227 -73q-188 0 -188 181q0 142 67.5 430t67.5 422q0 56 -33 56q-111 0 -310 -421q-189 -399 -189 -549q0 -38 17 -91q-102 -28 -197 -28q-172 0 -172 124q0 80 35 216
l56 218l136 686q44 222 44 335q0 33 -12 86q114 69 222 69q155 0 155 -131q0 -71 -143 -741z" />
    <glyph glyph-name="i" unicode="i" horiz-adv-x="680" 
d="M363 1328q138 51 251 51q152 0 152 -116q0 -53 -19 -127q-166 -650 -166 -885q0 -114 60 -192q-116 -73 -225 -73q-196 0 -196 181q0 175 86 518t86 518q0 63 -29 125zM814 1587q-107 -51 -196 -51q-134 0 -134 74q0 25 10 75t10 75q0 17 -13 41q129 47 218 47
q146 0 146 -111q0 -49 -41 -150z" />
    <glyph glyph-name="j" unicode="j" horiz-adv-x="718" 
d="M413 1328q129 51 245 51q158 0 158 -116q0 -76 -30 -190l-50 -189l-106 -538q-67 -341 -256 -517q-181 -170 -457 -170q-293 0 -293 148q0 112 182 202q88 -162 221 -162q161 0 255 451l89 427q71 341 71 478q0 62 -29 125zM864 1587q-106 -51 -196 -51q-134 0 -134 73
q0 25 10 75t10 75q0 18 -13 42q129 47 218 47q145 0 145 -111q0 -51 -40 -150z" />
    <glyph glyph-name="k" unicode="k" horiz-adv-x="1286" 
d="M648 755q414 610 630 610q119 0 139 -233q-207 0 -497 -360q55 -178 169 -346q141 -208 283 -242q-141 -198 -274 -198q-203 0 -463 701q-99 -463 -99 -586q0 -36 12 -84q-98 -31 -190 -31q-176 0 -176 122q0 76 29 199q16 66 46 197l145 726q43 215 43 335q0 38 -11 86
q114 69 221 69q155 0 155 -131q0 -82 -162 -834z" />
    <glyph glyph-name="l" unicode="l" horiz-adv-x="680" 
d="M431 1669q135 51 251 51q152 0 152 -116q0 -74 -31 -191l-49 -188l-134 -674q-39 -196 -39 -300q0 -113 60 -192q-116 -73 -225 -73q-196 0 -196 181q0 86 50 337l137 688q53 266 53 352q0 63 -29 125z" />
    <glyph glyph-name="m" unicode="m" horiz-adv-x="2029" 
d="M1218 14q-98 -28 -190 -28q-150 0 -150 118q0 48 33 196q144 647 144 758q0 37 -25 37q-87 0 -304 -413.5t-217 -571.5q0 -44 17 -96q-102 -28 -187 -28q-164 0 -164 124q0 65 24 162q182 736 182 959q0 52 -21 101q133 47 223 47q143 0 143 -126q0 -81 -29 -203
l-48 -202q311 545 562 545q180 0 180 -215q0 -59 -22 -165q-24 -115 -27 -165q313 545 569 545q183 0 183 -201q0 -60 -35 -231q-117 -572 -117 -699q0 -124 59 -203q-114 -73 -218 -73q-178 0 -178 181q0 145 44 361q98 480 98 530q0 37 -25 37q-86 0 -303 -413.5
t-217 -571.5q0 -44 16 -96z" />
    <glyph glyph-name="n" unicode="n" 
d="M668 848q269 545 547 545q211 0 211 -214q0 -156 -73.5 -459.5t-73.5 -459.5q0 -123 60 -201q-115 -73 -227 -73q-188 0 -188 181q0 134 40 332q101 499 101 549q0 55 -34 55q-100 0 -306 -436q-198 -419 -198 -562q0 -38 17 -91q-102 -28 -197 -28q-172 0 -172 124
q0 62 25 162l40 160q141 564 141 796q0 55 -20 104q133 47 230 47q153 0 153 -127q0 -70 -76 -404z" />
    <glyph glyph-name="o" unicode="o" horiz-adv-x="1300" 
d="M639 -27q-214 0 -340.5 132t-126.5 347q0 341 210 627q229 314 558 314q208 0 335 -136q124 -132 124 -342q0 -336 -208 -625q-228 -317 -552 -317zM708 175q157 0 248 314q67 231 67 443q0 258 -154 258q-162 0 -254 -313q-67 -228 -67 -444q0 -258 160 -258z" />
    <glyph glyph-name="p" unicode="p" 
d="M490 -287q-130 -55 -224 -55q-152 0 -152 128q0 51 20 130l32 129l169 849q44 221 44 339q0 41 -15 94q127 52 227 52q154 0 154 -131q0 -76 -78 -401q304 546 555 546q262 0 262 -373q0 -334 -186 -653q-216 -367 -527 -367q-145 0 -259 74q-30 -165 -30 -243
q0 -43 8 -118zM571 365q115 -155 229 -155q143 0 239 307q75 240 75 428q0 147 -65 147q-62 0 -256 -322q-161 -265 -222 -405z" />
    <glyph glyph-name="q" unicode="q" 
d="M969 519q-300 -546 -555 -546q-261 0 -261 370q0 342 185 669q217 381 533 381q146 0 257 -74q62 59 151 59q111 0 227 -53q-60 -125 -89 -273l-199 -1000q-27 -136 -27 -222q0 -29 9 -117q-132 -55 -224 -55q-152 0 -152 132q0 46 18 116l29 115zM1070 1027
q-110 156 -229 156q-144 0 -241 -320q-77 -251 -77 -443q0 -146 65 -146q69 0 263 334q142 246 219 419z" />
    <glyph glyph-name="r" unicode="r" horiz-adv-x="1024" 
d="M544 16q-94 -28 -198 -28q-170 0 -170 123q0 69 63 322q142 571 142 797q0 50 -21 101q133 47 230 47q154 0 154 -127q0 -82 -77 -403q298 542 499 542q107 0 107 -101q0 -192 -183 -403q-47 68 -86 68q-135 0 -313 -356q-164 -329 -164 -491q0 -38 17 -91z" />
    <glyph glyph-name="s" unicode="s" horiz-adv-x="1057" 
d="M264 383q74 -232 256 -232q185 0 185 192q0 101 -298 322q-104 100 -104 242q0 232 168 364q154 122 392 122q307 0 307 -117q0 -102 -144 -207q-123 164 -235 164q-158 0 -158 -168q0 -88 107 -167l197 -145q107 -103 107 -251q0 -254 -185 -397q-168 -132 -429 -132
q-347 0 -347 165q0 124 181 245z" />
    <glyph glyph-name="t" unicode="t" horiz-adv-x="1024" 
d="M414 981h-45q-114 0 -224 -44q-5 48 -5 70q0 130 98 165q49 18 217 18q54 275 54 354q0 63 -29 125q136 51 251 51q152 0 152 -116q0 -73 -34 -207l-52 -207h110q133 0 289 30q-13 -242 -279 -242q-27 0 -81 1.5t-81 1.5q-92 -438 -92 -589q0 -158 116 -158
q102 0 242 102q33 -64 33 -113q0 -116 -152 -189q-124 -59 -254 -59q-332 0 -332 327q0 215 98 679z" />
    <glyph glyph-name="u" unicode="u" 
d="M1094 1351q95 28 196 28q172 0 172 -124q0 -68 -24 -162l-41 -160q-93 -363 -93 -620q0 -144 52 -251q-90 -76 -203 -76q-211 0 -211 232q0 125 28 299q-272 -545 -547 -545q-211 0 -211 215q0 176 84.5 521t84.5 521q0 54 -21 103q133 47 231 47q153 0 153 -127
q0 -43 -28 -166q-143 -631 -143 -768q0 -55 33 -55q99 0 306 436q199 419 199 561q0 38 -17 91z" />
    <glyph glyph-name="v" unicode="v" horiz-adv-x="1196" 
d="M1082 1365q316 -10 316 -149q0 -137 -295 -592q-286 -440 -421 -543t-318 -126l2 109v35q0 197 -59 618q-67 483 -134 560q139 102 284 102q167 0 177 -264l7 -177q15 -324 21 -585l262 438q176 294 176 469q0 39 -18 105z" />
    <glyph glyph-name="w" unicode="w" horiz-adv-x="1664" 
d="M312 -26q20 125 20 322q0 144 -5 316q-2 117 -9 349q-10 187 -84 333q148 85 240 85q142 0 149 -222l20 -655q320 473 320 760q0 16 -2 30q98 46 190 46q129 0 129 -239q0 12 -8 -234q-2 -142 -10 -511q326 581 326 828q0 83 -30 139q126 58 234 58q107 0 107 -91
q0 -101 -239 -575q-233 -460 -326 -566q-120 -136 -343 -176q3 85 3 124q0 91 -6 341q-3 125 -3 185q0 88 3 155q-142 -359 -239 -504q-183 -273 -437 -298z" />
    <glyph glyph-name="x" unicode="x" horiz-adv-x="1140" 
d="M523 438q-213 -250 -256 -451q-217 16 -217 122q0 104 391 546q-120 352 -120 494q0 120 114 171q52 24 221 52q0 -278 71 -526q331 374 338 527q219 -3 219 -112q0 -134 -482 -616q118 -375 336 -497q-120 -169 -276 -169q-157 0 -339 459z" />
    <glyph glyph-name="y" unicode="y" horiz-adv-x="1221" 
d="M210 1277q140 102 286 102q144 0 168 -232q25 -264 80 -740l236 408q159 275 159 433q0 41 -19 117q315 -10 315 -150q0 -146 -250 -535q-244 -382 -526 -684q-314 -337 -467 -337q-163 0 -163 111q0 81 90 204q58 -42 119 -42q150 0 254 192q-153 974 -282 1153z" />
    <glyph glyph-name="z" unicode="z" horiz-adv-x="1184" 
d="M426 1393q119 -72 411 -72q263 0 483 43q-11 -145 -60 -218q-487 -564 -744 -909q43 0 127.5 2.5t127.5 2.5q20 0 60 1.5t60 1.5q253 0 253 -123q0 -85 -56 -181q-154 65 -511 65q-268 0 -468 -56q-15 63 -15 99q0 103 146 285q218 271 612 777q-185 -14 -265 -14
q-246 0 -246 105q0 80 85 191z" />
    <glyph glyph-name="braceleft" unicode="{" horiz-adv-x="853" 
d="M191 837q54 -25 93 -25q119 0 193 396q102 540 512 540q166 0 167 -162q-42 4 -64 4q-184 0 -233 -196l-100 -396q-99 -236 -368 -304q300 -86 300 -285q0 -83 -44.5 -242.5t-44.5 -242.5q0 -94 100 -94q63 0 154 44q-18 -215 -302 -215q-306 0 -306 253q0 90 62 266.5
t62 264.5q0 75 -98 141t-98 138q0 39 15 115z" />
    <glyph glyph-name="bar" unicode="|" horiz-adv-x="599" 
d="M396 -341q-253 14 -253 135q0 41 31 197l263 1325q56 282 56 358q0 34 -10 74q255 -40 255 -157q0 -48 -48 -290l-257 -1294q-44 -222 -44 -280q0 -24 7 -68z" />
    <glyph glyph-name="braceright" unicode="}" horiz-adv-x="853" 
d="M984 856l1 -31v-17q0 -116 -53 -147q-62 -25 -123 -51q-80 -53 -113 -221l-52 -262q-93 -468 -500 -468q-167 0 -167 161q42 -4 64 -4q154 0 212 140l78 314q91 367 399 443q-288 76 -288 284q0 83 44.5 242.5t44.5 242.5q0 94 -100 94q-64 0 -155 -44q22 216 302 216
q307 0 307 -254q0 -92 -61.5 -266t-61.5 -266q0 -116 154 -116q28 0 68 10z" />
    <glyph glyph-name="asciitilde" unicode="~" horiz-adv-x="1352" 
d="M1213 887q50 21 89 21q88 0 88 -87q0 -153 -96 -260q-100 -111 -251 -111q-99 0 -289 106.5t-223 106.5q-122 0 -122 -150q0 -17 2 -34q-50 -21 -90 -21q-87 0 -87 87q0 153 96 260q99 111 251 111q99 0 288.5 -106.5t223.5 -106.5q122 0 122 152q0 16 -2 32z" />
    <glyph glyph-name="nobreakspace" unicode="&#xa0;" horiz-adv-x="683" 
 />
    <glyph glyph-name="exclamdown" unicode="&#xa1;" horiz-adv-x="671" 
d="M307 890q80 37 158 37q132 0 132 -96q0 -59 -20 -153q-98 -460 -98 -812q0 -68 18 -155q-123 -52 -220 -52q-160 0 -160 133q0 69 67 328q145 560 145 695q0 31 -22 75zM704 1100q-120 -33 -198 -33q-165 0 -165 123q0 42 22 155q124 48 225 48q120 0 120 -76
q0 -24 -10 -70.5t-10 -70.5q0 -26 16 -76z" />
    <glyph glyph-name="cent" unicode="&#xa2;" horiz-adv-x="1195" 
d="M1182 1232q-57 122 -153 130l-198 -997q158 22 313 134q15 -57 15 -90q0 -181 -370 -252q-33 -160 -33 -225q0 -25 3 -49q-24 -3 -34 -3q-145 0 -145 98q0 31 15 83q18 63 21 83q-420 8 -420 416q0 342 183 620q197 300 517 370q19 91 19 155q0 21 -2 39q35 4 54 4
q129 0 129 -57v1q-6 -18 -27 -129q279 -16 279 -128q0 -103 -166 -203zM666 394l193 970q-309 -143 -309 -692q0 -202 116 -278z" />
    <glyph glyph-name="sterling" unicode="&#xa3;" 
d="M197 193q166 62 253 268q43 101 99 370h-31q-96 0 -198 -38q31 209 266 209l20 82q162 664 727 664q258 0 258 -129q0 -79 -133 -208q-42 154 -207 154q-158 0 -241 -217q-29 -75 -83 -346h43q155 0 281 33l1 -30v-10q0 -166 -244 -166q-21 0 -62 1t-62 1
q-102 -389 -398 -606q258 33 445 33q267 0 267 -159q0 -58 -37 -158q-152 59 -439 59q-84 0 -248.5 -20.5t-244.5 -20.5t-80 62q0 39 48 172z" />
    <glyph glyph-name="currency" unicode="&#xa4;" 
d="M540 461q-162 -109 -306 -316q-76 88 -76 154q0 128 284 309q-27 71 -27 143q0 197 138 364q-16 17 -103 134q-46 61 -134 103q118 113 201 113q67 0 197 -208q107 76 225 76q129 0 208 -89q217 201 299 201q74 0 136 -146q-119 -32 -335 -204q27 -64 27 -138
q0 -197 -147 -377q169 -203 270 -243q-141 -100 -214 -100t-220 212q-112 -75 -218 -75t-205 87zM799 582q113 0 186 126q63 108 63 229q0 188 -150 188q-118 0 -191 -123q-63 -105 -63 -231q0 -189 155 -189z" />
    <glyph glyph-name="yen" unicode="&#xa5;" 
d="M620 809h-35q-202 0 -296 -33q16 181 178 181q24 0 72 -2t72 -2q-78 465 -271 610q141 157 265 157q245 0 300 -680q401 680 594 680q100 0 134 -118q-214 -85 -616 -649h30q211 0 294 22q-59 -127 -163 -155q-41 -11 -238 -11l-53 -267h45q171 0 306 36
q-24 -188 -191 -188q-31 0 -94 4.5t-94 4.5q-32 -171 -32 -256q0 -50 22 -92q-152 -63 -248 -63q-129 0 -129 95q0 80 67 316h-63q-179 0 -276 -38q72 186 196 186q28 0 85 -2.5t86 -2.5z" />
    <glyph glyph-name="brokenbar" unicode="&#xa6;" horiz-adv-x="599" 
d="M624 801q-254 13 -254 135t63 370.5t63 371.5q0 26 -8 70q254 -23 254 -142q0 -117 -62.5 -367t-62.5 -370q0 -24 7 -68zM397 -341q-254 13 -254 135q0 120 62.5 369.5t62.5 372.5q0 32 -7 69q254 -23 254 -142q0 -115 -62.5 -366t-62.5 -370q0 -24 7 -68z" />
    <glyph glyph-name="section" unicode="&#xa7;" horiz-adv-x="1281" 
d="M265 45q111 -219 303 -219q240 0 240 242q0 101 -150 206q-116 68 -232 135q-134 99 -134 247q0 251 253 423q-74 95 -74 186q0 229 183 363q164 120 401 120q323 0 323 -149q0 -77 -119 -189q-81 173 -278 173q-223 0 -223 -226q0 -93 145 -195q110 -66 220 -131
q128 -101 128 -253q0 -240 -227 -416q79 -97 79 -201q0 -234 -191 -375q-172 -127 -414 -127q-371 0 -371 177q0 90 138 209zM900 458q96 118 96 216q0 92 -129 185q-102 60 -204 121q-101 -98 -101 -222t199 -223q108 -53 139 -77z" />
    <glyph glyph-name="dieresis" unicode="&#xa8;" horiz-adv-x="1024" 
d="M439 1846q111 31 186 31q155 0 155 -119q0 -44 -26 -177q-118 -45 -208 -45q-114 0 -114 87q0 25 10 74t10 74q0 36 -13 75zM952 1846q111 31 187 31q154 0 154 -119q0 -44 -26 -177q-118 -45 -208 -45q-114 0 -114 87q0 25 10 74.5t10 74.5q0 35 -13 74z" />
    <glyph glyph-name="copyright" unicode="&#xa9;" horiz-adv-x="1687" 
d="M1813 1087q0 -478 -224 -785q-252 -344 -713 -344q-658 0 -658 692q0 458 229 762q254 336 697 336q669 0 669 -661zM1678 1077q0 547 -551 547q-376 0 -587 -300q-186 -265 -186 -658q0 -584 531 -584q390 0 605 313q188 273 188 682zM1368 1152q-63 114 -187 114
q-168 0 -268 -249q-77 -193 -77 -392q0 -176 172 -176q132 0 320 167q51 -45 51 -81q0 -96 -173 -179q-150 -73 -259 -73q-355 0 -355 316q0 298 172 544q192 274 478 274q225 0 225 -112q0 -56 -99 -153z" />
    <glyph glyph-name="ordfeminine" unicode="&#xaa;" horiz-adv-x="1015" 
d="M850 1296q-215 -324 -381 -324q-196 0 -196 229q0 201 146 371q152 176 350 176q77 0 171 -48q37 42 100 42q79 0 171 -49q-104 -186 -104 -441q0 -102 48 -222q-97 -58 -162 -58q-160 0 -160 169q0 46 17 155zM898 1541q-88 54 -153 54q-95 0 -157 -123
q-51 -102 -51 -208q0 -84 49 -84q73 0 183 146q87 115 129 215z" />
    <glyph glyph-name="guillemotleft" unicode="&#xab;" horiz-adv-x="1288" 
d="M204 683q320 153 542 502q124 -66 124 -120q0 -159 -359 -453q127 -264 272 -287q-76 -92 -192 -92q-199 0 -387 450zM740 683q356 158 642 502q101 -63 101 -102q0 -151 -450 -471q76 -268 215 -287q-97 -92 -211 -92q-195 0 -297 450z" />
    <glyph glyph-name="logicalnot" unicode="&#xac;" horiz-adv-x="1195" 
d="M340 1041q111 -50 358 -52q254 -3 314 -15q196 -40 196 -193q0 -423 -294 -423q-23 0 -70 4q82 140 82 239q0 73 -95 107q-69 25 -194 29q-79 1 -159 2q-157 30 -157 179q0 45 19 123z" />
    <glyph glyph-name="minus" unicode="&#xad;" horiz-adv-x="1195" 
d="M234 492q35 202 123 264q78 55 295 55q440 0 579 56q-36 -216 -159 -274q-78 -37 -342 -41q-369 -5 -496 -60z" />
    <glyph glyph-name="minus" unicode="&#x2212;" horiz-adv-x="1195" 
d="M234 492q35 202 123 264q78 55 295 55q440 0 579 56q-36 -216 -159 -274q-78 -37 -342 -41q-369 -5 -496 -60z" />
    <glyph glyph-name="registered" unicode="&#xae;" horiz-adv-x="1636" 
d="M1786 1087q0 -477 -225 -784q-253 -345 -712 -345q-658 0 -658 692q0 458 229 762q253 336 696 336q670 0 670 -661zM1650 1077q0 547 -550 547q-375 0 -587 -301q-187 -265 -187 -657q0 -584 531 -584q393 0 607 312q186 271 186 683zM1094 846q79 -232 93 -261
q72 -144 193 -180q-62 -131 -185 -131q-154 0 -281 502q-28 -4 -84 -16q-61 -305 -61 -376q0 -30 14 -60q-103 -42 -166 -42q-84 0 -84 62q0 56 25 150q145 548 145 757q0 40 -19 75q173 91 421 91q301 0 301 -199q0 -217 -312 -372zM855 884q318 41 318 295q0 125 -131 125
q-44 0 -107 -17z" />
    <glyph glyph-name="macron" unicode="&#xaf;" horiz-adv-x="1024" 
d="M535 1748q80 -25 267 -25h133q172 0 255 24q-6 -211 -296 -211h-122q-269 0 -269 89q0 38 32 123z" />
    <glyph glyph-name="macron" unicode="&#x2c9;" horiz-adv-x="1024" 
d="M535 1748q80 -25 267 -25h133q172 0 255 24q-6 -211 -296 -211h-122q-269 0 -269 89q0 38 32 123z" />
    <glyph glyph-name="degree" unicode="&#xb0;" horiz-adv-x="798" 
d="M762 1748q248 -31 248 -194q0 -132 -132 -225q-120 -84 -258 -84q-234 0 -234 192q0 256 331 418q52 -37 52 -73q0 -12 -7 -34zM689 1635q-90 -88 -90 -158q0 -62 83 -62q160 0 160 130q0 76 -153 90z" />
    <glyph glyph-name="plusminus" unicode="&#xb1;" horiz-adv-x="1195" 
d="M614 711h-38q-168 0 -305 -59q29 194 113 257q77 58 281 58q25 101 25 220q0 52 -14 110q77 26 140 26q155 0 155 -98q0 -58 -50 -258h12q191 0 338 57q-35 -192 -120 -255q-79 -58 -281 -58q-27 -108 -27 -228q0 -41 19 -89q-72 -26 -145 -26q-152 0 -152 94
q0 48 19 125zM132 -48q36 204 139 262q78 45 310 45h70l71 -1q270 -4 405 49q-15 -189 -118 -255q-82 -52 -288 -52h-297q-182 0 -292 -48z" />
    <glyph glyph-name="twosuperior" unicode="&#xb2;" horiz-adv-x="1010" 
d="M1011 707q-138 34 -281 34q-47 0 -141 -13.5t-141 -13.5q-95 0 -95 89q0 25 5 68q484 357 484 627q0 94 -92 94q-99 0 -237 -111q-29 53 -29 89q0 178 347 178q282 0 282 -203q0 -189 -449 -632q99 16 167 16q193 0 193 -127q0 -41 -13 -95z" />
    <glyph glyph-name="threesuperior" unicode="&#xb3;" horiz-adv-x="1010" 
d="M503 1190q38 132 146 132q35 0 82 -13q127 70 127 209q0 103 -97 103q-89 0 -190 -74q-20 38 -20 68q0 133 265 133q278 0 278 -207q0 -187 -227 -275q170 -72 170 -208q0 -339 -401 -339q-271 0 -271 116q0 33 42 91q85 -80 195 -80q189 0 189 217q0 72 -51 114
q-62 -23 -108 -23q-60 0 -129 36z" />
    <glyph glyph-name="acute" unicode="&#xb4;" horiz-adv-x="1024" 
d="M556 1540q68 74 207 220q116 118 262 118q136 0 246 -25q-79 -31 -203 -120q-275 -197 -415 -197q-22 0 -97 4z" />
    <glyph glyph-name="mu" unicode="&#xb5;" 
d="M298 1306q115 73 227 73q189 0 189 -180q0 -130 -38 -319l-85 -426q-13 -66 -13 -112q0 -55 33 -55q107 0 308 423q192 403 192 550q0 38 -17 91q95 28 196 28q172 0 172 -124q0 -68 -24 -162l-41 -160q-140 -546 -140 -797q0 -55 20 -103q-131 -47 -231 -47
q-152 0 -152 127q0 87 76 404q-238 -455 -471 -512q-37 -208 -37 -301q0 -40 17 -82q-124 -54 -224 -54q-154 0 -154 128q0 19 67 357l151 761q39 197 39 293q0 121 -60 199z" />
    <glyph glyph-name="mu" unicode="&#x3bc;" 
d="M298 1306q115 73 227 73q189 0 189 -180q0 -130 -38 -319l-85 -426q-13 -66 -13 -112q0 -55 33 -55q107 0 308 423q192 403 192 550q0 38 -17 91q95 28 196 28q172 0 172 -124q0 -68 -24 -162l-41 -160q-140 -546 -140 -797q0 -55 20 -103q-131 -47 -231 -47
q-152 0 -152 127q0 87 76 404q-238 -455 -471 -512q-37 -208 -37 -301q0 -40 17 -82q-124 -54 -224 -54q-154 0 -154 128q0 19 67 357l151 761q39 197 39 293q0 121 -60 199z" />
    <glyph glyph-name="paragraph" unicode="&#xb6;" horiz-adv-x="1316" 
d="M922 -346q-184 9 -184 154q0 58 31 214l132 663q-54 -3 -110 -3q-154 -726 -154 -904q0 -52 17 -116q-26 -4 -40 -4q-140 0 -140 130q0 69 42 280l126 633q-319 85 -319 363q0 495 515 620q16 79 16 128q0 46 -20 92q57 23 92 23q84 0 84 -99q0 -54 -16 -125q61 4 110 4
q10 37 10 102q0 39 -18 84q53 16 91 16q97 0 97 -64q0 -15 -29 -145q206 -22 206 -118q0 -64 -89 -141q-46 63 -152 78l-129 -645q120 24 217 83q4 -30 4 -50q0 -177 -256 -209l-125 -631q-31 -156 -31 -254q0 -83 22 -159zM802 1506q-233 -106 -233 -408q0 -122 114 -191z
M1070 1534l-37 1q-15 0 -74 -7l-131 -658q36 -2 108 -8z" />
    <glyph glyph-name="periodcentered" unicode="&#xb7;" horiz-adv-x="682" 
d="M311 828q120 33 198 33q163 0 163 -126q0 -56 -27 -188q-122 -48 -221 -48q-120 0 -120 92q0 26 10.5 78.5t10.5 78.5q0 40 -14 80z" />
    <glyph glyph-name="periodcentered" unicode="&#x2219;" horiz-adv-x="682" 
d="M311 828q120 33 198 33q163 0 163 -126q0 -56 -27 -188q-122 -48 -221 -48q-120 0 -120 92q0 26 10.5 78.5t10.5 78.5q0 40 -14 80z" />
    <glyph glyph-name="cedilla" unicode="&#xb8;" horiz-adv-x="1024" 
d="M431 -127l26 127h84l-10 -52q157 -19 157 -111q0 -178 -326 -178q-232 0 -232 58q0 22 26 69q63 -21 160 -21q174 0 174 64q0 39 -59 44z" />
    <glyph glyph-name="onesuperior" unicode="&#xb9;" horiz-adv-x="1010" 
d="M1011 688q-59 26 -235 28q-405 4 -405 92q0 33 28 116q61 -24 207 -29l127 641q-212 7 -212 106q0 43 26 103q80 -38 166 -38q125 0 281 35l-168 -847q229 0 229 -82q0 -36 -44 -125z" />
    <glyph glyph-name="ordmasculine" unicode="&#xba;" horiz-adv-x="1015" 
d="M679 964q-342 0 -342 290q0 208 170 354q162 140 373 140q337 0 337 -288q0 -205 -168 -353q-162 -143 -370 -143zM743 1107q208 0 208 307q0 191 -141 191q-207 0 -207 -306q0 -192 140 -192z" />
    <glyph glyph-name="guillemotright" unicode="&#xbb;" horiz-adv-x="1288" 
d="M825 712q-88 -139 -251 -292q-199 -187 -316 -187q-87 0 -150 129q193 60 380 305q-179 221 -179 332q0 110 167 179q122 -337 349 -466zM1361 712q-89 -139 -251 -292q-199 -187 -316 -187q-87 0 -151 129q193 59 381 305q-179 221 -179 332q0 109 167 179
q124 -338 349 -466z" />
    <glyph glyph-name="onequarter" unicode="&#xbc;" horiz-adv-x="2200" 
d="M934 688q-59 26 -235 28q-405 4 -405 92q0 33 28 116q61 -24 207 -29l127 641q-212 7 -212 106q0 43 26 103q80 -38 166 -38q125 0 281 35l-168 -847q229 0 229 -82q0 -36 -44 -125zM1984 325q-39 -199 -39 -237q0 -30 14 -74q-76 -33 -124 -33q-109 0 -109 72
q0 39 24 137l32 133q-216 -8 -431 -56l32 186q215 238 248 521q74 27 124 27q73 0 73 -52q0 -84 -218 -458q71 7 208 14q59 294 59 387q80 34 139 34q75 0 75 -67q0 -51 -30 -179l-40 -170q221 -9 221 -92q0 -40 -30 -120q-109 20 -228 27zM810 -41q-186 44 -186 149
q0 125 495 723q418 506 641 722q201 195 382 195q92 0 166 -28q-192 -105 -542.5 -456.5t-619.5 -709.5q-301 -398 -336 -595z" />
    <glyph glyph-name="onehalf" unicode="&#xbd;" horiz-adv-x="2200" 
d="M934 688q-59 26 -235 28q-405 4 -405 92q0 33 28 116q61 -24 207 -29l127 641q-212 7 -212 106q0 43 26 103q80 -38 166 -38q125 0 281 35l-168 -847q229 0 229 -82q0 -36 -44 -125zM2070 -35q-138 34 -281 34q-47 0 -141 -13.5t-141 -13.5q-95 0 -95 89q0 25 5 68
q484 357 484 627q0 94 -92 94q-99 0 -237 -111q-29 53 -29 89q0 178 347 178q282 0 282 -203q0 -189 -449 -632q99 16 167 16q193 0 193 -127q0 -41 -13 -95zM810 -41q-186 44 -186 149q0 125 495 723q418 506 641 722q201 195 382 195q92 0 166 -28
q-192 -105 -542.5 -456.5t-619.5 -709.5q-301 -398 -336 -595z" />
    <glyph glyph-name="threequarters" unicode="&#xbe;" horiz-adv-x="2200" 
d="M433 1190q38 132 146 132q35 0 82 -13q127 70 127 209q0 103 -97 103q-89 0 -190 -74q-20 38 -20 68q0 133 265 133q278 0 278 -207q0 -187 -227 -275q170 -72 170 -208q0 -339 -401 -339q-271 0 -271 116q0 33 42 91q85 -80 195 -80q189 0 189 217q0 72 -51 114
q-62 -23 -108 -23q-60 0 -129 36zM1984 325q-39 -199 -39 -237q0 -30 14 -74q-76 -33 -124 -33q-109 0 -109 72q0 39 24 137l32 133q-216 -8 -431 -56l32 186q215 238 248 521q74 27 124 27q73 0 73 -52q0 -84 -218 -458q71 7 208 14q59 294 59 387q80 34 139 34
q75 0 75 -67q0 -51 -30 -179l-40 -170q221 -9 221 -92q0 -40 -30 -120q-109 20 -228 27zM810 -41q-186 44 -186 149q0 125 495 723q418 506 641 722q201 195 382 195q92 0 166 -28q-192 -105 -542.5 -456.5t-619.5 -709.5q-301 -398 -336 -595z" />
    <glyph glyph-name="questiondown" unicode="&#xbf;" horiz-adv-x="1020" 
d="M626 926q103 55 187 55q135 0 135 -142q0 -132 -138 -262q-87 -75 -257 -230q-138 -134 -138 -293q0 -185 167 -185q158 0 294 142q58 -66 58 -121q0 -118 -188 -183q-138 -48 -285 -48q-389 0 -389 331q0 186 149 318q93 74 276 225q149 129 149 291q0 60 -20 102z
M1010 1114q-97 -28 -180 -28q-145 0 -145 106q0 47 24 161q105 40 197 40q109 0 109 -78q0 -24 -9 -71t-9 -71q0 -27 13 -59z" />
    <glyph glyph-name="Agrave" unicode="&#xc0;" 
d="M508 559q-36 -76 -105 -230q-65 -151 -65 -253q0 -22 3 -40q-146 -50 -237 -50q-99 0 -99 74q0 46 36 111q184 344 559 1046q71 128 247 465l156 42q89 24 159 24q123 0 123 -185q0 -57 -3 -172t-3 -172v-561q0 -416 126 -588q-149 -84 -274 -84q-171 0 -184 342l-9 231
h-430zM587 744h356l-2 147v112q0 64 5 200q4 108 4 168v32l-2 102q-177 -340 -361 -761zM937 2218q27 -92 148 -187l196 -154q-179 10 -397 67q-310 82 -310 195q0 79 363 79z" />
    <glyph glyph-name="Aacute" unicode="&#xc1;" 
d="M508 559q-36 -76 -105 -230q-65 -151 -65 -253q0 -22 3 -40q-146 -50 -237 -50q-99 0 -99 74q0 46 36 111q184 344 559 1046q71 128 247 465l156 42q89 24 159 24q123 0 123 -185q0 -57 -3 -172t-3 -172v-561q0 -416 126 -588q-149 -84 -274 -84q-171 0 -184 342l-9 231
h-430zM587 744h356l-2 147v112q0 64 5 200q4 108 4 168v32l-2 102q-177 -340 -361 -761zM907 1881q68 74 207 220q116 118 262 118q136 0 246 -25q-79 -31 -203 -120q-275 -197 -415 -197q-22 0 -97 4z" />
    <glyph glyph-name="Acircumflex" unicode="&#xc2;" 
d="M508 559q-36 -76 -105 -230q-65 -151 -65 -253q0 -22 3 -40q-146 -50 -237 -50q-99 0 -99 74q0 46 36 111q184 344 559 1046q71 128 247 465l156 42q89 24 159 24q123 0 123 -185q0 -57 -3 -172t-3 -172v-561q0 -416 126 -588q-149 -84 -274 -84q-171 0 -184 342l-9 231
h-430zM587 744h356l-2 147v112q0 64 5 200q4 108 4 168v32l-2 102q-177 -340 -361 -761zM1094 2035q-202 -158 -315 -158q-39 0 -140 20q51 33 171 135q220 187 370 187q45 0 97 -11q43 -148 182 -308q-98 -23 -141 -23q-91 0 -224 158z" />
    <glyph glyph-name="Atilde" unicode="&#xc3;" 
d="M508 559q-36 -76 -105 -230q-65 -151 -65 -253q0 -22 3 -40q-146 -50 -237 -50q-99 0 -99 74q0 46 36 111q184 344 559 1046q71 128 247 465l156 42q89 24 159 24q123 0 123 -185q0 -57 -3 -172t-3 -172v-561q0 -416 126 -588q-149 -84 -274 -84q-171 0 -184 342l-9 231
h-430zM587 744h356l-2 147v112q0 64 5 200q4 108 4 168v32l-2 102q-177 -340 -361 -761zM749 1880q-22 -3 -36 -3q-81 0 -81 106q0 111 73 201q78 96 186 96q77 0 256 -109.5t224 -109.5q105 0 105 193q0 11 -1 23q25 3 35 3q81 0 81 -106q0 -111 -73 -201q-77 -96 -185 -96
q-78 0 -256.5 109.5t-223.5 109.5q-106 0 -106 -186q0 -17 2 -30z" />
    <glyph glyph-name="Adieresis" unicode="&#xc4;" 
d="M508 559q-36 -76 -105 -230q-65 -151 -65 -253q0 -22 3 -40q-146 -50 -237 -50q-99 0 -99 74q0 46 36 111q184 344 559 1046q71 128 247 465l156 42q89 24 159 24q123 0 123 -185q0 -57 -3 -172t-3 -172v-561q0 -416 126 -588q-149 -84 -274 -84q-171 0 -184 342l-9 231
h-430zM587 744h356l-2 147v112q0 64 5 200q4 108 4 168v32l-2 102q-177 -340 -361 -761zM699 2187q111 31 186 31q155 0 155 -119q0 -44 -26 -177q-118 -45 -208 -45q-114 0 -114 87q0 25 10 74t10 74q0 36 -13 75zM1212 2187q111 31 187 31q154 0 154 -119q0 -44 -26 -177
q-118 -45 -208 -45q-114 0 -114 87q0 25 10 74.5t10 74.5q0 35 -13 74z" />
    <glyph glyph-name="Aring" unicode="&#xc5;" 
d="M1284 1625q1 -23 1 -52q0 -48 -2 -108q-4 -121 -4 -159v-647q0 -417 126 -589q-149 -84 -274 -84q-171 0 -184 342l-9 231h-430q-36 -76 -105 -230q-65 -151 -65 -253q0 -22 3 -40q-146 -50 -237 -50q-99 0 -99 74q0 55 265 529q73 141 330 628q66 117 231 425
q-35 59 -35 119q0 339 392 458q22 -36 22 -68q0 -11 -3 -22q198 -85 198 -254q0 -126 -121 -250zM1140 2031q-157 -74 -157 -231q0 -110 104 -110q169 0 169 186q0 112 -116 155zM587 744h356l-2 147v112q0 64 5 200q4 108 4 168v32l-2 102q-177 -340 -361 -761z" />
    <glyph glyph-name="AE" unicode="&#xc6;" horiz-adv-x="1877" 
d="M1417 1707h360q168 0 361 38q-56 -261 -295 -261q-55 0 -174 5q-96 4 -151 4h-23l-100 -501h85q203 0 382 57q-21 -277 -351 -277q-27 0 -80 1t-80 1q-34 -169 -90 -511q124 -24 229 -24q220 0 401 67l2 -42v-10q0 -265 -536 -265q-42 0 -124.5 5.5t-124.5 5.5
q-19 0 -57 -8.5t-57 -8.5q-134 0 -134 93q0 54 49 257l64 268h-411q-258 -403 -278 -575q-109 -38 -200 -38q-112 0 -112 76q0 88 509 791q460 635 637 837q141 29 217 29q60 0 82 -14zM1012 798l132 665q-97 -134 -466 -665h334z" />
    <glyph glyph-name="Ccedilla" unicode="&#xc7;" horiz-adv-x="1316" 
d="M1281 406q21 -80 21 -101q0 -143 -267 -254q-223 -93 -393 -93q-455 0 -455 511q0 286 112 573q121 309 328 495q235 211 531 211q366 0 366 -182q0 -102 -187 -253q-83 262 -276 262q-241 0 -374 -400q-98 -294 -98 -598q0 -374 242 -374q189 0 450 203zM625 -127
l26 127h84l-10 -52q157 -19 157 -111q0 -178 -326 -178q-232 0 -232 58q0 22 26 69q63 -21 160 -21q174 0 174 64q0 39 -59 44z" />
    <glyph glyph-name="Egrave" unicode="&#xc8;" horiz-adv-x="1195" 
d="M415 1603q185 106 458 106q35 0 105 -1t105 -1q179 0 372 38q-56 -261 -295 -261q-55 0 -174 5q-96 4 -151 4h-23l-100 -501h85q201 0 383 57q-23 -277 -349 -277q-27 0 -81 1t-81 1q-67 -338 -91 -511q124 -24 230 -24q217 0 401 67v-21q0 -296 -534 -296
q-42 0 -124.5 5.5t-124.5 5.5q-19 0 -57.5 -8.5t-57.5 -8.5q-134 0 -134 93q0 73 29 182l48 180q191 716 191 1049q0 58 -30 116zM772 2218q27 -92 148 -187l196 -154q-179 10 -397 67q-310 82 -310 195q0 79 363 79z" />
    <glyph glyph-name="Eacute" unicode="&#xc9;" horiz-adv-x="1195" 
d="M415 1603q185 106 458 106q35 0 105 -1t105 -1q179 0 372 38q-56 -261 -295 -261q-55 0 -174 5q-96 4 -151 4h-23l-100 -501h85q201 0 383 57q-23 -277 -349 -277q-27 0 -81 1t-81 1q-67 -338 -91 -511q124 -24 230 -24q217 0 401 67v-21q0 -296 -534 -296
q-42 0 -124.5 5.5t-124.5 5.5q-19 0 -57.5 -8.5t-57.5 -8.5q-134 0 -134 93q0 73 29 182l48 180q191 716 191 1049q0 58 -30 116zM797 1881q68 74 207 220q116 118 262 118q136 0 246 -25q-79 -31 -203 -120q-275 -197 -415 -197q-22 0 -97 4z" />
    <glyph glyph-name="Ecircumflex" unicode="&#xca;" horiz-adv-x="1195" 
d="M415 1603q185 106 458 106q35 0 105 -1t105 -1q179 0 372 38q-56 -261 -295 -261q-55 0 -174 5q-96 4 -151 4h-23l-100 -501h85q201 0 383 57q-23 -277 -349 -277q-27 0 -81 1t-81 1q-67 -338 -91 -511q124 -24 230 -24q217 0 401 67v-21q0 -296 -534 -296
q-42 0 -124.5 5.5t-124.5 5.5q-19 0 -57.5 -8.5t-57.5 -8.5q-134 0 -134 93q0 73 29 182l48 180q191 716 191 1049q0 58 -30 116zM1025 2035q-202 -158 -315 -158q-39 0 -140 20q51 33 171 135q220 187 370 187q45 0 97 -11q43 -148 182 -308q-98 -23 -141 -23
q-91 0 -224 158z" />
    <glyph glyph-name="Edieresis" unicode="&#xcb;" horiz-adv-x="1195" 
d="M415 1603q185 106 458 106q35 0 105 -1t105 -1q179 0 372 38q-56 -261 -295 -261q-55 0 -174 5q-96 4 -151 4h-23l-100 -501h85q201 0 383 57q-23 -277 -349 -277q-27 0 -81 1t-81 1q-67 -338 -91 -511q124 -24 230 -24q217 0 401 67v-21q0 -296 -534 -296
q-42 0 -124.5 5.5t-124.5 5.5q-19 0 -57.5 -8.5t-57.5 -8.5q-134 0 -134 93q0 73 29 182l48 180q191 716 191 1049q0 58 -30 116zM634 2187q111 31 186 31q155 0 155 -119q0 -44 -26 -177q-118 -45 -208 -45q-114 0 -114 87q0 25 10 74t10 74q0 36 -13 75zM1147 2187
q111 31 187 31q154 0 154 -119q0 -44 -26 -177q-118 -45 -208 -45q-114 0 -114 87q0 25 10 74.5t10 74.5q0 35 -13 74z" />
    <glyph glyph-name="Igrave" unicode="&#xcc;" horiz-adv-x="943" 
d="M598 1494q-93 -5 -177 -37l-1 45q-5 205 245 205h229q1 0 146 8q64 4 124 24l1 -27q8 -206 -223 -217l-254 -1279q102 0 177 29q3 -36 3 -53q0 -187 -192 -189l-294 -3q-158 -2 -264 -25q0 239 225 239zM689 2218q27 -92 148 -187l196 -154q-179 10 -397 67
q-310 82 -310 195q0 79 363 79z" />
    <glyph glyph-name="Iacute" unicode="&#xcd;" horiz-adv-x="943" 
d="M598 1494q-93 -5 -177 -37l-1 45q-5 205 245 205h229q1 0 146 8q64 4 124 24l1 -27q8 -206 -223 -217l-254 -1279q102 0 177 29q3 -36 3 -53q0 -187 -192 -189l-294 -3q-158 -2 -264 -25q0 239 225 239zM710 1881q68 74 207 220q116 118 262 118q136 0 246 -25
q-79 -31 -203 -120q-275 -197 -415 -197q-22 0 -97 4z" />
    <glyph glyph-name="Icircumflex" unicode="&#xce;" horiz-adv-x="943" 
d="M598 1494q-93 -5 -177 -37l-1 45q-5 205 245 205h229q1 0 146 8q64 4 124 24l1 -27q8 -206 -223 -217l-254 -1279q102 0 177 29q3 -36 3 -53q0 -187 -192 -189l-294 -3q-158 -2 -264 -25q0 239 225 239zM878 2035q-202 -158 -315 -158q-39 0 -140 20q51 33 171 135
q220 187 370 187q45 0 97 -11q43 -148 182 -308q-98 -23 -141 -23q-91 0 -224 158z" />
    <glyph glyph-name="Idieresis" unicode="&#xcf;" horiz-adv-x="943" 
d="M598 1494q-93 -5 -177 -37l-1 45q-5 205 245 205h229q1 0 146 8q64 4 124 24l1 -27q8 -206 -223 -217l-254 -1279q102 0 177 29q3 -36 3 -53q0 -187 -192 -189l-294 -3q-158 -2 -264 -25q0 239 225 239zM460 2187q111 31 186 31q155 0 155 -119q0 -44 -26 -177
q-118 -45 -208 -45q-114 0 -114 87q0 25 10 74t10 74q0 36 -13 75zM973 2187q111 31 187 31q154 0 154 -119q0 -44 -26 -177q-118 -45 -208 -45q-114 0 -114 87q0 25 10 74.5t10 74.5q0 35 -13 74z" />
    <glyph glyph-name="Eth" unicode="&#xd0;" 
d="M415 1605q303 143 617 143q486 0 486 -488q0 -263 -125 -555q-131 -309 -341 -501q-239 -218 -512 -218q-38 0 -114 13q-99 -17 -114 -17q-135 0 -135 93q0 41 16 107q52 213 132 593h-25q-95 0 -158 -20q33 193 207 193h10q86 412 86 539q0 61 -30 118zM815 1505
l-111 -557h17q75 0 245 31q-17 -133 -91 -174q-54 -30 -205 -30l-106 -533q95 -30 157 -30q206 0 333 398q97 302 97 563q0 353 -202 353q-41 0 -134 -21z" />
    <glyph glyph-name="Ntilde" unicode="&#xd1;" horiz-adv-x="1536" 
d="M533 56q-150 -70 -253 -70q-142 0 -142 129q0 58 145 618l125 483q59 228 59 272q0 48 -42 96q176 137 306 137q112 0 181 -316q154 -705 292 -1053l119 548q79 380 79 567q0 94 -53 180q129 73 240 73q149 0 149 -117q0 -78 -35 -202l-58 -205q-29 -101 -167 -653
q-5 -21 -47 -184q-29 -113 -29 -188q0 -25 12 -71q-161 -114 -274 -114q-114 0 -235 272q-88 197 -179 536q-48 187 -95 375q-175 -729 -175 -891q0 -129 77 -222zM822 1880q-22 -3 -36 -3q-81 0 -81 106q0 111 73 201q78 96 186 96q77 0 256 -109.5t224 -109.5
q105 0 105 193q0 11 -1 23q25 3 35 3q81 0 81 -106q0 -111 -73 -201q-77 -96 -185 -96q-78 0 -256.5 109.5t-223.5 109.5q-106 0 -106 -186q0 -17 2 -30z" />
    <glyph glyph-name="Ograve" unicode="&#xd2;" 
d="M577 -41q-395 0 -395 523q0 252 116 541q123 309 320 503q226 222 488 222q417 0 417 -521q0 -262 -117 -551q-124 -308 -326 -499q-231 -218 -503 -218zM715 146q196 0 325 478q98 365 98 644q0 293 -148 293q-195 0 -324 -478q-99 -366 -99 -644q0 -293 148 -293z
M1001 2218q27 -92 148 -187l196 -154q-179 10 -397 67q-310 82 -310 195q0 79 363 79z" />
    <glyph glyph-name="Oacute" unicode="&#xd3;" 
d="M577 -41q-395 0 -395 523q0 252 116 541q123 309 320 503q226 222 488 222q417 0 417 -521q0 -262 -117 -551q-124 -308 -326 -499q-231 -218 -503 -218zM715 146q196 0 325 478q98 365 98 644q0 293 -148 293q-195 0 -324 -478q-99 -366 -99 -644q0 -293 148 -293z
M1045 1881q68 74 207 220q116 118 262 118q136 0 246 -25q-79 -31 -203 -120q-275 -197 -415 -197q-22 0 -97 4z" />
    <glyph glyph-name="Ocircumflex" unicode="&#xd4;" 
d="M577 -41q-395 0 -395 523q0 252 116 541q123 309 320 503q226 222 488 222q417 0 417 -521q0 -262 -117 -551q-124 -308 -326 -499q-231 -218 -503 -218zM715 146q196 0 325 478q98 365 98 644q0 293 -148 293q-195 0 -324 -478q-99 -366 -99 -644q0 -293 148 -293z
M1181 2035q-202 -158 -315 -158q-39 0 -140 20q51 33 171 135q220 187 370 187q45 0 97 -11q43 -148 182 -308q-98 -23 -141 -23q-91 0 -224 158z" />
    <glyph glyph-name="Otilde" unicode="&#xd5;" 
d="M577 -41q-395 0 -395 523q0 252 116 541q123 309 320 503q226 222 488 222q417 0 417 -521q0 -262 -117 -551q-124 -308 -326 -499q-231 -218 -503 -218zM715 146q196 0 325 478q98 365 98 644q0 293 -148 293q-195 0 -324 -478q-99 -366 -99 -644q0 -293 148 -293z
M778 1880q-22 -3 -36 -3q-81 0 -81 106q0 111 73 201q78 96 186 96q77 0 256 -109.5t224 -109.5q105 0 105 193q0 11 -1 23q25 3 35 3q81 0 81 -106q0 -111 -73 -201q-77 -96 -185 -96q-78 0 -256.5 109.5t-223.5 109.5q-106 0 -106 -186q0 -17 2 -30z" />
    <glyph glyph-name="Odieresis" unicode="&#xd6;" 
d="M577 -41q-395 0 -395 523q0 252 116 541q123 309 320 503q226 222 488 222q417 0 417 -521q0 -262 -117 -551q-124 -308 -326 -499q-231 -218 -503 -218zM715 146q196 0 325 478q98 365 98 644q0 293 -148 293q-195 0 -324 -478q-99 -366 -99 -644q0 -293 148 -293z
M794 2187q111 31 186 31q155 0 155 -119q0 -44 -26 -177q-118 -45 -208 -45q-114 0 -114 87q0 25 10 74t10 74q0 36 -13 75zM1307 2187q111 31 187 31q154 0 154 -119q0 -44 -26 -177q-118 -45 -208 -45q-114 0 -114 87q0 25 10 74.5t10 74.5q0 35 -13 74z" />
    <glyph glyph-name="multiply" unicode="&#xd7;" 
d="M760 506q-274 -183 -377 -368q-156 107 -156 195q0 102 167 222l236 170q-60 80 -119 161q-67 73 -168 100q103 181 201 181q94 0 176 -112q41 -61 122 -183q280 208 347 326q151 -103 151 -199q0 -105 -362 -348q178 -305 299 -374q-122 -109 -219 -109q-91 0 -176 131
q-6 10 -122 207z" />
    <glyph glyph-name="Oslash" unicode="&#xd8;" 
d="M1364 1666q109 145 223 145q82 0 181 -90q-140 -66 -292 -233q46 -142 46 -262q0 -250 -115 -540q-123 -310 -320 -504q-225 -223 -485 -223q-121 0 -214 46q-50 -110 -50 -195q0 -29 4 -61q-221 12 -221 130q0 84 137 270q-76 145 -76 344q0 245 117 533
q124 307 320 500q224 222 479 222q165 0 266 -82zM1127 1394q-26 167 -138 167q-299 0 -410 -941q81 123 548 774zM575 326q32 -180 140 -180q309 0 415 975q-402 -522 -555 -795z" />
    <glyph glyph-name="Ugrave" unicode="&#xd9;" 
d="M353 1633q150 88 302 88q126 0 126 -91q0 -5 -54 -275l-143 -714q-37 -185 -37 -275q0 -169 129 -169q135 0 289 209l174 874q38 191 38 312q0 31 -7 81q118 47 231 47q159 0 159 -108q0 -57 -25 -148q-204 -744 -204 -1072q0 -139 91 -245q-192 -161 -325 -161
q-132 0 -153 186q-160 -213 -391 -213q-351 0 -351 399q0 193 94.5 572.5t94.5 573.5q0 72 -38 129zM872 2218q27 -92 148 -187l196 -154q-179 10 -397 67q-310 82 -310 195q0 79 363 79z" />
    <glyph glyph-name="Uacute" unicode="&#xda;" 
d="M353 1633q150 88 302 88q126 0 126 -91q0 -5 -54 -275l-143 -714q-37 -185 -37 -275q0 -169 129 -169q135 0 289 209l174 874q38 191 38 312q0 31 -7 81q118 47 231 47q159 0 159 -108q0 -57 -25 -148q-204 -744 -204 -1072q0 -139 91 -245q-192 -161 -325 -161
q-132 0 -153 186q-160 -213 -391 -213q-351 0 -351 399q0 193 94.5 572.5t94.5 573.5q0 72 -38 129zM888 1881q68 74 207 220q116 118 262 118q136 0 246 -25q-79 -31 -203 -120q-275 -197 -415 -197q-22 0 -97 4z" />
    <glyph glyph-name="Ucircumflex" unicode="&#xdb;" 
d="M353 1633q150 88 302 88q126 0 126 -91q0 -5 -54 -275l-143 -714q-37 -185 -37 -275q0 -169 129 -169q135 0 289 209l174 874q38 191 38 312q0 31 -7 81q118 47 231 47q159 0 159 -108q0 -57 -25 -148q-204 -744 -204 -1072q0 -139 91 -245q-192 -161 -325 -161
q-132 0 -153 186q-160 -213 -391 -213q-351 0 -351 399q0 193 94.5 572.5t94.5 573.5q0 72 -38 129zM1061 2035q-202 -158 -315 -158q-39 0 -140 20q51 33 171 135q220 187 370 187q45 0 97 -11q43 -148 182 -308q-98 -23 -141 -23q-91 0 -224 158z" />
    <glyph glyph-name="Udieresis" unicode="&#xdc;" 
d="M353 1633q150 88 302 88q126 0 126 -91q0 -5 -54 -275l-143 -714q-37 -185 -37 -275q0 -169 129 -169q135 0 289 209l174 874q38 191 38 312q0 31 -7 81q118 47 231 47q159 0 159 -108q0 -57 -25 -148q-204 -744 -204 -1072q0 -139 91 -245q-192 -161 -325 -161
q-132 0 -153 186q-160 -213 -391 -213q-351 0 -351 399q0 193 94.5 572.5t94.5 573.5q0 72 -38 129zM652 2187q111 31 186 31q155 0 155 -119q0 -44 -26 -177q-118 -45 -208 -45q-114 0 -114 87q0 25 10 74t10 74q0 36 -13 75zM1165 2187q111 31 187 31q154 0 154 -119
q0 -44 -26 -177q-118 -45 -208 -45q-114 0 -114 87q0 25 10 74.5t10 74.5q0 35 -13 74z" />
    <glyph glyph-name="Yacute" unicode="&#xdd;" horiz-adv-x="1349" 
d="M598 780q-94 669 -322 790q156 172 312 172q117 0 187 -139q52 -104 81 -291l30 -252q388 688 647 688q122 0 185 -151q-176 -51 -384 -280q-120 -132 -296 -385q-199 -287 -199 -785q0 -53 21 -96q-154 -65 -267 -65q-139 0 -139 96q0 66 26 166q66 255 118 532z
M799 1881q68 74 207 220q116 118 262 118q136 0 246 -25q-79 -31 -203 -120q-275 -197 -415 -197q-22 0 -97 4z" />
    <glyph glyph-name="Thorn" unicode="&#xde;" horiz-adv-x="1324" 
d="M587 51q-149 -65 -267 -65q-139 0 -139 95q0 64 27 167q237 908 237 1235q0 60 -35 171q116 67 282 67q148 0 148 -89q0 -46 -40 -199q133 8 196 8q467 0 467 -363q0 -307 -294 -499q-237 -154 -577 -191q-26 -139 -26 -225q0 -67 21 -112zM628 567q465 38 465 469
q0 225 -214 225q-46 0 -116 -15z" />
    <glyph glyph-name="germandbls" unicode="&#xdf;" 
d="M738 291q38 -141 166 -141q141 0 141 153q0 90 -79 177q-50 51 -148 155q-79 89 -79 186q0 100 136.5 317.5t136.5 328.5q0 98 -64 98q-139 0 -232 -471l-105 -530q-67 -338 -67 -447q0 -36 20 -80q-131 -51 -249 -51q-137 0 -137 108q0 83 30 207l50 206q30 172 99 515
q166 726 669 726q317 0 317 -261q0 -106 -90 -198q-256 -219 -256 -289t100 -169q284 -282 284 -438q0 -184 -149 -306q-140 -114 -329 -114q-283 0 -283 140q0 93 118 178z" />
    <glyph glyph-name="agrave" unicode="&#xe0;" 
d="M969 519q-300 -546 -554 -546q-263 0 -263 370q0 341 186 669q217 381 533 381q146 0 258 -74q55 61 151 61q116 0 227 -53q-76 -154 -142 -496q-61 -322 -61 -518q0 -143 51 -251q-88 -76 -202 -76q-211 0 -211 233q0 120 27 300zM1071 1027q-116 156 -230 156
q-143 0 -241 -320q-78 -253 -78 -443q0 -146 66 -146q70 0 263 334q142 244 220 419zM924 1877q27 -92 148 -187l196 -154q-179 10 -397 67q-310 82 -310 195q0 79 363 79z" />
    <glyph glyph-name="aacute" unicode="&#xe1;" 
d="M969 519q-300 -546 -554 -546q-263 0 -263 370q0 341 186 669q217 381 533 381q146 0 258 -74q55 61 151 61q116 0 227 -53q-76 -154 -142 -496q-61 -322 -61 -518q0 -143 51 -251q-88 -76 -202 -76q-211 0 -211 233q0 120 27 300zM1071 1027q-116 156 -230 156
q-143 0 -241 -320q-78 -253 -78 -443q0 -146 66 -146q70 0 263 334q142 244 220 419zM817 1540q68 74 207 220q116 118 262 118q136 0 246 -25q-79 -31 -203 -120q-275 -197 -415 -197q-22 0 -97 4z" />
    <glyph glyph-name="acircumflex" unicode="&#xe2;" 
d="M969 519q-300 -546 -554 -546q-263 0 -263 370q0 341 186 669q217 381 533 381q146 0 258 -74q55 61 151 61q116 0 227 -53q-76 -154 -142 -496q-61 -322 -61 -518q0 -143 51 -251q-88 -76 -202 -76q-211 0 -211 233q0 120 27 300zM1071 1027q-116 156 -230 156
q-143 0 -241 -320q-78 -253 -78 -443q0 -146 66 -146q70 0 263 334q142 244 220 419zM1081 1694q-202 -158 -315 -158q-39 0 -140 20q51 33 171 135q220 187 370 187q45 0 97 -11q43 -148 182 -308q-98 -23 -141 -23q-91 0 -224 158z" />
    <glyph glyph-name="atilde" unicode="&#xe3;" 
d="M969 519q-300 -546 -554 -546q-263 0 -263 370q0 341 186 669q217 381 533 381q146 0 258 -74q55 61 151 61q116 0 227 -53q-76 -154 -142 -496q-61 -322 -61 -518q0 -143 51 -251q-88 -76 -202 -76q-211 0 -211 233q0 120 27 300zM1071 1027q-116 156 -230 156
q-143 0 -241 -320q-78 -253 -78 -443q0 -146 66 -146q70 0 263 334q142 244 220 419zM682 1539q-22 -3 -36 -3q-81 0 -81 106q0 111 73 201q78 96 186 96q77 0 256 -109.5t224 -109.5q105 0 105 193q0 11 -1 23q25 3 35 3q81 0 81 -106q0 -111 -73 -201q-77 -96 -185 -96
q-78 0 -256.5 109.5t-223.5 109.5q-106 0 -106 -186q0 -17 2 -30z" />
    <glyph glyph-name="adieresis" unicode="&#xe4;" 
d="M969 519q-300 -546 -554 -546q-263 0 -263 370q0 341 186 669q217 381 533 381q146 0 258 -74q55 61 151 61q116 0 227 -53q-76 -154 -142 -496q-61 -322 -61 -518q0 -143 51 -251q-88 -76 -202 -76q-211 0 -211 233q0 120 27 300zM1071 1027q-116 156 -230 156
q-143 0 -241 -320q-78 -253 -78 -443q0 -146 66 -146q70 0 263 334q142 244 220 419zM613 1846q111 31 186 31q155 0 155 -119q0 -44 -26 -177q-118 -45 -208 -45q-114 0 -114 87q0 25 10 74t10 74q0 36 -13 75zM1126 1846q111 31 187 31q154 0 154 -119q0 -44 -26 -177
q-118 -45 -208 -45q-114 0 -114 87q0 25 10 74.5t10 74.5q0 35 -13 74z" />
    <glyph glyph-name="aring" unicode="&#xe5;" 
d="M969 519q-300 -546 -554 -546q-263 0 -263 370q0 341 186 669q217 381 533 381q146 0 258 -74q55 61 151 61q116 0 227 -53q-76 -154 -142 -496q-61 -322 -61 -518q0 -143 51 -251q-88 -76 -202 -76q-211 0 -211 233q0 120 27 300zM1071 1027q-116 156 -230 156
q-143 0 -241 -320q-78 -253 -78 -443q0 -146 66 -146q70 0 263 334q142 244 220 419zM1157 2129q197 -83 197 -253q0 -140 -105 -237t-246 -97q-257 0 -257 221q0 337 392 456q21 -38 21 -70q0 -10 -2 -20zM1090 2031q-157 -74 -157 -231q0 -110 104 -110q169 0 169 186
q0 112 -116 155z" />
    <glyph glyph-name="ae" unicode="&#xe6;" horiz-adv-x="1979" 
d="M942 470q-277 -497 -527 -497q-263 0 -263 370q0 340 187 669q217 381 532 381q146 0 258 -74q30 62 118 62q72 0 155 -38q-18 -39 -39 -94q203 144 427 144q291 0 291 -246q0 -281 -241 -441q-205 -136 -504 -144q-9 -80 -9 -134q0 -253 204 -253q187 0 437 195
q25 -56 25 -91q0 -146 -231 -236q-181 -71 -355 -71q-469 0 -469 417q0 38 4 81zM1355 735q394 7 394 337q0 139 -99 139q-190 0 -295 -476zM1071 1027q-116 156 -230 156q-143 0 -241 -320q-78 -253 -78 -443q0 -146 66 -146q70 0 263 334q142 244 220 419z" />
    <glyph glyph-name="ccedilla" unicode="&#xe7;" horiz-adv-x="1111" 
d="M1112 328q15 -56 15 -89q0 -131 -214 -208q-163 -58 -324 -58q-426 0 -426 414q0 390 224 685q244 321 622 321q307 0 307 -129q0 -107 -194 -227q-81 171 -211 171q-344 0 -344 -720q0 -296 190 -296q160 0 355 136zM550 -127l26 127h84l-10 -52q157 -19 157 -111
q0 -178 -326 -178q-232 0 -232 58q0 22 26 69q63 -21 160 -21q174 0 174 64q0 39 -59 44z" />
    <glyph glyph-name="egrave" unicode="&#xe8;" horiz-adv-x="1202" 
d="M559 562q-9 -80 -9 -134q0 -253 204 -253q189 0 436 195q25 -52 25 -92q0 -145 -231 -235q-181 -71 -354 -71q-470 0 -470 410q0 376 235 681q253 330 619 330q290 0 290 -246q0 -280 -242 -440q-205 -137 -503 -145zM578 735q394 7 394 336q0 140 -99 140
q-189 0 -295 -476zM888 1872q27 -92 148 -187l196 -154q-179 10 -397 67q-310 82 -310 195q0 79 363 79z" />
    <glyph glyph-name="eacute" unicode="&#xe9;" horiz-adv-x="1202" 
d="M559 562q-9 -80 -9 -134q0 -253 204 -253q189 0 436 195q25 -52 25 -92q0 -145 -231 -235q-181 -71 -354 -71q-470 0 -470 410q0 376 235 681q253 330 619 330q290 0 290 -246q0 -280 -242 -440q-205 -137 -503 -145zM578 735q394 7 394 336q0 140 -99 140
q-189 0 -295 -476zM795 1540q68 74 207 220q116 118 262 118q136 0 246 -25q-79 -31 -203 -120q-275 -197 -415 -197q-22 0 -97 4z" />
    <glyph glyph-name="ecircumflex" unicode="&#xea;" horiz-adv-x="1201" 
d="M559 562q-9 -80 -9 -134q0 -253 204 -253q189 0 436 195q25 -52 25 -92q0 -145 -231 -235q-181 -71 -354 -71q-470 0 -470 410q0 376 235 681q253 330 619 330q290 0 290 -246q0 -280 -242 -440q-205 -137 -503 -145zM578 735q394 7 394 336q0 140 -99 140
q-189 0 -295 -476zM968 1694q-202 -158 -315 -158q-39 0 -140 20q51 33 171 135q220 187 370 187q45 0 97 -11q43 -148 182 -308q-98 -23 -141 -23q-91 0 -224 158z" />
    <glyph glyph-name="edieresis" unicode="&#xeb;" horiz-adv-x="1202" 
d="M559 562q-9 -80 -9 -134q0 -253 204 -253q189 0 436 195q25 -52 25 -92q0 -145 -231 -235q-181 -71 -354 -71q-470 0 -470 410q0 376 235 681q253 330 619 330q290 0 290 -246q0 -280 -242 -440q-205 -137 -503 -145zM578 735q394 7 394 336q0 140 -99 140
q-189 0 -295 -476zM572 1846q111 31 186 31q155 0 155 -119q0 -44 -26 -177q-118 -45 -208 -45q-114 0 -114 87q0 25 10 74t10 74q0 36 -13 75zM1085 1846q111 31 187 31q154 0 154 -119q0 -44 -26 -177q-118 -45 -208 -45q-114 0 -114 87q0 25 10 74.5t10 74.5q0 35 -13 74
z" />
    <glyph glyph-name="igrave" unicode="&#xec;" horiz-adv-x="680" 
d="M363 1328q138 51 251 51q152 0 152 -116q0 -53 -19 -127q-166 -650 -166 -885q0 -114 60 -192q-116 -73 -225 -73q-196 0 -196 181q0 175 86 518t86 518q0 63 -29 125zM465 1877q27 -92 148 -187l196 -154q-179 10 -397 67q-310 82 -310 195q0 79 363 79z" />
    <glyph glyph-name="iacute" unicode="&#xed;" horiz-adv-x="680" 
d="M363 1328q138 51 251 51q152 0 152 -116q0 -53 -19 -127q-166 -650 -166 -885q0 -114 60 -192q-116 -73 -225 -73q-196 0 -196 181q0 175 86 518t86 518q0 63 -29 125zM401 1540q68 74 207 220q116 118 262 118q136 0 246 -25q-79 -31 -203 -120q-275 -197 -415 -197
q-22 0 -97 4z" />
    <glyph glyph-name="icircumflex" unicode="&#xee;" horiz-adv-x="680" 
d="M363 1328q138 51 251 51q152 0 152 -116q0 -53 -19 -127q-166 -650 -166 -885q0 -114 60 -192q-116 -73 -225 -73q-196 0 -196 181q0 175 86 518t86 518q0 63 -29 125zM650 1694q-202 -158 -315 -158q-39 0 -140 20q51 33 171 135q220 187 370 187q45 0 97 -11
q43 -148 182 -308q-98 -23 -141 -23q-91 0 -224 158z" />
    <glyph glyph-name="idieresis" unicode="&#xef;" horiz-adv-x="680" 
d="M363 1328q138 51 251 51q152 0 152 -116q0 -53 -19 -127q-166 -650 -166 -885q0 -114 60 -192q-116 -73 -225 -73q-196 0 -196 181q0 175 86 518t86 518q0 63 -29 125zM218 1846q111 31 186 31q155 0 155 -119q0 -44 -26 -177q-118 -45 -208 -45q-114 0 -114 87
q0 25 10 74t10 74q0 36 -13 75zM731 1846q111 31 187 31q154 0 154 -119q0 -44 -26 -177q-118 -45 -208 -45q-114 0 -114 87q0 25 10 74.5t10 74.5q0 35 -13 74z" />
    <glyph glyph-name="eth" unicode="&#xf0;" horiz-adv-x="1300" 
d="M955 1244q-71 100 -157 167q-185 -126 -243 -194q-64 72 -64 121q0 64 153 163q-36 12 -79 12q-96 0 -196 -31q48 266 276 266q118 0 277 -67q141 106 185 177q92 -52 92 -124q0 -54 -138 -151q323 -327 323 -758q0 -344 -217 -593q-226 -261 -565 -261q-444 0 -444 456
q0 310 221 560q229 258 536 258q20 0 40 -1zM708 175q140 0 223 223q63 171 63 342q0 302 -153 302q-146 0 -230 -227q-64 -173 -64 -350q0 -290 161 -290z" />
    <glyph glyph-name="ntilde" unicode="&#xf1;" 
d="M668 848q269 545 547 545q211 0 211 -214q0 -156 -73.5 -459.5t-73.5 -459.5q0 -123 60 -201q-115 -73 -227 -73q-188 0 -188 181q0 134 40 332q101 499 101 549q0 55 -34 55q-100 0 -306 -436q-198 -419 -198 -562q0 -38 17 -91q-102 -28 -197 -28q-172 0 -172 124
q0 62 25 162l40 160q141 564 141 796q0 55 -20 104q133 47 230 47q153 0 153 -127q0 -70 -76 -404zM608 1539q-22 -3 -36 -3q-81 0 -81 106q0 111 73 201q78 96 186 96q77 0 256 -109.5t224 -109.5q105 0 105 193q0 11 -1 23q25 3 35 3q81 0 81 -106q0 -111 -73 -201
q-77 -96 -185 -96q-78 0 -256.5 109.5t-223.5 109.5q-106 0 -106 -186q0 -17 2 -30z" />
    <glyph glyph-name="ograve" unicode="&#xf2;" horiz-adv-x="1300" 
d="M639 -27q-214 0 -340.5 132t-126.5 347q0 341 210 627q229 314 558 314q208 0 335 -136q124 -132 124 -342q0 -336 -208 -625q-228 -317 -552 -317zM708 175q157 0 248 314q67 231 67 443q0 258 -154 258q-162 0 -254 -313q-67 -228 -67 -444q0 -258 160 -258zM861 1877
q27 -92 148 -187l196 -154q-179 10 -397 67q-310 82 -310 195q0 79 363 79z" />
    <glyph glyph-name="oacute" unicode="&#xf3;" horiz-adv-x="1300" 
d="M639 -27q-214 0 -340.5 132t-126.5 347q0 341 210 627q229 314 558 314q208 0 335 -136q124 -132 124 -342q0 -336 -208 -625q-228 -317 -552 -317zM708 175q157 0 248 314q67 231 67 443q0 258 -154 258q-162 0 -254 -313q-67 -228 -67 -444q0 -258 160 -258zM745 1540
q68 74 207 220q116 118 262 118q136 0 246 -25q-79 -31 -203 -120q-275 -197 -415 -197q-22 0 -97 4z" />
    <glyph glyph-name="ocircumflex" unicode="&#xf4;" horiz-adv-x="1300" 
d="M639 -27q-214 0 -340.5 132t-126.5 347q0 341 210 627q229 314 558 314q208 0 335 -136q124 -132 124 -342q0 -336 -208 -625q-228 -317 -552 -317zM708 175q157 0 248 314q67 231 67 443q0 258 -154 258q-162 0 -254 -313q-67 -228 -67 -444q0 -258 160 -258zM991 1694
q-202 -158 -315 -158q-39 0 -140 20q51 33 171 135q220 187 370 187q45 0 97 -11q43 -148 182 -308q-98 -23 -141 -23q-91 0 -224 158z" />
    <glyph glyph-name="otilde" unicode="&#xf5;" horiz-adv-x="1300" 
d="M639 -27q-214 0 -340.5 132t-126.5 347q0 341 210 627q229 314 558 314q208 0 335 -136q124 -132 124 -342q0 -336 -208 -625q-228 -317 -552 -317zM708 175q157 0 248 314q67 231 67 443q0 258 -154 258q-162 0 -254 -313q-67 -228 -67 -444q0 -258 160 -258zM610 1539
q-22 -3 -36 -3q-81 0 -81 106q0 111 73 201q78 96 186 96q77 0 256 -109.5t224 -109.5q105 0 105 193q0 11 -1 23q25 3 35 3q81 0 81 -106q0 -111 -73 -201q-77 -96 -185 -96q-78 0 -256.5 109.5t-223.5 109.5q-106 0 -106 -186q0 -17 2 -30z" />
    <glyph glyph-name="odieresis" unicode="&#xf6;" horiz-adv-x="1300" 
d="M639 -27q-214 0 -340.5 132t-126.5 347q0 341 210 627q229 314 558 314q208 0 335 -136q124 -132 124 -342q0 -336 -208 -625q-228 -317 -552 -317zM708 175q157 0 248 314q67 231 67 443q0 258 -154 258q-162 0 -254 -313q-67 -228 -67 -444q0 -258 160 -258zM605 1846
q111 31 186 31q155 0 155 -119q0 -44 -26 -177q-118 -45 -208 -45q-114 0 -114 87q0 25 10 74t10 74q0 36 -13 75zM1118 1846q111 31 187 31q154 0 154 -119q0 -44 -26 -177q-118 -45 -208 -45q-114 0 -114 87q0 25 10 74.5t10 74.5q0 35 -13 74z" />
    <glyph glyph-name="divide" unicode="&#xf7;" horiz-adv-x="1195" 
d="M236 498q25 192 100 252q70 57 270 59l320 3q170 2 311 59q-57 -217 -193 -279q-91 -42 -351 -42h-86q-22 0 -49 1h-33q-157 0 -289 -53zM468 416q119 33 197 33q164 0 164 -126q0 -56 -27 -188q-128 -48 -221 -48q-120 0 -120 92q0 27 10.5 79t10.5 79q0 35 -14 79z
M633 1245q120 33 198 33q163 0 163 -125q0 -42 -27 -189q-126 -48 -221 -48q-120 0 -120 92q0 27 10.5 79.5t10.5 79.5q0 34 -14 78z" />
    <glyph glyph-name="oslash" unicode="&#xf8;" horiz-adv-x="1300" 
d="M349 62q-92 -130 -98 -266q-165 82 -165 168q0 70 149 231q-63 119 -63 259q0 324 206 617q227 322 538 322q176 0 311 -101q176 162 265 162q109 0 176 -116q-157 -46 -324 -194q55 -109 55 -242q0 -334 -212 -619q-231 -310 -554 -310q-166 0 -284 89zM1002 1074
q-42 116 -133 116q-234 0 -313 -626q202 279 446 510zM560 321q47 -146 143 -146q260 0 318 693q-347 -382 -461 -547z" />
    <glyph glyph-name="ugrave" unicode="&#xf9;" 
d="M1094 1351q95 28 196 28q172 0 172 -124q0 -68 -24 -162l-41 -160q-93 -363 -93 -620q0 -144 52 -251q-90 -76 -203 -76q-211 0 -211 232q0 125 28 299q-272 -545 -547 -545q-211 0 -211 215q0 176 84.5 521t84.5 521q0 54 -21 103q133 47 231 47q153 0 153 -127
q0 -43 -28 -166q-143 -631 -143 -768q0 -55 33 -55q99 0 306 436q199 419 199 561q0 38 -17 91zM840 1877q27 -92 148 -187l196 -154q-179 10 -397 67q-310 82 -310 195q0 79 363 79z" />
    <glyph glyph-name="uacute" unicode="&#xfa;" 
d="M1094 1351q95 28 196 28q172 0 172 -124q0 -68 -24 -162l-41 -160q-93 -363 -93 -620q0 -144 52 -251q-90 -76 -203 -76q-211 0 -211 232q0 125 28 299q-272 -545 -547 -545q-211 0 -211 215q0 176 84.5 521t84.5 521q0 54 -21 103q133 47 231 47q153 0 153 -127
q0 -43 -28 -166q-143 -631 -143 -768q0 -55 33 -55q99 0 306 436q199 419 199 561q0 38 -17 91zM749 1540q68 74 207 220q116 118 262 118q136 0 246 -25q-79 -31 -203 -120q-275 -197 -415 -197q-22 0 -97 4z" />
    <glyph glyph-name="ucircumflex" unicode="&#xfb;" 
d="M1094 1351q95 28 196 28q172 0 172 -124q0 -68 -24 -162l-41 -160q-93 -363 -93 -620q0 -144 52 -251q-90 -76 -203 -76q-211 0 -211 232q0 125 28 299q-272 -545 -547 -545q-211 0 -211 215q0 176 84.5 521t84.5 521q0 54 -21 103q133 47 231 47q153 0 153 -127
q0 -43 -28 -166q-143 -631 -143 -768q0 -55 33 -55q99 0 306 436q199 419 199 561q0 38 -17 91zM993 1694q-202 -158 -315 -158q-39 0 -140 20q51 33 171 135q220 187 370 187q45 0 97 -11q43 -148 182 -308q-98 -23 -141 -23q-91 0 -224 158z" />
    <glyph glyph-name="udieresis" unicode="&#xfc;" 
d="M1094 1351q95 28 196 28q172 0 172 -124q0 -68 -24 -162l-41 -160q-93 -363 -93 -620q0 -144 52 -251q-90 -76 -203 -76q-211 0 -211 232q0 125 28 299q-272 -545 -547 -545q-211 0 -211 215q0 176 84.5 521t84.5 521q0 54 -21 103q133 47 231 47q153 0 153 -127
q0 -43 -28 -166q-143 -631 -143 -768q0 -55 33 -55q99 0 306 436q199 419 199 561q0 38 -17 91zM570 1846q111 31 186 31q155 0 155 -119q0 -44 -26 -177q-118 -45 -208 -45q-114 0 -114 87q0 25 10 74t10 74q0 36 -13 75zM1083 1846q111 31 187 31q154 0 154 -119
q0 -44 -26 -177q-118 -45 -208 -45q-114 0 -114 87q0 25 10 74.5t10 74.5q0 35 -13 74z" />
    <glyph glyph-name="yacute" unicode="&#xfd;" horiz-adv-x="1221" 
d="M210 1277q140 102 286 102q144 0 168 -232q25 -264 80 -740l236 408q159 275 159 433q0 41 -19 117q315 -10 315 -150q0 -146 -250 -535q-244 -382 -526 -684q-314 -337 -467 -337q-163 0 -163 111q0 81 90 204q58 -42 119 -42q150 0 254 192q-153 974 -282 1153z
M732 1540q68 74 207 220q116 118 262 118q136 0 246 -25q-79 -31 -203 -120q-275 -197 -415 -197q-22 0 -97 4z" />
    <glyph glyph-name="thorn" unicode="&#xfe;" 
d="M490 -287q-130 -55 -224 -55q-152 0 -152 128q0 51 20 130l32 129l237 1191q44 221 44 338q0 42 -15 94q126 52 227 52q153 0 153 -130q0 -64 -145 -743q302 546 555 546q262 0 262 -373q0 -335 -186 -653q-215 -367 -527 -367q-145 0 -259 74q-30 -165 -30 -243
q0 -43 8 -118zM571 365q115 -155 229 -155q143 0 239 307q75 240 75 428q0 147 -65 147q-62 0 -256 -322q-161 -265 -222 -405z" />
    <glyph glyph-name="ydieresis" unicode="&#xff;" horiz-adv-x="1221" 
d="M210 1277q140 102 286 102q144 0 168 -232q25 -264 80 -740l236 408q159 275 159 433q0 41 -19 117q315 -10 315 -150q0 -146 -250 -535q-244 -382 -526 -684q-314 -337 -467 -337q-163 0 -163 111q0 81 90 204q58 -42 119 -42q150 0 254 192q-153 974 -282 1153z
M489 1846q111 31 186 31q155 0 155 -119q0 -44 -26 -177q-118 -45 -208 -45q-114 0 -114 87q0 25 10 74t10 74q0 36 -13 75zM1002 1846q111 31 187 31q154 0 154 -119q0 -44 -26 -177q-118 -45 -208 -45q-114 0 -114 87q0 25 10 74.5t10 74.5q0 35 -13 74z" />
    <glyph glyph-name="Amacron" unicode="&#x100;" 
d="M508 559q-36 -76 -105 -230q-65 -151 -65 -253q0 -22 3 -40q-146 -50 -237 -50q-99 0 -99 74q0 46 36 111q184 344 559 1046q71 128 247 465l156 42q89 24 159 24q123 0 123 -185q0 -57 -3 -172t-3 -172v-561q0 -416 126 -588q-149 -84 -274 -84q-171 0 -184 342l-9 231
h-430zM587 744h356l-2 147v112q0 64 5 200q4 108 4 168v32l-2 102q-177 -340 -361 -761zM795 2089q80 -25 267 -25h133q172 0 255 24q-6 -211 -296 -211h-122q-269 0 -269 89q0 38 32 123z" />
    <glyph glyph-name="amacron" unicode="&#x101;" 
d="M969 519q-300 -546 -554 -546q-263 0 -263 370q0 341 186 669q217 381 533 381q146 0 258 -74q55 61 151 61q116 0 227 -53q-76 -154 -142 -496q-61 -322 -61 -518q0 -143 51 -251q-88 -76 -202 -76q-211 0 -211 233q0 120 27 300zM1071 1027q-116 156 -230 156
q-143 0 -241 -320q-78 -253 -78 -443q0 -146 66 -146q70 0 263 334q142 244 220 419zM727 1748q80 -25 267 -25h133q172 0 255 24q-6 -211 -296 -211h-122q-269 0 -269 89q0 38 32 123z" />
    <glyph glyph-name="Abreve" unicode="&#x102;" 
d="M508 559q-36 -76 -105 -230q-65 -151 -65 -253q0 -22 3 -40q-146 -50 -237 -50q-99 0 -99 74q0 46 36 111q184 344 559 1046q71 128 247 465l156 42q89 24 159 24q123 0 123 -185q0 -57 -3 -172t-3 -172v-561q0 -416 126 -588q-149 -84 -274 -84q-171 0 -184 342l-9 231
h-430zM587 744h356l-2 147v112q0 64 5 200q4 108 4 168v32l-2 102q-177 -340 -361 -761zM1347 2198q145 -10 145 -63q0 -116 -162 -193q-134 -65 -264 -65q-345 0 -345 211q0 99 177 108q-5 -32 -5 -50q0 -109 200 -109q232 0 254 161z" />
    <glyph glyph-name="abreve" unicode="&#x103;" 
d="M969 519q-300 -546 -554 -546q-263 0 -263 370q0 341 186 669q217 381 533 381q146 0 258 -74q55 61 151 61q116 0 227 -53q-76 -154 -142 -496q-61 -322 -61 -518q0 -143 51 -251q-88 -76 -202 -76q-211 0 -211 233q0 120 27 300zM1071 1027q-116 156 -230 156
q-143 0 -241 -320q-78 -253 -78 -443q0 -146 66 -146q70 0 263 334q142 244 220 419zM1293 1857q145 -10 145 -63q0 -116 -162 -193q-134 -65 -264 -65q-345 0 -345 211q0 99 177 108q-5 -32 -5 -50q0 -109 200 -109q232 0 254 161z" />
    <glyph glyph-name="Aogonek" unicode="&#x104;" 
d="M508 559q-36 -76 -105 -230q-65 -151 -65 -253q0 -22 3 -40q-146 -50 -237 -50q-99 0 -99 74q0 46 36 111q184 344 559 1046q71 128 247 465l156 42q89 24 159 24q123 0 123 -185q0 -57 -3 -172t-3 -172v-561q0 -416 126 -588q-149 -84 -274 -84q-171 0 -184 342l-9 231
h-430zM587 744h356l-2 147v112q0 64 5 200q4 108 4 168v32l-2 102q-177 -340 -361 -761zM1207 0q-122 -93 -122 -168q0 -58 107 -58q38 0 135 27q3 -24 3 -35q0 -107 -220 -107q-208 0 -208 126q0 121 163 215h142z" />
    <glyph glyph-name="aogonek" unicode="&#x105;" 
d="M969 519q-300 -546 -554 -546q-263 0 -263 370q0 341 186 669q217 381 533 381q146 0 258 -74q55 61 151 61q116 0 227 -53q-76 -154 -142 -496q-61 -322 -61 -518q0 -143 51 -251q-88 -76 -202 -76q-211 0 -211 233q0 120 27 300zM1071 1027q-116 156 -230 156
q-143 0 -241 -320q-78 -253 -78 -443q0 -146 66 -146q70 0 263 334q142 244 220 419zM1231 0q-122 -93 -122 -168q0 -58 107 -58q38 0 135 27q3 -24 3 -35q0 -107 -220 -107q-208 0 -208 126q0 121 163 215h142z" />
    <glyph glyph-name="Cacute" unicode="&#x106;" horiz-adv-x="1316" 
d="M1281 406q21 -80 21 -101q0 -143 -267 -254q-223 -93 -393 -93q-455 0 -455 511q0 286 112 573q121 309 328 495q235 211 531 211q366 0 366 -182q0 -102 -187 -253q-83 262 -276 262q-241 0 -374 -400q-98 -294 -98 -598q0 -374 242 -374q189 0 450 203zM961 1881
q68 74 207 220q116 118 262 118q136 0 246 -25q-79 -31 -203 -120q-275 -197 -415 -197q-22 0 -97 4z" />
    <glyph glyph-name="cacute" unicode="&#x107;" horiz-adv-x="1111" 
d="M1112 328q15 -56 15 -89q0 -131 -214 -208q-163 -58 -324 -58q-426 0 -426 414q0 390 224 685q244 321 622 321q307 0 307 -129q0 -107 -194 -227q-81 171 -211 171q-344 0 -344 -720q0 -296 190 -296q160 0 355 136zM799 1540q68 74 207 220q116 118 262 118
q136 0 246 -25q-79 -31 -203 -120q-275 -197 -415 -197q-22 0 -97 4z" />
    <glyph glyph-name="Ccircumflex" unicode="&#x108;" horiz-adv-x="1316" 
d="M1281 406q21 -80 21 -101q0 -143 -267 -254q-223 -93 -393 -93q-455 0 -455 511q0 286 112 573q121 309 328 495q235 211 531 211q366 0 366 -182q0 -102 -187 -253q-83 262 -276 262q-241 0 -374 -400q-98 -294 -98 -598q0 -374 242 -374q189 0 450 203zM1140 2008
q-202 -158 -315 -158q-39 0 -140 20q51 33 171 135q220 187 370 187q45 0 97 -11q43 -148 182 -308q-98 -23 -141 -23q-91 0 -224 158z" />
    <glyph glyph-name="ccircumflex" unicode="&#x109;" horiz-adv-x="1111" 
d="M1112 328q15 -56 15 -89q0 -131 -214 -208q-163 -58 -324 -58q-426 0 -426 414q0 390 224 685q244 321 622 321q307 0 307 -129q0 -107 -194 -227q-81 171 -211 171q-344 0 -344 -720q0 -296 190 -296q160 0 355 136zM1006 1653q-202 -158 -315 -158q-39 0 -140 20
q51 33 171 135q220 187 370 187q45 0 97 -11q43 -148 182 -308q-98 -23 -141 -23q-91 0 -224 158z" />
    <glyph glyph-name="Cdotaccent" unicode="&#x10a;" horiz-adv-x="1316" 
d="M1281 406q21 -80 21 -101q0 -143 -267 -254q-223 -93 -393 -93q-455 0 -455 511q0 286 112 573q121 309 328 495q235 211 531 211q366 0 366 -182q0 -102 -187 -253q-83 262 -276 262q-241 0 -374 -400q-98 -294 -98 -598q0 -374 242 -374q189 0 450 203zM1018 2165
q116 32 198 32q163 0 163 -126q0 -44 -24 -174q-125 -47 -219 -47q-125 0 -125 85q0 25 10.5 75t10.5 76q0 35 -14 79z" />
    <glyph glyph-name="cdotaccent" unicode="&#x10b;" horiz-adv-x="1111" 
d="M1112 328q15 -56 15 -89q0 -131 -214 -208q-163 -58 -324 -58q-426 0 -426 414q0 390 224 685q244 321 622 321q307 0 307 -129q0 -107 -194 -227q-81 171 -211 171q-344 0 -344 -720q0 -296 190 -296q160 0 355 136zM867 1810q116 32 198 32q163 0 163 -126
q0 -44 -24 -174q-125 -47 -219 -47q-125 0 -125 85q0 25 10.5 75t10.5 76q0 35 -14 79z" />
    <glyph glyph-name="Ccaron" unicode="&#x10c;" horiz-adv-x="1316" 
d="M1281 406q21 -80 21 -101q0 -143 -267 -254q-223 -93 -393 -93q-455 0 -455 511q0 286 112 573q121 309 328 495q235 211 531 211q366 0 366 -182q0 -102 -187 -253q-83 262 -276 262q-241 0 -374 -400q-98 -294 -98 -598q0 -374 242 -374q189 0 450 203zM1211 2061
q193 158 315 158q33 0 140 -20q-400 -322 -541 -322q-46 0 -97 11q-43 148 -182 308q98 23 142 23q92 0 223 -158z" />
    <glyph glyph-name="ccaron" unicode="&#x10d;" horiz-adv-x="1111" 
d="M1112 328q15 -56 15 -89q0 -131 -214 -208q-163 -58 -324 -58q-426 0 -426 414q0 390 224 685q244 321 622 321q307 0 307 -129q0 -107 -194 -227q-81 171 -211 171q-344 0 -344 -720q0 -296 190 -296q160 0 355 136zM1022 1720q193 158 315 158q33 0 140 -20
q-400 -322 -541 -322q-46 0 -97 11q-43 148 -182 308q98 23 142 23q92 0 223 -158z" />
    <glyph glyph-name="Dcaron" unicode="&#x10e;" 
d="M415 1605q303 143 617 143q486 0 486 -488q0 -263 -125 -556q-131 -308 -342 -500q-238 -218 -512 -218q-37 0 -113 13q-99 -17 -115 -17q-134 0 -134 93q0 42 16 107q252 1025 252 1305q0 62 -30 118zM563 242q96 -30 158 -30q207 0 334 398q96 301 96 564
q0 352 -202 352q-43 0 -134 -21zM1061 2061q193 158 315 158q33 0 140 -20q-400 -322 -541 -322q-46 0 -97 11q-43 148 -182 308q98 23 142 23q92 0 223 -158z" />
    <glyph glyph-name="dcaron" unicode="&#x10f;" horiz-adv-x="1792" 
d="M969 519q-300 -546 -554 -546q-263 0 -263 372q0 335 186 653q215 367 527 367q149 0 258 -73q32 153 32 270q0 40 -11 89q114 69 222 69q154 0 154 -131q0 -72 -26 -182q-190 -805 -190 -1094q0 -143 51 -251q-88 -76 -202 -76q-211 0 -211 233q0 120 27 300zM1065 1000
q-110 155 -229 155q-143 0 -239 -307q-75 -240 -75 -428q0 -146 65 -146q73 0 262 333zM1515 1228q29 -8 60 -8q239 0 239 238q0 96 -90 176q136 87 280 87q139 0 139 -141q0 -181 -176 -336q-170 -150 -354 -150q-104 0 -104 77q0 17 6 57z" />
    <glyph glyph-name="Dcroat" unicode="&#x110;" 
d="M415 1605q303 143 617 143q486 0 486 -488q0 -263 -125 -555q-131 -309 -341 -501q-239 -218 -512 -218q-38 0 -114 13q-99 -17 -114 -17q-135 0 -135 93q0 41 16 107q52 213 132 593h-25q-95 0 -158 -20q33 193 207 193h10q86 412 86 539q0 61 -30 118zM815 1505
l-111 -557h17q75 0 245 31q-17 -133 -91 -174q-54 -30 -205 -30l-106 -533q95 -30 157 -30q206 0 333 398q97 302 97 563q0 353 -202 353q-41 0 -134 -21z" />
    <glyph glyph-name="dcroat" unicode="&#x111;" 
d="M1355 62q-88 -76 -202 -76q-211 0 -211 233q0 119 27 300q-300 -546 -554 -546q-262 0 -262 380q0 323 184 611q208 327 514 327q147 0 258 -73l35 180h-24q-83 0 -159 -20q23 168 213 168q4 51 4 67q0 24 -7 55q97 53 202 53q145 0 145 -139q0 -17 -2 -36h17
q41 0 170 27q-19 -175 -217 -175q-182 -852 -182 -1085q0 -143 51 -251zM1050 926q-109 155 -228 155q-145 0 -233 -270q-67 -205 -67 -390q0 -147 65 -147q82 0 463 652z" />
    <glyph glyph-name="Emacron" unicode="&#x112;" horiz-adv-x="1195" 
d="M415 1603q185 106 458 106q35 0 105 -1t105 -1q179 0 372 38q-56 -261 -295 -261q-55 0 -174 5q-96 4 -151 4h-23l-100 -501h85q201 0 383 57q-23 -277 -349 -277q-27 0 -81 1t-81 1q-67 -338 -91 -511q124 -24 230 -24q217 0 401 67v-21q0 -296 -534 -296
q-42 0 -124.5 5.5t-124.5 5.5q-19 0 -57.5 -8.5t-57.5 -8.5q-134 0 -134 93q0 73 29 182l48 180q191 716 191 1049q0 58 -30 116zM708 2089q80 -25 267 -25h133q172 0 255 24q-6 -211 -296 -211h-122q-269 0 -269 89q0 38 32 123z" />
    <glyph glyph-name="emacron" unicode="&#x113;" horiz-adv-x="1201" 
d="M559 562q-9 -80 -9 -134q0 -253 204 -253q189 0 436 195q25 -52 25 -92q0 -145 -231 -235q-181 -71 -354 -71q-470 0 -470 410q0 376 235 681q253 330 619 330q290 0 290 -246q0 -280 -242 -440q-205 -137 -503 -145zM578 735q394 7 394 336q0 140 -99 140
q-189 0 -295 -476zM705 1748q80 -25 267 -25h133q172 0 255 24q-6 -211 -296 -211h-122q-269 0 -269 89q0 38 32 123z" />
    <glyph glyph-name="Ebreve" unicode="&#x114;" horiz-adv-x="1195" 
d="M415 1603q185 106 458 106q35 0 105 -1t105 -1q179 0 372 38q-56 -261 -295 -261q-55 0 -174 5q-96 4 -151 4h-23l-100 -501h85q201 0 383 57q-23 -277 -349 -277q-27 0 -81 1t-81 1q-67 -338 -91 -511q124 -24 230 -24q217 0 401 67v-21q0 -296 -534 -296
q-42 0 -124.5 5.5t-124.5 5.5q-19 0 -57.5 -8.5t-57.5 -8.5q-134 0 -134 93q0 73 29 182l48 180q191 716 191 1049q0 58 -30 116zM1231 2168q145 -10 145 -63q0 -116 -162 -193q-134 -65 -264 -65q-345 0 -345 211q0 99 177 108q-5 -32 -5 -50q0 -109 200 -109
q232 0 254 161z" />
    <glyph glyph-name="ebreve" unicode="&#x115;" horiz-adv-x="1202" 
d="M559 562q-9 -80 -9 -134q0 -253 204 -253q189 0 436 195q25 -52 25 -92q0 -145 -231 -235q-181 -71 -354 -71q-470 0 -470 410q0 376 235 681q253 330 619 330q290 0 290 -246q0 -280 -242 -440q-205 -137 -503 -145zM578 735q394 7 394 336q0 140 -99 140
q-189 0 -295 -476zM1245 1816q145 -10 145 -63q0 -116 -162 -193q-134 -65 -264 -65q-345 0 -345 211q0 99 177 108q-5 -32 -5 -50q0 -109 200 -109q232 0 254 161z" />
    <glyph glyph-name="Edotaccent" unicode="&#x116;" horiz-adv-x="1195" 
d="M415 1603q185 106 458 106q35 0 105 -1t105 -1q179 0 372 38q-56 -261 -295 -261q-55 0 -174 5q-96 4 -151 4h-23l-100 -501h85q201 0 383 57q-23 -277 -349 -277q-27 0 -81 1t-81 1q-67 -338 -91 -511q124 -24 230 -24q217 0 401 67v-21q0 -296 -534 -296
q-42 0 -124.5 5.5t-124.5 5.5q-19 0 -57.5 -8.5t-57.5 -8.5q-134 0 -134 93q0 73 29 182l48 180q191 716 191 1049q0 58 -30 116zM831 2192q116 32 198 32q163 0 163 -126q0 -44 -24 -174q-125 -47 -219 -47q-125 0 -125 85q0 25 10.5 75t10.5 76q0 35 -14 79z" />
    <glyph glyph-name="edotaccent" unicode="&#x117;" horiz-adv-x="1202" 
d="M559 562q-9 -80 -9 -134q0 -253 204 -253q189 0 436 195q25 -52 25 -92q0 -145 -231 -235q-181 -71 -354 -71q-470 0 -470 410q0 376 235 681q253 330 619 330q290 0 290 -246q0 -280 -242 -440q-205 -137 -503 -145zM578 735q394 7 394 336q0 140 -99 140
q-189 0 -295 -476zM839 1851q116 32 198 32q163 0 163 -126q0 -44 -24 -174q-125 -47 -219 -47q-125 0 -125 85q0 25 10.5 75t10.5 76q0 35 -14 79z" />
    <glyph glyph-name="Eogonek" unicode="&#x118;" horiz-adv-x="1195" 
d="M415 1603q185 106 458 106q35 0 105 -1t105 -1q179 0 372 38q-56 -261 -295 -261q-55 0 -174 5q-96 4 -151 4h-23l-100 -501h85q201 0 383 57q-23 -277 -349 -277q-27 0 -81 1t-81 1q-67 -338 -91 -511q124 -24 230 -24q217 0 401 67v-21q0 -296 -534 -296
q-42 0 -124.5 5.5t-124.5 5.5q-19 0 -57.5 -8.5t-57.5 -8.5q-134 0 -134 93q0 73 29 182l48 180q191 716 191 1049q0 58 -30 116zM762 0q-122 -93 -122 -168q0 -58 107 -58q38 0 135 27q3 -24 3 -35q0 -107 -220 -107q-208 0 -208 126q0 121 163 215h142z" />
    <glyph glyph-name="eogonek" unicode="&#x119;" horiz-adv-x="1202" 
d="M559 562q-9 -80 -9 -134q0 -253 204 -253q189 0 436 195q25 -52 25 -92q0 -145 -231 -235q-181 -71 -354 -71q-470 0 -470 410q0 376 235 681q253 330 619 330q290 0 290 -246q0 -280 -242 -440q-205 -137 -503 -145zM578 735q394 7 394 336q0 140 -99 140
q-189 0 -295 -476zM739 0q-122 -93 -122 -168q0 -58 107 -58q38 0 135 27q3 -24 3 -35q0 -107 -220 -107q-208 0 -208 126q0 121 163 215h142z" />
    <glyph glyph-name="Ecaron" unicode="&#x11a;" horiz-adv-x="1195" 
d="M415 1603q185 106 458 106q35 0 105 -1t105 -1q179 0 372 38q-56 -261 -295 -261q-55 0 -174 5q-96 4 -151 4h-23l-100 -501h85q201 0 383 57q-23 -277 -349 -277q-27 0 -81 1t-81 1q-67 -338 -91 -511q124 -24 230 -24q217 0 401 67v-21q0 -296 -534 -296
q-42 0 -124.5 5.5t-124.5 5.5q-19 0 -57.5 -8.5t-57.5 -8.5q-134 0 -134 93q0 73 29 182l48 180q191 716 191 1049q0 58 -30 116zM1038 2061q193 158 315 158q33 0 140 -20q-400 -322 -541 -322q-46 0 -97 11q-43 148 -182 308q98 23 142 23q92 0 223 -158z" />
    <glyph glyph-name="ecaron" unicode="&#x11b;" horiz-adv-x="1201" 
d="M559 562q-9 -80 -9 -134q0 -253 204 -253q189 0 436 195q25 -52 25 -92q0 -145 -231 -235q-181 -71 -354 -71q-470 0 -470 410q0 376 235 681q253 330 619 330q290 0 290 -246q0 -280 -242 -440q-205 -137 -503 -145zM578 735q394 7 394 336q0 140 -99 140
q-189 0 -295 -476zM1031 1720q193 158 315 158q33 0 140 -20q-400 -322 -541 -322q-46 0 -97 11q-43 148 -182 308q98 23 142 23q92 0 223 -158z" />
    <glyph glyph-name="Gcircumflex" unicode="&#x11c;" horiz-adv-x="1301" 
d="M1360 1313q-80 261 -303 261q-247 0 -382 -408q-99 -300 -99 -612q0 -357 185 -357q64 0 163 42q67 174 115 424h-20q-101 0 -199 -43q18 172 92 222q61 41 248 41q43 0 127.5 3t127.5 3q-127 -386 -155 -660q-20 -193 -205 -193q-35 0 -90 4q-175 -81 -325 -81
q-213 0 -337 151q-116 142 -116 359q0 287 116 575q124 309 335 495q239 210 535 210q375 0 375 -179q0 -104 -188 -257zM1144 2009q-202 -158 -315 -158q-39 0 -140 20q51 33 171 135q220 187 370 187q45 0 97 -11q43 -148 182 -308q-98 -23 -141 -23q-91 0 -224 158z" />
    <glyph glyph-name="gcircumflex" unicode="&#x11d;" 
d="M223 100q153 -244 379 -244q150 0 239 146q66 110 104 316l44 300q-297 -431 -544 -431q-248 0 -248 364q0 320 172 566q193 276 500 276q143 0 264 -74q38 60 146 60t228 -52q-83 -151 -131 -473l-58 -402q-44 -246 -119 -403q-97 -202 -259.5 -296.5t-376.5 -94.5
q-140 0 -309 56q-216 73 -216 183q0 124 185 203zM1076 1027q-107 158 -231 158q-149 0 -224 -233q-54 -165 -54 -354q0 -112 62 -112q169 0 447 541zM1039 1653q-202 -158 -315 -158q-39 0 -140 20q51 33 171 135q220 187 370 187q45 0 97 -11q43 -148 182 -308
q-98 -23 -141 -23q-91 0 -224 158z" />
    <glyph glyph-name="Gbreve" unicode="&#x11e;" horiz-adv-x="1301" 
d="M1360 1313q-80 261 -303 261q-247 0 -382 -408q-99 -300 -99 -612q0 -357 185 -357q64 0 163 42q67 174 115 424h-20q-101 0 -199 -43q18 172 92 222q61 41 248 41q43 0 127.5 3t127.5 3q-127 -386 -155 -660q-20 -193 -205 -193q-35 0 -90 4q-175 -81 -325 -81
q-213 0 -337 151q-116 142 -116 359q0 287 116 575q124 309 335 495q239 210 535 210q375 0 375 -179q0 -104 -188 -257zM1430 2198q145 -10 145 -63q0 -116 -162 -193q-134 -65 -264 -65q-345 0 -345 211q0 99 177 108q-5 -32 -5 -50q0 -109 200 -109q232 0 254 161z" />
    <glyph glyph-name="gbreve" unicode="&#x11f;" 
d="M223 100q153 -244 379 -244q150 0 239 146q66 110 104 316l44 300q-297 -431 -544 -431q-248 0 -248 364q0 320 172 566q193 276 500 276q143 0 264 -74q38 60 146 60t228 -52q-83 -151 -131 -473l-58 -402q-44 -246 -119 -403q-97 -202 -259.5 -296.5t-376.5 -94.5
q-140 0 -309 56q-216 73 -216 183q0 124 185 203zM1076 1027q-107 158 -231 158q-149 0 -224 -233q-54 -165 -54 -354q0 -112 62 -112q169 0 447 541zM1258 1857q145 -10 145 -63q0 -116 -162 -193q-134 -65 -264 -65q-345 0 -345 211q0 99 177 108q-5 -32 -5 -50
q0 -109 200 -109q232 0 254 161z" />
    <glyph glyph-name="Gdotaccent" unicode="&#x120;" horiz-adv-x="1301" 
d="M1360 1313q-80 261 -303 261q-247 0 -382 -408q-99 -300 -99 -612q0 -357 185 -357q64 0 163 42q67 174 115 424h-20q-101 0 -199 -43q18 172 92 222q61 41 248 41q43 0 127.5 3t127.5 3q-127 -386 -155 -660q-20 -193 -205 -193q-35 0 -90 4q-175 -81 -325 -81
q-213 0 -337 151q-116 142 -116 359q0 287 116 575q124 309 335 495q239 210 535 210q375 0 375 -179q0 -104 -188 -257zM990 2166q116 32 198 32q163 0 163 -126q0 -44 -24 -174q-125 -47 -219 -47q-125 0 -125 85q0 25 10.5 75t10.5 76q0 35 -14 79z" />
    <glyph glyph-name="gdotaccent" unicode="&#x121;" 
d="M223 100q153 -244 379 -244q150 0 239 146q66 110 104 316l44 300q-297 -431 -544 -431q-248 0 -248 364q0 320 172 566q193 276 500 276q143 0 264 -74q38 60 146 60t228 -52q-83 -151 -131 -473l-58 -402q-44 -246 -119 -403q-97 -202 -259.5 -296.5t-376.5 -94.5
q-140 0 -309 56q-216 73 -216 183q0 124 185 203zM1076 1027q-107 158 -231 158q-149 0 -224 -233q-54 -165 -54 -354q0 -112 62 -112q169 0 447 541zM801 1810q116 32 198 32q163 0 163 -126q0 -44 -24 -174q-125 -47 -219 -47q-125 0 -125 85q0 25 10.5 75t10.5 76
q0 35 -14 79z" />
    <glyph glyph-name="Gcedilla" unicode="&#x122;" horiz-adv-x="1301" 
d="M1360 1313q-80 261 -303 261q-247 0 -382 -408q-99 -300 -99 -612q0 -357 185 -357q64 0 163 42q67 174 115 424h-20q-101 0 -199 -43q18 172 92 222q61 41 248 41q43 0 127.5 3t127.5 3q-127 -386 -155 -660q-20 -193 -205 -193q-35 0 -90 4q-175 -81 -325 -81
q-213 0 -337 151q-116 142 -116 359q0 287 116 575q124 309 335 495q239 210 535 210q375 0 375 -179q0 -104 -188 -257zM554 -127l26 127h84l-10 -52q157 -19 157 -111q0 -178 -326 -178q-232 0 -232 58q0 22 26 69q63 -21 160 -21q174 0 174 64q0 39 -59 44z" />
    <glyph glyph-name="gcedilla" unicode="&#x123;" 
d="M223 100q153 -244 379 -244q150 0 239 146q66 110 104 316l44 300q-297 -431 -544 -431q-248 0 -248 364q0 320 172 566q193 276 500 276q143 0 264 -74q38 60 146 60t228 -52q-83 -151 -131 -473l-58 -402q-44 -246 -119 -403q-97 -202 -259.5 -296.5t-376.5 -94.5
q-140 0 -309 56q-216 73 -216 183q0 124 185 203zM1076 1027q-107 158 -231 158q-149 0 -224 -233q-54 -165 -54 -354q0 -112 62 -112q169 0 447 541zM1392 2028q-33 9 -61 9q-238 0 -238 -239q0 -95 90 -175q-136 -87 -280 -87q-139 0 -139 140q0 181 176 337
q170 150 354 150q103 0 103 -78q0 -22 -5 -57z" />
    <glyph glyph-name="Hcircumflex" unicode="&#x124;" 
d="M1046 753h-427q-109 -505 -109 -624q0 -29 8 -82q-136 -61 -244 -61q-139 0 -139 96q0 64 27 167l43 164q198 755 198 1093q0 68 -38 127q150 88 302 88q126 0 126 -91q0 -68 -127 -638h428q81 396 81 512q0 72 -38 129q150 88 303 88q125 0 125 -91q0 -4 -54 -275
l-179 -899q-50 -251 -50 -327q0 -31 9 -82q-137 -61 -244 -61q-140 0 -140 96q0 64 27 167l43 164q18 69 69 340zM1038 1981q-202 -158 -315 -158q-39 0 -140 20q51 33 171 135q220 187 370 187q45 0 97 -11q43 -148 182 -308q-98 -23 -141 -23q-91 0 -224 158z" />
    <glyph glyph-name="hcircumflex" unicode="&#x125;" 
d="M668 848q256 518 542 518q210 0 210 -214q0 -151 -70.5 -446t-70.5 -446q0 -123 60 -201q-115 -73 -227 -73q-188 0 -188 181q0 142 67.5 430t67.5 422q0 56 -33 56q-111 0 -310 -421q-189 -399 -189 -549q0 -38 17 -91q-102 -28 -197 -28q-172 0 -172 124q0 80 35 216
l56 218l136 686q44 222 44 335q0 33 -12 86q114 69 222 69q155 0 155 -131q0 -71 -143 -741zM805 1980q-202 -158 -315 -158q-39 0 -140 20q51 33 171 135q220 187 370 187q45 0 97 -11q43 -148 182 -308q-98 -23 -141 -23q-91 0 -224 158z" />
    <glyph glyph-name="Hbar" unicode="&#x126;" 
d="M1046 753h-427q-109 -505 -109 -624q0 -29 8 -82q-136 -61 -244 -61q-139 0 -139 96q0 64 27 167l43 164q198 755 198 1093q0 68 -38 127q150 88 302 88q126 0 126 -91q0 -68 -127 -638h428q81 396 81 512q0 72 -38 129q150 88 303 88q125 0 125 -91q0 -4 -54 -275
l-179 -899q-50 -251 -50 -327q0 -31 9 -82q-137 -61 -244 -61q-140 0 -140 96q0 64 27 167l43 164q18 69 69 340zM576 1021q10 59 44 172q44 103 203 129q46 7 256 10q186 2 282 44q-31 -312 -353 -312q-26 0 -78.5 1.5t-78.5 1.5q-171 0 -275 -46z" />
    <glyph glyph-name="hbar" unicode="&#x127;" 
d="M668 848q256 518 542 518q210 0 210 -214q0 -151 -70.5 -446t-70.5 -446q0 -123 60 -201q-115 -73 -227 -73q-188 0 -188 181q0 142 67.5 430t67.5 422q0 56 -33 56q-111 0 -310 -421q-189 -399 -189 -549q0 -38 17 -91q-102 -28 -197 -28q-172 0 -172 124q0 80 35 216
l56 218l136 686q44 222 44 335q0 33 -12 86q114 69 222 69q155 0 155 -131q0 -71 -143 -741zM293 1423q80 -25 267 -25h133q172 0 255 24q-6 -211 -296 -211h-122q-269 0 -269 89q0 38 32 123z" />
    <glyph glyph-name="Itilde" unicode="&#x128;" horiz-adv-x="943" 
d="M598 1494q-93 -5 -177 -37l-1 45q-5 205 245 205h229q1 0 146 8q64 4 124 24l1 -27q8 -206 -223 -217l-254 -1279q102 0 177 29q3 -36 3 -53q0 -187 -192 -189l-294 -3q-158 -2 -264 -25q0 239 225 239zM452 1844q-22 -3 -36 -3q-81 0 -81 106q0 111 73 201q78 96 186 96
q77 0 256 -109.5t224 -109.5q105 0 105 193q0 11 -1 23q25 3 35 3q81 0 81 -106q0 -111 -73 -201q-77 -96 -185 -96q-78 0 -256.5 109.5t-223.5 109.5q-106 0 -106 -186q0 -17 2 -30z" />
    <glyph glyph-name="itilde" unicode="&#x129;" horiz-adv-x="680" 
d="M363 1328q138 51 251 51q152 0 152 -116q0 -53 -19 -127q-166 -650 -166 -885q0 -114 60 -192q-116 -73 -225 -73q-196 0 -196 181q0 175 86 518t86 518q0 63 -29 125zM252 1484q-22 -3 -36 -3q-81 0 -81 106q0 111 73 201q78 96 186 96q77 0 256 -109.5t224 -109.5
q105 0 105 193q0 11 -1 23q25 3 35 3q81 0 81 -106q0 -111 -73 -201q-77 -96 -185 -96q-78 0 -256.5 109.5t-223.5 109.5q-106 0 -106 -186q0 -17 2 -30z" />
    <glyph glyph-name="Imacron" unicode="&#x12a;" horiz-adv-x="943" 
d="M598 1494q-93 -5 -177 -37l-1 45q-5 205 245 205h229q1 0 146 8q64 4 124 24l1 -27q8 -206 -223 -217l-254 -1279q102 0 177 29q3 -36 3 -53q0 -187 -192 -189l-294 -3q-158 -2 -264 -25q0 239 225 239zM530 2089q80 -25 267 -25h133q172 0 255 24q-6 -211 -296 -211
h-122q-269 0 -269 89q0 38 32 123z" />
    <glyph glyph-name="imacron" unicode="&#x12b;" horiz-adv-x="680" 
d="M363 1328q138 51 251 51q152 0 152 -116q0 -53 -19 -127q-166 -650 -166 -885q0 -114 60 -192q-116 -73 -225 -73q-196 0 -196 181q0 175 86 518t86 518q0 63 -29 125zM333 1748q80 -25 267 -25h133q172 0 255 24q-6 -211 -296 -211h-122q-269 0 -269 89q0 38 32 123z
" />
    <glyph glyph-name="Iogonek" unicode="&#x12e;" horiz-adv-x="943" 
d="M598 1494q-93 -5 -177 -37l-1 45q-5 205 245 205h229q1 0 146 8q64 4 124 24l1 -27q8 -206 -223 -217l-254 -1279q102 0 177 29q3 -36 3 -53q0 -187 -192 -189l-294 -3q-158 -2 -264 -25q0 239 225 239zM529 0q-122 -93 -122 -168q0 -58 107 -58q38 0 135 27q3 -24 3 -35
q0 -107 -220 -107q-208 0 -208 126q0 121 163 215h142z" />
    <glyph glyph-name="iogonek" unicode="&#x12f;" horiz-adv-x="680" 
d="M368 1328q138 51 251 51q152 0 152 -116q0 -53 -19 -127q-166 -650 -166 -885q0 -114 60 -192q-116 -73 -225 -73q-196 0 -196 181q0 175 86 518t86 518q0 63 -29 125zM819 1587q-107 -51 -196 -51q-134 0 -134 74q0 25 10 75t10 75q0 17 -13 41q129 47 218 47
q146 0 146 -111q0 -49 -41 -150zM489 0q-122 -93 -122 -168q0 -58 107 -58q38 0 135 27q3 -24 3 -35q0 -107 -220 -107q-208 0 -208 126q0 121 163 215h142z" />
    <glyph glyph-name="Idotaccent" unicode="&#x130;" horiz-adv-x="943" 
d="M598 1494q-93 -5 -177 -37l-1 45q-5 205 245 205h229q1 0 146 8q64 4 124 24l1 -27q8 -206 -223 -217l-254 -1279q102 0 177 29q3 -36 3 -53q0 -187 -192 -189l-294 -3q-158 -2 -264 -25q0 239 225 239zM682 2192q116 32 198 32q163 0 163 -126q0 -44 -24 -174
q-125 -47 -219 -47q-125 0 -125 85q0 25 10.5 75t10.5 76q0 35 -14 79z" />
    <glyph glyph-name="dotlessi" unicode="&#x131;" horiz-adv-x="680" 
d="M363 1328q138 51 251 51q152 0 152 -116q0 -53 -19 -127q-166 -650 -166 -885q0 -114 60 -192q-116 -73 -225 -73q-196 0 -196 181q0 175 86 518t86 518q0 63 -29 125z" />
    <glyph glyph-name="IJ" unicode="&#x132;" horiz-adv-x="1624" 
d="M598 1494q-93 -5 -177 -37l-1 45q-5 205 245 205h229q1 0 146 8q64 4 124 24l1 -27q8 -206 -223 -217l-254 -1279q102 0 177 29q3 -36 3 -53q0 -187 -192 -189l-294 -3q-158 -2 -264 -25q0 239 225 239zM598 -42q94 -105 236 -105q232 0 306 369l23 114l172 864
q36 181 36 311q0 64 -23 133q141 76 270 76q148 0 148 -106q0 -39 -41 -212q-33 -138 -61 -280l-129 -647q-163 -816 -792 -816q-244 0 -244 154q0 94 99 145z" />
    <glyph glyph-name="ij" unicode="&#x133;" horiz-adv-x="1376" 
d="M363 1328q138 51 251 51q152 0 152 -116q0 -53 -19 -127q-164 -642 -164 -871q0 -112 61 -192q-114 -73 -226 -73q-195 0 -195 181q0 173 84.5 511t84.5 511q0 62 -29 125zM814 1587q-107 -51 -196 -51q-134 0 -134 73q0 25 10 75.5t10 75.5q0 17 -13 41q130 47 218 47
q146 0 146 -111q0 -49 -41 -150zM1071 1328q129 51 245 51q158 0 158 -116q0 -75 -30 -190q-38 -186 -156 -728q-155 -686 -713 -686q-292 0 -292 149q0 82 117 159q149 -120 281 -120q163 0 258 451l90 427q71 337 71 478q0 63 -29 125zM1522 1587q-107 -51 -196 -51
q-134 0 -134 74q0 25 10 75t10 75q0 17 -13 41q129 47 218 47q146 0 146 -111q0 -48 -41 -150z" />
    <glyph glyph-name="Jcircumflex" unicode="&#x134;" horiz-adv-x="894" 
d="M-19 51q27 -198 172 -198q183 0 279 483l172 864q36 181 36 311q0 64 -22 133q139 76 269 76q149 0 149 -107q0 -73 -41 -240l-62 -251l-129 -647q-163 -818 -780 -818q-255 0 -255 152q0 138 212 242zM922 1980q-202 -158 -315 -158q-39 0 -140 20q51 33 171 135
q220 187 370 187q45 0 97 -11q43 -148 182 -308q-98 -23 -141 -23q-91 0 -224 158z" />
    <glyph glyph-name="jcircumflex" unicode="&#x135;" horiz-adv-x="718" 
d="M413 1328q129 51 245 51q158 0 158 -116q0 -76 -30 -190l-50 -189l-106 -538q-67 -341 -256 -517q-181 -170 -457 -170q-293 0 -293 148q0 112 182 202q88 -162 221 -162q161 0 255 451l89 427q71 341 71 478q0 62 -29 125zM864 1587q-106 -51 -196 -51q-134 0 -134 73
q0 25 10 75t10 75q0 18 -13 42q129 47 218 47q145 0 145 -111q0 -51 -40 -150zM685 1628q-202 -158 -315 -158q-39 0 -140 20q51 33 171 135q220 187 370 187q45 0 97 -11q43 -148 182 -308q-98 -23 -141 -23q-91 0 -224 158z" />
    <glyph glyph-name="Kcedilla" unicode="&#x136;" horiz-adv-x="1536" 
d="M565 47q-136 -61 -244 -61q-140 0 -140 96q0 64 27 166q241 910 241 1257q0 70 -39 131q164 84 302 84q127 0 127 -93l-54 -272l-87 -439q613 805 883 805q139 0 139 -131q0 -16 -15 -124l-53 2h-16q-126 0 -264 -99q-105 -76 -231 -220q-93 -113 -186 -225
q315 -679 564 -679h11q-46 -273 -244 -273q-184 0 -384 331q-137 225 -228 493q-118 -550 -118 -667q0 -31 9 -82zM280 -127l26 127h84l-10 -52q157 -19 157 -111q0 -178 -326 -178q-232 0 -232 58q0 22 26 69q63 -21 160 -21q174 0 174 64q0 39 -59 44z" />
    <glyph glyph-name="kcedilla" unicode="&#x137;" horiz-adv-x="1286" 
d="M648 755q414 610 630 610q119 0 139 -233q-207 0 -497 -360q55 -178 169 -346q141 -208 283 -242q-141 -198 -274 -198q-203 0 -463 701q-99 -463 -99 -586q0 -36 12 -84q-98 -31 -190 -31q-176 0 -176 122q0 76 29 199q16 66 46 197l145 726q43 215 43 335q0 38 -11 86
q114 69 221 69q155 0 155 -131q0 -82 -162 -834zM301 -127l26 127h84l-10 -52q157 -19 157 -111q0 -178 -326 -178q-232 0 -232 58q0 22 26 69q63 -21 160 -21q174 0 174 64q0 39 -59 44z" />
    <glyph glyph-name="Lacute" unicode="&#x139;" horiz-adv-x="1195" 
d="M579 274q143 -24 234 -24q220 0 416 81v-7q0 -218 -180 -291q-111 -45 -373 -45q-42 0 -125 5.5t-125 5.5q-19 0 -57 -8.5t-57 -8.5q-135 0 -135 92q0 70 30 182q242 900 242 1249q0 71 -38 128q150 88 303 88q125 0 125 -91q0 -4 -54 -275l-168 -844q-29 -144 -38 -237z
M553 1881q68 74 207 220q116 118 262 118q136 0 246 -25q-79 -31 -203 -120q-275 -197 -415 -197q-22 0 -97 4z" />
    <glyph glyph-name="lacute" unicode="&#x13a;" horiz-adv-x="680" 
d="M431 1669q135 51 251 51q152 0 152 -116q0 -74 -31 -191l-49 -188l-134 -674q-39 -196 -39 -300q0 -113 60 -192q-116 -73 -225 -73q-196 0 -196 181q0 86 50 337l137 688q53 266 53 352q0 63 -29 125zM498 1881q68 74 207 220q116 118 262 118q136 0 246 -25
q-79 -31 -203 -120q-275 -197 -415 -197q-22 0 -97 4z" />
    <glyph glyph-name="Lcedilla" unicode="&#x13b;" horiz-adv-x="1195" 
d="M579 274q143 -24 234 -24q220 0 416 81v-7q0 -218 -180 -291q-111 -45 -373 -45q-42 0 -125 5.5t-125 5.5q-19 0 -57 -8.5t-57 -8.5q-135 0 -135 92q0 70 30 182q242 900 242 1249q0 71 -38 128q150 88 303 88q125 0 125 -91q0 -4 -54 -275l-168 -844q-29 -144 -38 -237z
M612 -127l26 127h84l-10 -52q157 -19 157 -111q0 -178 -326 -178q-232 0 -232 58q0 22 26 69q63 -21 160 -21q174 0 174 64q0 39 -59 44z" />
    <glyph glyph-name="lcedilla" unicode="&#x13c;" horiz-adv-x="680" 
d="M431 1669q135 51 251 51q152 0 152 -116q0 -74 -31 -191l-49 -188l-134 -674q-39 -196 -39 -300q0 -113 60 -192q-116 -73 -225 -73q-196 0 -196 181q0 86 50 337l137 688q53 266 53 352q0 63 -29 125zM351 -127l26 127h84l-10 -52q157 -19 157 -111q0 -178 -326 -178
q-232 0 -232 58q0 22 26 69q63 -21 160 -21q174 0 174 64q0 39 -59 44z" />
    <glyph glyph-name="Lcaron" unicode="&#x13d;" horiz-adv-x="1195" 
d="M579 274q143 -24 234 -24q220 0 416 81v-7q0 -218 -180 -291q-111 -45 -373 -45q-42 0 -125 5.5t-125 5.5q-19 0 -57 -8.5t-57 -8.5q-135 0 -135 92q0 70 30 182q242 900 242 1249q0 71 -38 128q150 88 303 88q125 0 125 -91q0 -4 -54 -275l-168 -844q-29 -144 -38 -237z
M852 1228q29 -8 60 -8q239 0 239 238q0 96 -90 176q136 87 280 87q139 0 139 -141q0 -181 -176 -336q-170 -150 -354 -150q-104 0 -104 77q0 17 6 57z" />
    <glyph glyph-name="lcaron" unicode="&#x13e;" horiz-adv-x="1110" 
d="M431 1669q135 51 251 51q152 0 152 -116q0 -74 -31 -191l-49 -188l-134 -674q-39 -196 -39 -300q0 -113 60 -192q-116 -73 -225 -73q-196 0 -196 181q0 86 50 337l137 688q53 266 53 352q0 63 -29 125zM831 1228q29 -8 60 -8q239 0 239 238q0 96 -90 176q136 87 280 87
q139 0 139 -141q0 -181 -176 -336q-170 -150 -354 -150q-104 0 -104 77q0 17 6 57z" />
    <glyph glyph-name="Ldotaccent" unicode="&#x13f;" horiz-adv-x="1195" 
d="M579 274q143 -24 234 -24q220 0 416 81v-7q0 -218 -180 -291q-111 -45 -373 -45q-42 0 -125 5.5t-125 5.5q-19 0 -57 -8.5t-57 -8.5q-135 0 -135 92q0 70 30 182q242 900 242 1249q0 71 -38 128q150 88 303 88q125 0 125 -91q0 -4 -54 -275l-168 -844q-29 -144 -38 -237z
M851 995q116 32 198 32q163 0 163 -126q0 -44 -24 -174q-125 -47 -219 -47q-125 0 -125 85q0 25 10.5 75t10.5 76q0 35 -14 79z" />
    <glyph glyph-name="ldotaccent" unicode="&#x140;" horiz-adv-x="1055" 
d="M431 1669q135 51 251 51q152 0 152 -116q0 -74 -31 -191l-49 -188l-134 -674q-39 -196 -39 -300q0 -113 60 -192q-116 -73 -225 -73q-196 0 -196 181q0 86 50 337l137 688q53 266 53 352q0 63 -29 125zM782 840q116 32 198 32q163 0 163 -126q0 -44 -24 -174
q-125 -47 -219 -47q-125 0 -125 85q0 25 10.5 75t10.5 76q0 35 -14 79z" />
    <glyph glyph-name="Lslash" unicode="&#x141;" horiz-adv-x="1195" 
d="M579 274q143 -24 234 -24q222 0 415 81q0 -221 -177 -296q-112 -47 -375 -47q-42 0 -125 5.5t-125 5.5q-19 0 -57 -8.5t-57 -8.5q-135 0 -135 92q0 62 63 333l83 359q-73 -26 -211 -93q-8 40 -8 66q0 103 81 155q36 22 177 68l56 270q31 149 31 274q0 70 -38 127
q150 88 303 88q125 0 125 -91q0 -72 -108 -544q134 43 280 120q15 -63 15 -98q0 -90 -129 -148q-102 -33 -204 -67q-102 -491 -114 -619z" />
    <glyph glyph-name="lslash" unicode="&#x142;" horiz-adv-x="683" 
d="M640 59q-116 -73 -225 -73q-195 0 -195 181q0 135 96 572l-118 -42q-65 -23 -111 -58l-1 49v10q0 115 78 165q30 20 190 70l66 302q39 178 39 309q0 63 -29 125q135 51 251 51q153 0 153 -116q0 -52 -19 -127q-54 -213 -93 -412q108 35 189 88q13 -53 13 -88
q0 -117 -241 -195q-103 -474 -103 -618q0 -114 60 -193z" />
    <glyph glyph-name="Nacute" unicode="&#x143;" horiz-adv-x="1536" 
d="M533 56q-150 -70 -253 -70q-142 0 -142 129q0 58 145 618l125 483q59 228 59 272q0 48 -42 96q176 137 306 137q112 0 181 -316q154 -705 292 -1053l119 548q79 380 79 567q0 94 -53 180q129 73 240 73q149 0 149 -117q0 -78 -35 -202l-58 -205q-29 -101 -167 -653
q-5 -21 -47 -184q-29 -113 -29 -188q0 -25 12 -71q-161 -114 -274 -114q-114 0 -235 272q-88 197 -179 536q-48 187 -95 375q-175 -729 -175 -891q0 -129 77 -222zM977 1881q68 74 207 220q116 118 262 118q136 0 246 -25q-79 -31 -203 -120q-275 -197 -415 -197
q-22 0 -97 4z" />
    <glyph glyph-name="nacute" unicode="&#x144;" 
d="M668 848q269 545 547 545q211 0 211 -214q0 -156 -73.5 -459.5t-73.5 -459.5q0 -123 60 -201q-115 -73 -227 -73q-188 0 -188 181q0 134 40 332q101 499 101 549q0 55 -34 55q-100 0 -306 -436q-198 -419 -198 -562q0 -38 17 -91q-102 -28 -197 -28q-172 0 -172 124
q0 62 25 162l40 160q141 564 141 796q0 55 -20 104q133 47 230 47q153 0 153 -127q0 -70 -76 -404zM761 1540q68 74 207 220q116 118 262 118q136 0 246 -25q-79 -31 -203 -120q-275 -197 -415 -197q-22 0 -97 4z" />
    <glyph glyph-name="Ncedilla" unicode="&#x145;" horiz-adv-x="1536" 
d="M533 56q-150 -70 -253 -70q-142 0 -142 129q0 58 145 618l125 483q59 228 59 272q0 48 -42 96q176 137 306 137q112 0 181 -316q154 -705 292 -1053l119 548q79 380 79 567q0 94 -53 180q129 73 240 73q149 0 149 -117q0 -78 -35 -202l-58 -205q-29 -101 -167 -653
q-5 -21 -47 -184q-29 -113 -29 -188q0 -25 12 -71q-161 -114 -274 -114q-114 0 -235 272q-88 197 -179 536q-48 187 -95 375q-175 -729 -175 -891q0 -129 77 -222zM224 -127l26 127h84l-10 -52q157 -19 157 -111q0 -178 -326 -178q-232 0 -232 58q0 22 26 69q63 -21 160 -21
q174 0 174 64q0 39 -59 44z" />
    <glyph glyph-name="ncedilla" unicode="&#x146;" 
d="M668 848q269 545 547 545q211 0 211 -214q0 -156 -73.5 -459.5t-73.5 -459.5q0 -123 60 -201q-115 -73 -227 -73q-188 0 -188 181q0 134 40 332q101 499 101 549q0 55 -34 55q-100 0 -306 -436q-198 -419 -198 -562q0 -38 17 -91q-102 -28 -197 -28q-172 0 -172 124
q0 62 25 162l40 160q141 564 141 796q0 55 -20 104q133 47 230 47q153 0 153 -127q0 -70 -76 -404zM297 -127l26 127h84l-10 -52q157 -19 157 -111q0 -178 -326 -178q-232 0 -232 58q0 22 26 69q63 -21 160 -21q174 0 174 64q0 39 -59 44z" />
    <glyph glyph-name="Ncaron" unicode="&#x147;" horiz-adv-x="1536" 
d="M533 56q-150 -70 -253 -70q-142 0 -142 129q0 58 145 618l125 483q59 228 59 272q0 48 -42 96q176 137 306 137q112 0 181 -316q154 -705 292 -1053l119 548q79 380 79 567q0 94 -53 180q129 73 240 73q149 0 149 -117q0 -78 -35 -202l-58 -205q-29 -101 -167 -653
q-5 -21 -47 -184q-29 -113 -29 -188q0 -25 12 -71q-161 -114 -274 -114q-114 0 -235 272q-88 197 -179 536q-48 187 -95 375q-175 -729 -175 -891q0 -129 77 -222zM1215 2061q193 158 315 158q33 0 140 -20q-400 -322 -541 -322q-46 0 -97 11q-43 148 -182 308q98 23 142 23
q92 0 223 -158z" />
    <glyph glyph-name="ncaron" unicode="&#x148;" 
d="M668 848q269 545 547 545q211 0 211 -214q0 -156 -73.5 -459.5t-73.5 -459.5q0 -123 60 -201q-115 -73 -227 -73q-188 0 -188 181q0 134 40 332q101 499 101 549q0 55 -34 55q-100 0 -306 -436q-198 -419 -198 -562q0 -38 17 -91q-102 -28 -197 -28q-172 0 -172 124
q0 62 25 162l40 160q141 564 141 796q0 55 -20 104q133 47 230 47q153 0 153 -127q0 -70 -76 -404zM965 1720q193 158 315 158q33 0 140 -20q-400 -322 -541 -322q-46 0 -97 11q-43 148 -182 308q98 23 142 23q92 0 223 -158z" />
    <glyph glyph-name="ncommaaccent" unicode="&#x149;" 
d="M668 848q269 545 547 545q211 0 211 -214q0 -156 -73.5 -459.5t-73.5 -459.5q0 -123 60 -201q-115 -73 -227 -73q-188 0 -188 181q0 134 40 332q101 499 101 549q0 55 -34 55q-100 0 -306 -436q-198 -419 -198 -562q0 -38 17 -91q-102 -28 -197 -28q-172 0 -172 124
q0 62 25 162l40 160q141 564 141 796q0 55 -20 104q133 47 230 47q153 0 153 -127q0 -70 -76 -404zM290 1630q32 -9 60 -9q239 0 239 239q0 96 -90 176q137 86 279 86q140 0 140 -140q0 -181 -176 -337q-170 -150 -354 -150q-104 0 -104 78q0 16 6 57z" />
    <glyph glyph-name="Omacron" unicode="&#x14c;" 
d="M577 -41q-395 0 -395 523q0 252 116 541q123 309 320 503q226 222 488 222q417 0 417 -521q0 -262 -117 -551q-124 -308 -326 -499q-231 -218 -503 -218zM715 146q196 0 325 478q98 365 98 644q0 293 -148 293q-195 0 -324 -478q-99 -366 -99 -644q0 -293 148 -293z
M865 2089q80 -25 267 -25h133q172 0 255 24q-6 -211 -296 -211h-122q-269 0 -269 89q0 38 32 123z" />
    <glyph glyph-name="omacron" unicode="&#x14d;" horiz-adv-x="1300" 
d="M639 -27q-214 0 -340.5 132t-126.5 347q0 341 210 627q229 314 558 314q208 0 335 -136q124 -132 124 -342q0 -336 -208 -625q-228 -317 -552 -317zM708 175q157 0 248 314q67 231 67 443q0 258 -154 258q-162 0 -254 -313q-67 -228 -67 -444q0 -258 160 -258zM715 1748
q80 -25 267 -25h133q172 0 255 24q-6 -211 -296 -211h-122q-269 0 -269 89q0 38 32 123z" />
    <glyph glyph-name="Obreve" unicode="&#x14e;" 
d="M577 -41q-395 0 -395 523q0 252 116 541q123 309 320 503q226 222 488 222q417 0 417 -521q0 -262 -117 -551q-124 -308 -326 -499q-231 -218 -503 -218zM715 146q196 0 325 478q98 365 98 644q0 293 -148 293q-195 0 -324 -478q-99 -366 -99 -644q0 -293 148 -293z
M1349 2171q145 -10 145 -63q0 -116 -162 -193q-134 -65 -264 -65q-345 0 -345 211q0 99 177 108q-5 -32 -5 -50q0 -109 200 -109q232 0 254 161z" />
    <glyph glyph-name="obreve" unicode="&#x14f;" horiz-adv-x="1300" 
d="M639 -27q-214 0 -340.5 132t-126.5 347q0 341 210 627q229 314 558 314q208 0 335 -136q124 -132 124 -342q0 -336 -208 -625q-228 -317 -552 -317zM708 175q157 0 248 314q67 231 67 443q0 258 -154 258q-162 0 -254 -313q-67 -228 -67 -444q0 -258 160 -258zM1240 1816
q145 -10 145 -63q0 -116 -162 -193q-134 -65 -264 -65q-345 0 -345 211q0 99 177 108q-5 -32 -5 -50q0 -109 200 -109q232 0 254 161z" />
    <glyph glyph-name="Ohungarumlaut" unicode="&#x150;" 
d="M577 -41q-395 0 -395 523q0 252 116 541q123 309 320 503q226 222 488 222q417 0 417 -521q0 -262 -117 -551q-124 -308 -326 -499q-231 -218 -503 -218zM715 146q196 0 325 478q98 365 98 644q0 293 -148 293q-195 0 -324 -478q-99 -366 -99 -644q0 -293 148 -293z
M848 1877q22 17 189 185q156 156 308 156h78l-231 -190q-173 -142 -344 -151zM1201 1878q24 23 188 185q157 155 308 155h79l-232 -190q-175 -143 -343 -150z" />
    <glyph glyph-name="ohungarumlaut" unicode="&#x151;" horiz-adv-x="1300" 
d="M639 -27q-214 0 -340.5 132t-126.5 347q0 341 210 627q229 314 558 314q208 0 335 -136q124 -132 124 -342q0 -336 -208 -625q-228 -317 -552 -317zM708 175q157 0 248 314q67 231 67 443q0 258 -154 258q-162 0 -254 -313q-67 -228 -67 -444q0 -258 160 -258zM625 1536
q22 17 189 185q156 156 308 156h78l-231 -190q-173 -142 -344 -151zM978 1537q24 23 188 185q157 155 308 155h79l-232 -190q-175 -143 -343 -150z" />
    <glyph glyph-name="OE" unicode="&#x152;" horiz-adv-x="1877" 
d="M1348 1683q131 28 394 32q268 5 396 30q-56 -261 -282 -261q-43 0 -147 6q-69 4 -114 4q-18 0 -33 -1l-100 -501h36q184 0 364 57q-15 -189 -138 -243q-75 -32 -305 -32q-34 -169 -91 -511q120 -24 245 -24q175 0 316 53v-21q0 -282 -444 -282q-45 0 -134.5 5.5
t-134.5 5.5q-19 0 -57 -8.5t-57 -8.5q-114 0 -133 74q-168 -98 -330 -98q-417 0 -417 520q0 252 115 542q124 310 321 504q225 223 487 223q148 0 243 -65zM715 146q196 0 325 478q98 365 98 644q0 293 -148 293q-195 0 -324 -478q-99 -366 -99 -644q0 -293 148 -293z" />
    <glyph glyph-name="oe" unicode="&#x153;" horiz-adv-x="1972" 
d="M1311 1210q223 183 471 183q292 0 292 -246q0 -280 -241 -440q-205 -137 -503 -145q-10 -90 -10 -134q0 -253 205 -253q186 0 436 195q25 -57 25 -91q0 -146 -230 -236q-181 -71 -355 -71q-261 0 -385 133q-173 -132 -386 -132q-208 0 -335 136q-123 133 -123 343
q0 341 209 627q229 314 558 314q221 0 372 -183zM708 175q157 0 248 314q67 231 67 443q0 258 -154 258q-162 0 -254 -313q-67 -228 -67 -444q0 -258 160 -258zM1349 735q394 7 394 337q0 139 -100 139q-189 0 -294 -476z" />
    <glyph glyph-name="Racute" unicode="&#x154;" horiz-adv-x="1474" 
d="M1052 862l102 -304q104 -311 342 -382q-94 -203 -287 -203q-182 0 -306 314q-36 92 -130 466q-43 -9 -131 -24l-60 -290q-34 -164 -34 -296q0 -46 21 -92q-148 -65 -258 -65q-130 0 -130 95q0 64 27 167q237 908 237 1243q0 61 -29 116q268 141 653 141q468 0 468 -309
q0 -339 -485 -577zM680 921q495 61 495 457q0 194 -204 194q-68 0 -166 -26zM838 1881q68 74 207 220q116 118 262 118q136 0 246 -25q-79 -31 -203 -120q-275 -197 -415 -197q-22 0 -97 4z" />
    <glyph glyph-name="racute" unicode="&#x155;" horiz-adv-x="1024" 
d="M544 16q-94 -28 -198 -28q-170 0 -170 123q0 69 63 322q142 571 142 797q0 50 -21 101q133 47 230 47q154 0 154 -127q0 -82 -77 -403q298 542 499 542q107 0 107 -101q0 -192 -183 -403q-47 68 -86 68q-135 0 -313 -356q-164 -329 -164 -491q0 -38 17 -91zM702 1540
q68 74 207 220q116 118 262 118q136 0 246 -25q-79 -31 -203 -120q-275 -197 -415 -197q-22 0 -97 4z" />
    <glyph glyph-name="Rcedilla" unicode="&#x156;" horiz-adv-x="1474" 
d="M1052 862l102 -304q104 -311 342 -382q-94 -203 -287 -203q-182 0 -306 314q-36 92 -130 466q-43 -9 -131 -24l-60 -290q-34 -164 -34 -296q0 -46 21 -92q-148 -65 -258 -65q-130 0 -130 95q0 64 27 167q237 908 237 1243q0 61 -29 116q268 141 653 141q468 0 468 -309
q0 -339 -485 -577zM680 921q495 61 495 457q0 194 -204 194q-68 0 -166 -26zM253 -127l26 127h84l-10 -52q157 -19 157 -111q0 -178 -326 -178q-232 0 -232 58q0 22 26 69q63 -21 160 -21q174 0 174 64q0 39 -59 44z" />
    <glyph glyph-name="rcedilla" unicode="&#x157;" horiz-adv-x="1024" 
d="M544 16q-94 -28 -198 -28q-170 0 -170 123q0 69 63 322q142 571 142 797q0 50 -21 101q133 47 230 47q154 0 154 -127q0 -82 -77 -403q298 542 499 542q107 0 107 -101q0 -192 -183 -403q-47 68 -86 68q-135 0 -313 -356q-164 -329 -164 -491q0 -38 17 -91zM291 -127
l26 127h84l-10 -52q157 -19 157 -111q0 -178 -326 -178q-232 0 -232 58q0 22 26 69q63 -21 160 -21q174 0 174 64q0 39 -59 44z" />
    <glyph glyph-name="Rcaron" unicode="&#x158;" horiz-adv-x="1474" 
d="M1052 862l102 -304q104 -311 342 -382q-94 -203 -287 -203q-182 0 -306 314q-36 92 -130 466q-43 -9 -131 -24l-60 -290q-34 -164 -34 -296q0 -46 21 -92q-148 -65 -258 -65q-130 0 -130 95q0 64 27 167q237 908 237 1243q0 61 -29 116q268 141 653 141q468 0 468 -309
q0 -339 -485 -577zM680 921q495 61 495 457q0 194 -204 194q-68 0 -166 -26zM1061 2061q193 158 315 158q33 0 140 -20q-400 -322 -541 -322q-46 0 -97 11q-43 148 -182 308q98 23 142 23q92 0 223 -158z" />
    <glyph glyph-name="rcaron" unicode="&#x159;" horiz-adv-x="1024" 
d="M544 16q-94 -28 -198 -28q-170 0 -170 123q0 69 63 322q142 571 142 797q0 50 -21 101q133 47 230 47q154 0 154 -127q0 -82 -77 -403q298 542 499 542q107 0 107 -101q0 -192 -183 -403q-47 68 -86 68q-135 0 -313 -356q-164 -329 -164 -491q0 -38 17 -91zM911 1720
q193 158 315 158q33 0 140 -20q-400 -322 -541 -322q-46 0 -97 11q-43 148 -182 308q98 23 142 23q92 0 223 -158z" />
    <glyph glyph-name="Sacute" unicode="&#x15a;" horiz-adv-x="1234" 
d="M321 409q13 -261 283 -261q298 0 298 272q0 136 -133 241q-16 12 -247 184q-133 120 -133 277q0 278 212 457q200 169 483 169q334 0 334 -148q0 -101 -150 -202q-93 169 -303 169q-256 0 -256 -223q0 -91 164 -231l234 -176q139 -136 139 -309q0 -284 -245 -482
q-231 -187 -521 -187q-125 0 -244 41q-161 56 -161 157q0 148 246 252zM920 1881q68 74 207 220q116 118 262 118q136 0 246 -25q-79 -31 -203 -120q-275 -197 -415 -197q-22 0 -97 4z" />
    <glyph glyph-name="sacute" unicode="&#x15b;" horiz-adv-x="1057" 
d="M264 383q74 -232 256 -232q185 0 185 192q0 101 -298 322q-104 100 -104 242q0 232 168 364q154 122 392 122q307 0 307 -117q0 -102 -144 -207q-123 164 -235 164q-158 0 -158 -168q0 -88 107 -167l197 -145q107 -103 107 -251q0 -254 -185 -397q-168 -132 -429 -132
q-347 0 -347 165q0 124 181 245zM713 1540q68 74 207 220q116 118 262 118q136 0 246 -25q-79 -31 -203 -120q-275 -197 -415 -197q-22 0 -97 4z" />
    <glyph glyph-name="Scircumflex" unicode="&#x15c;" horiz-adv-x="1234" 
d="M321 409q13 -261 283 -261q298 0 298 272q0 136 -133 241q-16 12 -247 184q-133 120 -133 277q0 278 212 457q200 169 483 169q334 0 334 -148q0 -101 -150 -202q-93 169 -303 169q-256 0 -256 -223q0 -91 164 -231l234 -176q139 -136 139 -309q0 -284 -245 -482
q-231 -187 -521 -187q-125 0 -244 41q-161 56 -161 157q0 148 246 252zM998 2008q-202 -158 -315 -158q-39 0 -140 20q51 33 171 135q220 187 370 187q45 0 97 -11q43 -148 182 -308q-98 -23 -141 -23q-91 0 -224 158z" />
    <glyph glyph-name="scircumflex" unicode="&#x15d;" horiz-adv-x="1057" 
d="M264 383q74 -232 256 -232q185 0 185 192q0 101 -298 322q-104 100 -104 242q0 232 168 364q154 122 392 122q307 0 307 -117q0 -102 -144 -207q-123 164 -235 164q-158 0 -158 -168q0 -88 107 -167l197 -145q107 -103 107 -251q0 -254 -185 -397q-168 -132 -429 -132
q-347 0 -347 165q0 124 181 245zM811 1653q-202 -158 -315 -158q-39 0 -140 20q51 33 171 135q220 187 370 187q45 0 97 -11q43 -148 182 -308q-98 -23 -141 -23q-91 0 -224 158z" />
    <glyph glyph-name="Scedilla" unicode="&#x15e;" horiz-adv-x="1234" 
d="M321 409q13 -261 283 -261q298 0 298 272q0 136 -133 241q-16 12 -247 184q-133 120 -133 277q0 278 212 457q200 169 483 169q334 0 334 -148q0 -101 -150 -202q-93 169 -303 169q-256 0 -256 -223q0 -91 164 -231l234 -176q139 -136 139 -309q0 -284 -245 -482
q-231 -187 -521 -187q-125 0 -244 41q-161 56 -161 157q0 148 246 252zM443 -127l26 127h84l-10 -52q157 -19 157 -111q0 -178 -326 -178q-232 0 -232 58q0 22 26 69q63 -21 160 -21q174 0 174 64q0 39 -59 44z" />
    <glyph glyph-name="scedilla" unicode="&#x15f;" horiz-adv-x="1057" 
d="M264 383q74 -232 256 -232q185 0 185 192q0 101 -298 322q-104 100 -104 242q0 232 168 364q154 122 392 122q307 0 307 -117q0 -102 -144 -207q-123 164 -235 164q-158 0 -158 -168q0 -88 107 -167l197 -145q107 -103 107 -251q0 -254 -185 -397q-168 -132 -429 -132
q-347 0 -347 165q0 124 181 245zM386 -127l26 127h84l-10 -52q157 -19 157 -111q0 -178 -326 -178q-232 0 -232 58q0 22 26 69q63 -21 160 -21q174 0 174 64q0 39 -59 44z" />
    <glyph glyph-name="Scaron" unicode="&#x160;" horiz-adv-x="1234" 
d="M321 409q13 -261 283 -261q298 0 298 272q0 136 -133 241q-16 12 -247 184q-133 120 -133 277q0 278 212 457q200 169 483 169q334 0 334 -148q0 -101 -150 -202q-93 169 -303 169q-256 0 -256 -223q0 -91 164 -231l234 -176q139 -136 139 -309q0 -284 -245 -482
q-231 -187 -521 -187q-125 0 -244 41q-161 56 -161 157q0 148 246 252zM1125 2061q193 158 315 158q33 0 140 -20q-400 -322 -541 -322q-46 0 -97 11q-43 148 -182 308q98 23 142 23q92 0 223 -158z" />
    <glyph glyph-name="scaron" unicode="&#x161;" horiz-adv-x="1057" 
d="M264 383q74 -232 256 -232q185 0 185 192q0 101 -298 322q-104 100 -104 242q0 232 168 364q154 122 392 122q307 0 307 -117q0 -102 -144 -207q-123 164 -235 164q-158 0 -158 -168q0 -88 107 -167l197 -145q107 -103 107 -251q0 -254 -185 -397q-168 -132 -429 -132
q-347 0 -347 165q0 124 181 245zM885 1720q193 158 315 158q33 0 140 -20q-400 -322 -541 -322q-46 0 -97 11q-43 148 -182 308q98 23 142 23q92 0 223 -158z" />
    <glyph glyph-name="Tcedilla" unicode="&#x162;" horiz-adv-x="1024" 
d="M609 1465h-39q-142 0 -284 -82q-17 65 -17 107q0 227 214 227q42 0 126.5 -5t126.5 -5h324q173 0 340 50l1 -34v-9q0 -96 -60 -175q-66 -86 -159 -86q-34 0 -114 7q-57 5 -93 5h-21l-201 -1009q-40 -201 -40 -312q0 -46 21 -93q-154 -65 -267 -65q-139 0 -139 95
q0 70 40 230l59 238zM418 -127l26 127h84l-10 -52q157 -19 157 -111q0 -178 -326 -178q-232 0 -232 58q0 22 26 69q63 -21 160 -21q174 0 174 64q0 39 -59 44z" />
    <glyph glyph-name="tcedilla" unicode="&#x163;" horiz-adv-x="1024" 
d="M414 981h-45q-114 0 -224 -44q-5 48 -5 70q0 130 98 165q49 18 217 18q54 275 54 354q0 63 -29 125q136 51 251 51q152 0 152 -116q0 -73 -34 -207l-52 -207h110q133 0 289 30q-13 -242 -279 -242q-27 0 -81 1.5t-81 1.5q-92 -438 -92 -589q0 -158 116 -158
q102 0 242 102q33 -64 33 -113q0 -116 -152 -189q-124 -59 -254 -59q-332 0 -332 327q0 215 98 679zM588 -127l26 127h84l-10 -52q157 -19 157 -111q0 -178 -326 -178q-232 0 -232 58q0 22 26 69q63 -21 160 -21q174 0 174 64q0 39 -59 44z" />
    <glyph glyph-name="Tcaron" unicode="&#x164;" horiz-adv-x="1024" 
d="M608 1465h-39q-142 0 -284 -82q-17 65 -17 107q0 227 214 227q42 0 126.5 -5t126.5 -5h324q173 0 340 50l1 -34v-9q0 -96 -60 -175q-66 -86 -159 -86q-34 0 -114 7q-57 5 -93 5h-21l-201 -1009q-40 -201 -40 -312q0 -46 21 -93q-154 -65 -267 -65q-139 0 -139 95
q0 70 40 230l59 238zM906 2061q193 158 315 158q33 0 140 -20q-400 -322 -541 -322q-46 0 -97 11q-43 148 -182 308q98 23 142 23q92 0 223 -158z" />
    <glyph glyph-name="tcaron" unicode="&#x165;" horiz-adv-x="1421" 
d="M414 981h-45q-114 0 -224 -44q-5 48 -5 70q0 130 98 165q49 18 217 18q54 275 54 354q0 63 -29 125q136 51 251 51q152 0 152 -116q0 -73 -34 -207l-52 -207h110q133 0 289 30q-13 -242 -279 -242q-27 0 -81 1.5t-81 1.5q-92 -438 -92 -589q0 -158 116 -158
q102 0 242 102q33 -64 33 -113q0 -116 -152 -189q-124 -59 -254 -59q-332 0 -332 327q0 215 98 679zM954 1560q206 27 206 236q0 160 -167 219q141 204 299 204q131 0 131 -223q0 -165 -112 -342q-124 -196 -280 -196q-49 0 -77 102z" />
    <glyph glyph-name="Tbar" unicode="&#x166;" horiz-adv-x="1024" 
d="M608 1465h-39q-142 0 -284 -82q-17 65 -17 107q0 227 214 227q42 0 126.5 -5t126.5 -5h324q173 0 340 50l1 -34v-9q0 -96 -60 -175q-66 -86 -159 -86q-34 0 -114 7q-57 5 -93 5h-21l-201 -1009q-40 -201 -40 -312q0 -46 21 -93q-154 -65 -267 -65q-139 0 -139 95
q0 70 40 230l59 238zM338 977q80 -25 267 -25h133q172 0 255 24q-6 -211 -296 -211h-122q-269 0 -269 89q0 38 32 123z" />
    <glyph glyph-name="tbar" unicode="&#x167;" horiz-adv-x="1024" 
d="M414 981h-45q-114 0 -224 -44q-5 48 -5 70q0 130 98 165q49 18 217 18q54 275 54 354q0 63 -29 125q136 51 251 51q152 0 152 -116q0 -73 -34 -207l-52 -207h110q133 0 289 30q-13 -242 -279 -242q-27 0 -81 1.5t-81 1.5q-92 -438 -92 -589q0 -158 116 -158
q102 0 242 102q33 -64 33 -113q0 -116 -152 -189q-124 -59 -254 -59q-332 0 -332 327q0 215 98 679zM275 887q80 -25 267 -25h133q172 0 255 24q-6 -211 -296 -211h-122q-269 0 -269 89q0 38 32 123z" />
    <glyph glyph-name="Utilde" unicode="&#x168;" 
d="M353 1633q150 88 302 88q126 0 126 -91q0 -5 -54 -275l-143 -714q-37 -185 -37 -275q0 -169 129 -169q135 0 289 209l174 874q38 191 38 312q0 31 -7 81q118 47 231 47q159 0 159 -108q0 -57 -25 -148q-204 -744 -204 -1072q0 -139 91 -245q-192 -161 -325 -161
q-132 0 -153 186q-160 -213 -391 -213q-351 0 -351 399q0 193 94.5 572.5t94.5 573.5q0 72 -38 129zM646 1826q-22 -3 -36 -3q-81 0 -81 106q0 111 73 201q78 96 186 96q77 0 256 -109.5t224 -109.5q105 0 105 193q0 11 -1 23q25 3 35 3q81 0 81 -106q0 -111 -73 -201
q-77 -96 -185 -96q-78 0 -256.5 109.5t-223.5 109.5q-106 0 -106 -186q0 -17 2 -30z" />
    <glyph glyph-name="utilde" unicode="&#x169;" 
d="M1094 1351q95 28 196 28q172 0 172 -124q0 -68 -24 -162l-41 -160q-93 -363 -93 -620q0 -144 52 -251q-90 -76 -203 -76q-211 0 -211 232q0 125 28 299q-272 -545 -547 -545q-211 0 -211 215q0 176 84.5 521t84.5 521q0 54 -21 103q133 47 231 47q153 0 153 -127
q0 -43 -28 -166q-143 -631 -143 -768q0 -55 33 -55q99 0 306 436q199 419 199 561q0 38 -17 91zM578 1484q-22 -3 -36 -3q-81 0 -81 106q0 111 73 201q78 96 186 96q77 0 256 -109.5t224 -109.5q105 0 105 193q0 11 -1 23q25 3 35 3q81 0 81 -106q0 -111 -73 -201
q-77 -96 -185 -96q-78 0 -256.5 109.5t-223.5 109.5q-106 0 -106 -186q0 -17 2 -30z" />
    <glyph glyph-name="Umacron" unicode="&#x16a;" 
d="M353 1633q150 88 302 88q126 0 126 -91q0 -5 -54 -275l-143 -714q-37 -185 -37 -275q0 -169 129 -169q135 0 289 209l174 874q38 191 38 312q0 31 -7 81q118 47 231 47q159 0 159 -108q0 -57 -25 -148q-204 -744 -204 -1072q0 -139 91 -245q-192 -161 -325 -161
q-132 0 -153 186q-160 -213 -391 -213q-351 0 -351 399q0 193 94.5 572.5t94.5 573.5q0 72 -38 129zM708 2089q80 -25 267 -25h133q172 0 255 24q-6 -211 -296 -211h-122q-269 0 -269 89q0 38 32 123z" />
    <glyph glyph-name="umacron" unicode="&#x16b;" 
d="M1094 1351q95 28 196 28q172 0 172 -124q0 -68 -24 -162l-41 -160q-93 -363 -93 -620q0 -144 52 -251q-90 -76 -203 -76q-211 0 -211 232q0 125 28 299q-272 -545 -547 -545q-211 0 -211 215q0 176 84.5 521t84.5 521q0 54 -21 103q133 47 231 47q153 0 153 -127
q0 -43 -28 -166q-143 -631 -143 -768q0 -55 33 -55q99 0 306 436q199 419 199 561q0 38 -17 91zM652 1748q80 -25 267 -25h133q172 0 255 24q-6 -211 -296 -211h-122q-269 0 -269 89q0 38 32 123z" />
    <glyph glyph-name="Ubreve" unicode="&#x16c;" 
d="M353 1633q150 88 302 88q126 0 126 -91q0 -5 -54 -275l-143 -714q-37 -185 -37 -275q0 -169 129 -169q135 0 289 209l174 874q38 191 38 312q0 31 -7 81q118 47 231 47q159 0 159 -108q0 -57 -25 -148q-204 -744 -204 -1072q0 -139 91 -245q-192 -161 -325 -161
q-132 0 -153 186q-160 -213 -391 -213q-351 0 -351 399q0 193 94.5 572.5t94.5 573.5q0 72 -38 129zM1240 2144q145 -10 145 -63q0 -116 -162 -193q-134 -65 -264 -65q-345 0 -345 211q0 99 177 108q-5 -32 -5 -50q0 -109 200 -109q232 0 254 161z" />
    <glyph glyph-name="ubreve" unicode="&#x16d;" 
d="M1094 1351q95 28 196 28q172 0 172 -124q0 -68 -24 -162l-41 -160q-93 -363 -93 -620q0 -144 52 -251q-90 -76 -203 -76q-211 0 -211 232q0 125 28 299q-272 -545 -547 -545q-211 0 -211 215q0 176 84.5 521t84.5 521q0 54 -21 103q133 47 231 47q153 0 153 -127
q0 -43 -28 -166q-143 -631 -143 -768q0 -55 33 -55q99 0 306 436q199 419 199 561q0 38 -17 91zM1222 1802q145 -10 145 -63q0 -116 -162 -193q-134 -65 -264 -65q-345 0 -345 211q0 99 177 108q-5 -32 -5 -50q0 -109 200 -109q232 0 254 161z" />
    <glyph glyph-name="Uring" unicode="&#x16e;" 
d="M1422 147q-192 -161 -325 -161q-132 0 -153 186q-160 -213 -391 -213q-351 0 -351 399q0 193 94.5 572.5t94.5 573.5q0 73 -38 129q150 89 287 89q33 0 65 -6q-5 23 -5 44q0 340 393 459q21 -35 21 -70q0 -10 -2 -20q197 -84 197 -255q0 -83 -54 -173q81 19 147 19
q158 0 158 -108q0 -57 -25 -148q-204 -744 -204 -1072q0 -139 91 -245zM1176 1615q-112 -73 -217 -73q-103 0 -180 52q-232 -1118 -232 -1228q0 -169 129 -169q135 0 289 209l174 874q39 196 39 292q0 -1 -1 21zM1045 2031q-157 -74 -157 -231q0 -110 104 -110
q169 0 169 186q0 112 -116 155z" />
    <glyph glyph-name="uring" unicode="&#x16f;" 
d="M1094 1351q95 28 196 28q172 0 172 -124q0 -68 -24 -162l-41 -160q-93 -363 -93 -620q0 -144 52 -251q-90 -76 -203 -76q-211 0 -211 232q0 125 28 299q-272 -545 -547 -545q-211 0 -211 215q0 176 84.5 521t84.5 521q0 54 -21 103q133 47 231 47q153 0 153 -127
q0 -43 -28 -166q-143 -631 -143 -768q0 -55 33 -55q99 0 306 436q199 419 199 561q0 38 -17 91zM1095 2129q197 -83 197 -253q0 -140 -105 -237t-246 -97q-257 0 -257 221q0 337 392 456q21 -38 21 -70q0 -10 -2 -20zM1028 2031q-157 -74 -157 -231q0 -110 104 -110
q169 0 169 186q0 112 -116 155z" />
    <glyph glyph-name="Uhungarumlaut" unicode="&#x170;" 
d="M353 1633q150 88 302 88q126 0 126 -91q0 -5 -54 -275l-143 -714q-37 -185 -37 -275q0 -169 129 -169q135 0 289 209l174 874q38 191 38 312q0 31 -7 81q118 47 231 47q159 0 159 -108q0 -57 -25 -148q-204 -744 -204 -1072q0 -139 91 -245q-192 -161 -325 -161
q-132 0 -153 186q-160 -213 -391 -213q-351 0 -351 399q0 193 94.5 572.5t94.5 573.5q0 72 -38 129zM691 1877q22 17 189 185q156 156 308 156h78l-231 -190q-173 -142 -344 -151zM1044 1878q24 23 188 185q157 155 308 155h79l-232 -190q-175 -143 -343 -150z" />
    <glyph glyph-name="uhungarumlaut" unicode="&#x171;" 
d="M1094 1351q95 28 196 28q172 0 172 -124q0 -68 -24 -162l-41 -160q-93 -363 -93 -620q0 -144 52 -251q-90 -76 -203 -76q-211 0 -211 232q0 125 28 299q-272 -545 -547 -545q-211 0 -211 215q0 176 84.5 521t84.5 521q0 54 -21 103q133 47 231 47q153 0 153 -127
q0 -43 -28 -166q-143 -631 -143 -768q0 -55 33 -55q99 0 306 436q199 419 199 561q0 38 -17 91zM609 1536q22 17 189 185q156 156 308 156h78l-231 -190q-173 -142 -344 -151zM962 1537q24 23 188 185q157 155 308 155h79l-232 -190q-175 -143 -343 -150z" />
    <glyph glyph-name="Uogonek" unicode="&#x172;" 
d="M353 1633q150 88 302 88q126 0 126 -91q0 -5 -54 -275l-143 -714q-37 -185 -37 -275q0 -169 129 -169q135 0 289 209l174 874q38 191 38 312q0 31 -7 81q118 47 231 47q159 0 159 -108q0 -57 -25 -148q-204 -744 -204 -1072q0 -139 91 -245q-192 -161 -325 -161
q-132 0 -153 186q-160 -213 -391 -213q-351 0 -351 399q0 193 94.5 572.5t94.5 573.5q0 72 -38 129zM1184 0q-122 -93 -122 -168q0 -58 107 -58q38 0 135 27q3 -24 3 -35q0 -107 -220 -107q-208 0 -208 126q0 121 163 215h142z" />
    <glyph glyph-name="uogonek" unicode="&#x173;" 
d="M1094 1351q95 28 196 28q172 0 172 -124q0 -68 -24 -162l-41 -160q-93 -363 -93 -620q0 -144 52 -251q-90 -76 -203 -76q-211 0 -211 232q0 125 28 299q-272 -545 -547 -545q-211 0 -211 215q0 176 84.5 521t84.5 521q0 54 -21 103q133 47 231 47q153 0 153 -127
q0 -43 -28 -166q-143 -631 -143 -768q0 -55 33 -55q99 0 306 436q199 419 199 561q0 38 -17 91zM1225 0q-122 -93 -122 -168q0 -58 107 -58q38 0 135 27q3 -24 3 -35q0 -107 -220 -107q-208 0 -208 126q0 121 163 215h142z" />
    <glyph glyph-name="Wcircumflex" unicode="&#x174;" horiz-adv-x="2048" 
d="M1175 1568q157 83 258 83t101 -147q0 -176 -13 -530q-16 -432 -13 -531l3 -104q514 1100 514 1347q0 18 -1 34l74 2h22q224 0 224 -138q0 -75 -82 -238l-265 -528l-216 -392q-156 -283 -170 -378q-144 -89 -254 -89q-78 0 -112 133q-25 97 -26 265q1 98 3 195l-9 437
l-413 -831q-13 -26 -13 -59q0 -18 4 -39q-123 -101 -214 -101q-177 0 -177 307q0 23 2 76q1 50 1 77v363q-3 282 -28 464q-34 247 -108 334q170 140 280 140q174 0 174 -396q0 -26 -1.5 -79t-1.5 -79q0 -456 -11 -714q485 1002 485 1060q0 24 -17 56zM1419 1982
q-202 -158 -315 -158q-39 0 -140 20q51 33 171 135q220 187 370 187q45 0 97 -11q43 -148 182 -308q-98 -23 -141 -23q-91 0 -224 158z" />
    <glyph glyph-name="wcircumflex" unicode="&#x175;" horiz-adv-x="1664" 
d="M312 -26q20 125 20 322q0 144 -5 316q-2 117 -9 349q-10 187 -84 333q148 85 240 85q142 0 149 -222l20 -655q320 473 320 760q0 16 -2 30q98 46 190 46q129 0 129 -239q0 12 -8 -234q-2 -142 -10 -511q326 581 326 828q0 83 -30 139q126 58 234 58q107 0 107 -91
q0 -101 -239 -575q-233 -460 -326 -566q-120 -136 -343 -176q3 85 3 124q0 91 -6 341q-3 125 -3 185q0 88 3 155q-142 -359 -239 -504q-183 -273 -437 -298zM1147 1639q-202 -158 -315 -158q-39 0 -140 20q51 33 171 135q220 187 370 187q45 0 97 -11q43 -148 182 -308
q-98 -23 -141 -23q-91 0 -224 158z" />
    <glyph glyph-name="Ycircumflex" unicode="&#x176;" horiz-adv-x="1349" 
d="M598 780q-94 669 -322 790q156 172 312 172q117 0 187 -139q52 -104 81 -291l30 -252q388 688 647 688q122 0 185 -151q-176 -51 -384 -280q-120 -132 -296 -385q-199 -287 -199 -785q0 -53 21 -96q-154 -65 -267 -65q-139 0 -139 96q0 66 26 166q66 255 118 532z
M1117 2008q-202 -158 -315 -158q-39 0 -140 20q51 33 171 135q220 187 370 187q45 0 97 -11q43 -148 182 -308q-98 -23 -141 -23q-91 0 -224 158z" />
    <glyph glyph-name="ycircumflex" unicode="&#x177;" horiz-adv-x="1221" 
d="M210 1277q140 102 286 102q144 0 168 -232q25 -264 80 -740l236 408q159 275 159 433q0 41 -19 117q315 -10 315 -150q0 -146 -250 -535q-244 -382 -526 -684q-314 -337 -467 -337q-163 0 -163 111q0 81 90 204q58 -42 119 -42q150 0 254 192q-153 974 -282 1153z
M896 1639q-202 -158 -315 -158q-39 0 -140 20q51 33 171 135q220 187 370 187q45 0 97 -11q43 -148 182 -308q-98 -23 -141 -23q-91 0 -224 158z" />
    <glyph glyph-name="Ydieresis" unicode="&#x178;" horiz-adv-x="1349" 
d="M598 780q-94 669 -322 790q156 172 312 172q117 0 187 -139q52 -104 81 -291l30 -252q388 688 647 688q122 0 185 -151q-176 -51 -384 -280q-120 -132 -296 -385q-199 -287 -199 -785q0 -53 21 -96q-154 -65 -267 -65q-139 0 -139 96q0 66 26 166q66 255 118 532z
M677 2187q111 31 186 31q155 0 155 -119q0 -44 -26 -177q-118 -45 -208 -45q-114 0 -114 87q0 25 10 74t10 74q0 36 -13 75zM1190 2187q111 31 187 31q154 0 154 -119q0 -44 -26 -177q-118 -45 -208 -45q-114 0 -114 87q0 25 10 74.5t10 74.5q0 35 -13 74z" />
    <glyph glyph-name="Zacute" unicode="&#x179;" 
d="M1263 -54q-192 66 -573 66q-321 0 -566 -60q-57 89 -57 145q0 76 197 316l467 570q102 125 415 516q-216 -32 -453 -32q-195 0 -195 112q0 80 92 197q207 -70 448 -70q328 0 570 62q7 -27 7 -61q0 -130 -186 -349q-650 -767 -923 -1141q219 40 492 40q320 0 320 -135
q0 -76 -55 -176zM939 1881q68 74 207 220q116 118 262 118q136 0 246 -25q-79 -31 -203 -120q-275 -197 -415 -197q-22 0 -97 4z" />
    <glyph glyph-name="zacute" unicode="&#x17a;" horiz-adv-x="1184" 
d="M426 1393q119 -72 411 -72q263 0 483 43q-11 -145 -60 -218q-487 -564 -744 -909q43 0 127.5 2.5t127.5 2.5q20 0 60 1.5t60 1.5q253 0 253 -123q0 -85 -56 -181q-154 65 -511 65q-268 0 -468 -56q-15 63 -15 99q0 103 146 285q218 271 612 777q-185 -14 -265 -14
q-246 0 -246 105q0 80 85 191zM724 1540q68 74 207 220q116 118 262 118q136 0 246 -25q-79 -31 -203 -120q-275 -197 -415 -197q-22 0 -97 4z" />
    <glyph glyph-name="Zdotaccent" unicode="&#x17b;" 
d="M1263 -54q-192 66 -573 66q-321 0 -566 -60q-57 89 -57 145q0 76 197 316l467 570q102 125 415 516q-216 -32 -453 -32q-195 0 -195 112q0 80 92 197q207 -70 448 -70q328 0 570 62q7 -27 7 -61q0 -130 -186 -349q-650 -767 -923 -1141q219 40 492 40q320 0 320 -135
q0 -76 -55 -176zM951 2192q116 32 198 32q163 0 163 -126q0 -44 -24 -174q-125 -47 -219 -47q-125 0 -125 85q0 25 10.5 75t10.5 76q0 35 -14 79z" />
    <glyph glyph-name="zdotaccent" unicode="&#x17c;" horiz-adv-x="1184" 
d="M426 1393q119 -72 411 -72q263 0 483 43q-11 -145 -60 -218q-487 -564 -744 -909q43 0 127.5 2.5t127.5 2.5q20 0 60 1.5t60 1.5q253 0 253 -123q0 -85 -56 -181q-154 65 -511 65q-268 0 -468 -56q-15 63 -15 99q0 103 146 285q218 271 612 777q-185 -14 -265 -14
q-246 0 -246 105q0 80 85 191zM732 1851q116 32 198 32q163 0 163 -126q0 -44 -24 -174q-125 -47 -219 -47q-125 0 -125 85q0 25 10.5 75t10.5 76q0 35 -14 79z" />
    <glyph glyph-name="Zcaron" unicode="&#x17d;" 
d="M1263 -54q-192 66 -573 66q-321 0 -566 -60q-57 89 -57 145q0 76 197 316l467 570q102 125 415 516q-216 -32 -453 -32q-195 0 -195 112q0 80 92 197q207 -70 448 -70q328 0 570 62q7 -27 7 -61q0 -130 -186 -349q-650 -767 -923 -1141q219 40 492 40q320 0 320 -135
q0 -76 -55 -176zM1170 2061q193 158 315 158q33 0 140 -20q-400 -322 -541 -322q-46 0 -97 11q-43 148 -182 308q98 23 142 23q92 0 223 -158z" />
    <glyph glyph-name="zcaron" unicode="&#x17e;" horiz-adv-x="1184" 
d="M426 1393q119 -72 411 -72q263 0 483 43q-11 -145 -60 -218q-487 -564 -744 -909q43 0 127.5 2.5t127.5 2.5q20 0 60 1.5t60 1.5q253 0 253 -123q0 -85 -56 -181q-154 65 -511 65q-268 0 -468 -56q-15 63 -15 99q0 103 146 285q218 271 612 777q-185 -14 -265 -14
q-246 0 -246 105q0 80 85 191zM951 1720q193 158 315 158q33 0 140 -20q-400 -322 -541 -322q-46 0 -97 11q-43 148 -182 308q98 23 142 23q92 0 223 -158z" />
    <glyph glyph-name="florin" unicode="&#x192;" horiz-adv-x="1024" 
d="M380 848h-20q-98 0 -192 -54l-1 28v16q0 205 252 205l18 91q50 252 229 427q191 187 439 187q273 0 273 -160q0 -78 -195 -178q-30 176 -136 176q-180 0 -287 -543h89q124 0 286 34q4 -33 4 -60q0 -172 -289 -172q-22 0 -64.5 1.5t-64.5 1.5q-182 -871 -182 -1032
q0 -46 26 -104q-129 -53 -263 -53q-135 0 -135 107q0 84 30 208l50 206z" />
    <glyph glyph-name="gacute" unicode="&#x1f5;" 
d="M223 100q153 -244 379 -244q150 0 239 146q66 110 104 316l44 300q-297 -431 -544 -431q-248 0 -248 364q0 320 172 566q193 276 500 276q143 0 264 -74q38 60 146 60t228 -52q-83 -151 -131 -473l-58 -402q-44 -246 -119 -403q-97 -202 -259.5 -296.5t-376.5 -94.5
q-140 0 -309 56q-216 73 -216 183q0 124 185 203zM1076 1027q-107 158 -231 158q-149 0 -224 -233q-54 -165 -54 -354q0 -112 62 -112q169 0 447 541zM734 1499q68 74 207 220q116 118 262 118q136 0 246 -25q-79 -31 -203 -120q-275 -197 -415 -197q-22 0 -97 4z" />
    <glyph glyph-name="circumflex" unicode="&#x2c6;" horiz-adv-x="1024" 
d="M867 1694q-202 -158 -315 -158q-39 0 -140 20q51 33 171 135q220 187 370 187q45 0 97 -11q43 -148 182 -308q-98 -23 -141 -23q-91 0 -224 158z" />
    <glyph glyph-name="caron" unicode="&#x2c7;" horiz-adv-x="1024" 
d="M836 1720q193 158 315 158q33 0 140 -20q-400 -322 -541 -322q-46 0 -97 11q-43 148 -182 308q98 23 142 23q92 0 223 -158z" />
    <glyph glyph-name="breve" unicode="&#x2d8;" horiz-adv-x="1024" 
d="M1105 1857q145 -10 145 -63q0 -116 -162 -193q-134 -65 -264 -65q-345 0 -345 211q0 99 177 108q-5 -32 -5 -50q0 -109 200 -109q232 0 254 161z" />
    <glyph glyph-name="dotaccent" unicode="&#x2d9;" horiz-adv-x="1024" 
d="M685 1851q116 32 198 32q163 0 163 -126q0 -44 -24 -174q-125 -47 -219 -47q-125 0 -125 85q0 25 10.5 75t10.5 76q0 35 -14 79z" />
    <glyph glyph-name="ring" unicode="&#x2da;" horiz-adv-x="1024" 
d="M980 2129q197 -83 197 -253q0 -140 -105 -237t-246 -97q-257 0 -257 221q0 337 392 456q21 -38 21 -70q0 -10 -2 -20zM913 2031q-157 -74 -157 -231q0 -110 104 -110q169 0 169 186q0 112 -116 155z" />
    <glyph glyph-name="ogonek" unicode="&#x2db;" horiz-adv-x="1024" 
d="M603 0q-122 -93 -122 -168q0 -58 107 -58q38 0 135 27q3 -24 3 -35q0 -107 -220 -107q-208 0 -208 126q0 121 163 215h142z" />
    <glyph glyph-name="tilde" unicode="&#x2dc;" horiz-adv-x="1024" 
d="M495 1539q-22 -3 -36 -3q-81 0 -81 106q0 111 73 201q78 96 186 96q77 0 256 -109.5t224 -109.5q105 0 105 193q0 11 -1 23q25 3 35 3q81 0 81 -106q0 -111 -73 -201q-77 -96 -185 -96q-78 0 -256.5 109.5t-223.5 109.5q-106 0 -106 -186q0 -17 2 -30z" />
    <glyph glyph-name="hungarumlaut" unicode="&#x2dd;" horiz-adv-x="1024" 
d="M399 1536q22 17 189 185q156 156 308 156h78l-231 -190q-173 -142 -344 -151zM752 1537q24 23 188 185q157 155 308 155h79l-232 -190q-175 -143 -343 -150z" />
    <glyph glyph-name="commaaccent" unicode="&#x326;" horiz-adv-x="653" 
d="M-54 -207q32 -9 60 -9q239 0 239 239q0 96 -90 176q137 86 279 86q140 0 140 -140q0 -181 -176 -337q-170 -150 -354 -150q-104 0 -104 78q0 16 6 57z" />
    <glyph glyph-name="Delta" unicode="&#x394;" horiz-adv-x="1586" 
d="M83 183l938 1284q15 202 314 281q0 -606 188 -1472q79 12 137 28q-112 -316 -354 -316q-76 0 -228 6t-228 6q-112 0 -334.5 -9.5t-334.5 -9.5q-121 0 -121 88q0 30 23 114zM435 266h728q-14 79 -61 456q-16 120 -50 430z" />
    <glyph glyph-name="Delta" unicode="&#x2206;" horiz-adv-x="1586" 
d="M83 183l938 1284q15 202 314 281q0 -606 188 -1472q79 12 137 28q-112 -316 -354 -316q-76 0 -228 6t-228 6q-112 0 -334.5 -9.5t-334.5 -9.5q-121 0 -121 88q0 30 23 114zM435 266h728q-14 79 -61 456q-16 120 -50 430z" />
    <glyph glyph-name="Omega" unicode="&#x3a9;" horiz-adv-x="1707" 
d="M534 223q-231 307 -231 532q0 396 265 690q273 303 665 303q531 0 531 -522q0 -483 -559 -1003h98q246 0 420 46q-27 -189 -143 -239q-69 -30 -304 -30q-39 0 -118 -8.5t-118 -8.5q-80 0 -80 70q0 34 26 153q406 530 406 1018q0 351 -242 351q-237 0 -389 -395
q-120 -312 -120 -597q0 -108 65.5 -270t65.5 -171q0 -55 -33 -171q-96 22 -279 23q-374 2 -374 117q0 67 60 190q122 -68 388 -78z" />
    <glyph glyph-name="Omega" unicode="&#x2126;" horiz-adv-x="1707" 
d="M534 223q-231 307 -231 532q0 396 265 690q273 303 665 303q531 0 531 -522q0 -483 -559 -1003h98q246 0 420 46q-27 -189 -143 -239q-69 -30 -304 -30q-39 0 -118 -8.5t-118 -8.5q-80 0 -80 70q0 34 26 153q406 530 406 1018q0 351 -242 351q-237 0 -389 -395
q-120 -312 -120 -597q0 -108 65.5 -270t65.5 -171q0 -55 -33 -171q-96 22 -279 23q-374 2 -374 117q0 67 60 190q122 -68 388 -78z" />
    <glyph glyph-name="pi" unicode="&#x3c0;" horiz-adv-x="1669" 
d="M527 1145h-23q-105 0 -235 -56v18q0 261 295 261q24 0 70.5 -1t70.5 -1h750q277 0 402 52l1 -51v-9q0 -213 -322 -213l-84 -390q-62 -288 -62 -430q0 -117 117 -117q35 0 72 13q-6 -246 -248 -246q-283 0 -283 317q0 183 145 853h-325l-115 -580q-60 -303 -60 -420
q0 -45 25 -104q-125 -53 -262 -53q-136 0 -136 107q0 84 30 208l50 206z" />
    <glyph glyph-name="endash" unicode="&#x2013;" horiz-adv-x="1024" 
d="M261 530q10 59 44 172q44 103 203 129q46 7 256 10q186 2 282 44q-31 -312 -353 -312q-26 0 -78.5 1.5t-78.5 1.5q-171 0 -275 -46z" />
    <glyph glyph-name="emdash" unicode="&#x2014;" horiz-adv-x="1706" 
d="M254 530q41 216 129 267q64 38 313 38q300 -7 412 -7q490 0 622 57q-19 -212 -141 -270q-76 -36 -331 -36q-292 7 -401 7q-476 0 -603 -56z" />
    <glyph glyph-name="quoteleft" unicode="&#x2018;" horiz-adv-x="653" 
d="M987 1613q-33 9 -61 9q-238 0 -238 -239q0 -95 90 -175q-136 -87 -280 -87q-139 0 -139 140q0 181 176 337q170 150 354 150q103 0 103 -78q0 -22 -5 -57z" />
    <glyph glyph-name="quoteright" unicode="&#x2019;" horiz-adv-x="653" 
d="M237 1255q29 -8 60 -8q239 0 239 238q0 96 -90 176q136 87 280 87q139 0 139 -141q0 -181 -176 -336q-170 -150 -354 -150q-104 0 -104 77q0 17 6 57z" />
    <glyph glyph-name="quotesinglbase" unicode="&#x201a;" horiz-adv-x="653" 
d="M-54 -207q32 -9 60 -9q239 0 239 239q0 96 -90 176q137 86 279 86q140 0 140 -140q0 -181 -176 -337q-170 -150 -354 -150q-104 0 -104 78q0 16 6 57z" />
    <glyph glyph-name="quotedblleft" unicode="&#x201c;" horiz-adv-x="1187" 
d="M1521 1613q-33 9 -61 9q-238 0 -238 -239q0 -96 89 -175q-134 -87 -279 -87q-139 0 -139 140q0 181 176 337q170 150 354 150q103 0 103 -78q0 -22 -5 -57zM987 1613q-33 9 -61 9q-238 0 -238 -239q0 -95 90 -175q-136 -87 -280 -87q-139 0 -139 140q0 181 176 337
q170 150 354 150q103 0 103 -78q0 -22 -5 -57z" />
    <glyph glyph-name="quotedblright" unicode="&#x201d;" horiz-adv-x="1187" 
d="M237 1255q29 -8 60 -8q239 0 239 238q0 96 -90 176q136 87 280 87q139 0 139 -141q0 -181 -176 -336q-170 -150 -354 -150q-104 0 -104 77q0 17 6 57zM771 1255q28 -8 60 -8q239 0 239 238q0 96 -90 176q136 87 279 87q140 0 140 -141q0 -182 -176 -337
q-170 -149 -355 -149q-103 0 -103 77q0 17 6 57z" />
    <glyph glyph-name="quotedblbase" unicode="&#x201e;" horiz-adv-x="1187" 
d="M-54 -207q32 -9 60 -9q239 0 239 239q0 96 -90 176q137 86 279 86q140 0 140 -140q0 -181 -176 -337q-170 -150 -354 -150q-104 0 -104 78q0 16 6 57zM480 -207q32 -9 60 -9q239 0 239 239q0 95 -90 176q137 86 279 86q140 0 140 -140q0 -181 -176 -337
q-171 -150 -355 -150q-103 0 -103 78q0 16 6 57z" />
    <glyph glyph-name="dagger" unicode="&#x2020;" horiz-adv-x="853" 
d="M753 996q-170 -839 -170 -1133q0 -58 30 -158q-103 -47 -194 -47q-180 0 -180 148q0 86 73 382q152 616 183 808q-207 -8 -306 -43q52 264 210 264q23 0 69 -5t69 -5q45 224 45 378q0 69 -23 133q97 30 178 30q144 0 144 -129q0 -87 -86 -412q169 8 291 64q4 -40 4 -59
q0 -228 -167 -228h2q-25 3 -172 12z" />
    <glyph glyph-name="daggerdbl" unicode="&#x2021;" horiz-adv-x="853" 
d="M490 972q-216 -12 -306 -44q51 264 211 264v0q20 -2 137 -10q50 249 50 402q0 71 -23 134q97 30 178 30q144 0 144 -129q0 -86 -35 -219l-56 -218q177 10 291 64q4 -38 4 -59q0 -228 -167 -228q-34 0 -85 5l-85 8l-107 -537q196 4 307 43q-52 -264 -211 -264v0l-137 10
q-50 -235 -50 -401q0 -70 22 -135q-95 -29 -177 -29q-144 0 -144 129q0 85 35 219l56 217q-169 -7 -291 -64q-4 33 -4 57q0 230 167 230q31 0 85 -5q64 -6 85 -7z" />
    <glyph glyph-name="bullet" unicode="&#x2022;" horiz-adv-x="1195" 
d="M436 1149q235 66 399 66q324 0 324 -252q0 -90 -55 -376q-248 -96 -441 -96q-241 0 -241 183q0 54 21 159.5t21 159.5q0 73 -28 156z" />
    <glyph glyph-name="ellipsis" unicode="&#x2026;" horiz-adv-x="2048" 
d="M172 297q98 29 176 29q133 0 171 -87q23 -52 23 -211q-110 -46 -200 -46q-88 0 -119 57q-18 34 -24.5 127.5t-26.5 130.5zM856 297q98 29 176 29q133 0 171 -87q23 -51 23 -211q-111 -46 -200 -46t-120 57q-18 34 -24 127.5t-26 130.5zM1539 297q98 29 176 29
q133 0 171 -87q23 -52 23 -211q-111 -46 -201 -46q-88 0 -119 57q-18 34 -24.5 127.5t-25.5 130.5z" />
    <glyph glyph-name="perthousand" unicode="&#x2030;" horiz-adv-x="2560" 
d="M616 -39q-191 48 -191 138q0 69 307 471l284 372q109 147 395 528q-143 -64 -223 -64q-38 0 -83 11q3 -29 3 -37q0 -212 -135 -383q-144 -184 -351 -184q-301 0 -301 323q0 147 82 312q97 194 228 194q61 0 111 -99q-198 -120 -198 -402q0 -152 113 -152q117 0 186 160
q54 125 54 260q0 33 -5 56q-95 45 -95 100q0 83 109 183q123 -143 342 -143q114 0 277 82.5t190 82.5q72 0 125 -74q-255 -231 -688 -828q-465 -640 -536 -907zM1089 624q87 111 159 155q47 29 158 60q45 80 111 80q247 0 247 -328q0 -234 -130 -405q-143 -186 -370 -186
q-302 0 -302 266q0 196 127 358zM1541 543q0 120 -93 196q-260 -115 -260 -427q0 -136 120 -136q111 0 178 134q55 110 55 233zM2221 839q46 80 111 80q247 0 247 -328q0 -234 -130 -405q-143 -186 -370 -186q-302 0 -302 266q0 197 126.5 358t317.5 215zM2263 739
q-260 -115 -260 -427q0 -136 120 -136q111 0 179 134q55 110 55 233q0 120 -94 196z" />
    <glyph glyph-name="guilsinglleft" unicode="&#x2039;" horiz-adv-x="752" 
d="M204 683q320 153 542 502q124 -66 124 -120q0 -159 -359 -453q127 -264 272 -287q-76 -92 -192 -92q-199 0 -387 450z" />
    <glyph glyph-name="guilsinglright" unicode="&#x203a;" horiz-adv-x="752" 
d="M825 712q-88 -139 -251 -292q-199 -187 -316 -187q-87 0 -150 129q193 60 380 305q-179 221 -179 332q0 110 167 179q122 -337 349 -466z" />
    <glyph glyph-name="fraction" unicode="&#x2044;" horiz-adv-x="176" 
d="M-386 -41q-186 44 -186 149q0 125 495 723q418 506 641 722q201 195 382 195q92 0 166 -28q-192 -105 -542.5 -456.5t-619.5 -709.5q-301 -398 -336 -595z" />
    <glyph glyph-name="foursuperior" unicode="&#x2074;" horiz-adv-x="1010" 
d="M925 1067q-39 -199 -39 -237q0 -30 14 -74q-76 -33 -124 -33q-109 0 -109 72q0 39 24 137l32 133q-216 -8 -431 -56l32 186q215 238 248 521q74 27 124 27q73 0 73 -52q0 -84 -218 -458q71 7 208 14q59 294 59 387q80 34 139 34q75 0 75 -67q0 -51 -30 -179l-40 -170
q221 -9 221 -92q0 -40 -30 -120q-109 20 -228 27z" />
    <glyph glyph-name="cruzeiro" unicode="&#x20a2;" 
d="M1260 406q20 -75 20 -101q0 -151 -284 -259q-230 -88 -414 -88q-466 0 -466 511q0 473 256 852q289 427 741 427q390 0 390 -188q0 -82 -115 -167q-118 183 -348 183q-281 0 -433 -378q-114 -285 -114 -618q0 -377 288 -377q218 0 479 203zM923 413q-65 -18 -131 -18
q-112 0 -112 82q0 26 43 212q92 398 92 526q0 34 -13 66q86 31 152 31q101 0 101 -84q0 -55 -51 -265q197 357 330 357q70 0 70 -67q0 -128 -121 -265q-31 45 -56 45q-90 0 -207 -235q-108 -217 -108 -325q0 -27 11 -60z" />
    <glyph glyph-name="franc" unicode="&#x20a3;" horiz-adv-x="1195" 
d="M564 45q-137 -60 -244 -60q-136 0 -136 94q0 55 23 142q31 117 35 141h-25q-59 0 -133 -20q33 192 192 192l127 637q42 211 42 317q0 58 -30 115q186 107 472 107q40 0 119 -1.5t119 -1.5q180 0 373 38q-58 -261 -294 -261q-62 0 -196 5q-108 4 -170 4h-26l-100 -501h103
q227 0 407 57q-12 -149 -96 -214q-68 -53 -203 -61q3 0 -254 0l-48 -240h42q65 0 294 31q-26 -205 -252 -205q-20 0 -59 1t-59 1q-37 -184 -37 -245q0 -27 14 -72z" />
    <glyph glyph-name="pesetas" unicode="&#x20a7;" horiz-adv-x="2333" 
d="M592 695q-88 -410 -88 -549q0 -49 21 -95q-149 -65 -267 -65q-138 0 -138 95q0 64 27 167q237 908 237 1243q0 62 -30 116q214 141 630 141q479 0 479 -362q0 -308 -294 -499q-235 -153 -577 -192zM628 875q464 38 464 469q0 225 -213 225q-40 0 -116 -16zM1318 650h-30
q-74 0 -148 -29q-3 28 -3 46q0 121 208 121q13 75 13 118q0 44 -19 84q91 34 166 34q100 0 100 -84q0 -28 -14 -76q-18 -61 -20 -76h72q82 0 191 20q-10 -160 -182 -160q-18 0 -54.5 1t-54.5 1q-61 -312 -61 -391q0 -102 70 -102q48 0 115 30q21 -63 21 -91
q0 -110 -218 -110q-217 0 -217 216q0 124 65 448zM1846 257q49 -153 169 -153q122 0 122 126q0 67 -196 214q-69 66 -69 159q0 321 369 321q204 0 204 -77q0 -68 -96 -137q-81 108 -155 108q-104 0 -104 -111q0 -60 201 -206q70 -68 70 -162q0 -353 -405 -353
q-229 0 -229 109q0 83 119 162z" />
    <glyph glyph-name="rupiah" unicode="&#x20a8;" horiz-adv-x="2207" 
d="M991 862q44 -139 87 -277q56 -160 127 -251q90 -117 230 -158q-96 -203 -287 -203q-131 0 -230 157q-75 117 -135 330q-36 147 -72 293q-82 -18 -131 -24l-60 -290q-34 -164 -34 -296q0 -46 21 -92q-148 -65 -258 -65q-130 0 -130 95q0 66 27 167q237 890 237 1243
q0 63 -29 116q271 141 653 141q468 0 468 -309q0 -339 -484 -577zM619 921q495 61 495 457q0 194 -205 194q-68 0 -166 -26zM1663 -190q-86 -35 -148 -35q-100 0 -100 84q0 14 32 171l114 560q29 142 29 224q0 28 -10 62q85 34 150 34q101 0 101 -86q0 -48 -20 -133
l-31 -132q198 360 367 360q172 0 172 -247q0 -220 -123 -430q-142 -242 -347 -242q-98 0 -171 49q-18 -91 -18 -174q0 -33 3 -65zM1716 241q76 -102 152 -102q93 0 157 202q50 160 50 282q0 97 -43 97q-41 0 -170 -212q-106 -175 -146 -267z" />
    <glyph glyph-name="Euro" unicode="&#x20ac;" horiz-adv-x="1524" 
d="M1241 715h-1141l48 110h1139zM1147 495h-1047l48 110h1047zM1366 149q-173 -149 -428 -149q-282 0 -471 189t-189 471t189 471t471 189q280 0 476 -196l-48 -111q-183 197 -428 197q-231 0 -390.5 -159.5t-159.5 -390.5t159.5 -390.5t390.5 -159.5q250 0 428 201v-162z
" />
    <glyph glyph-name="trademark" unicode="&#x2122;" horiz-adv-x="1877" 
d="M579 1538h-23q-115 0 -235 -59q33 235 229 235q33 0 99 -3.5t99 -3.5h89q146 0 284 47q-24 -217 -210 -217h-52h-33q-19 1 -25 1q-72 -344 -72 -446q0 -67 26 -115q-62 -23 -130 -23q-134 0 -134 99q0 94 88 485zM1313 1387q-48 -247 -48 -303q0 -57 29 -113
q-58 -16 -115 -16q-111 0 -111 83q0 94 65.5 290t65.5 294q0 46 -17 95q75 28 146 28q89 0 150 -194q31 -134 62 -267l138 252q105 191 304 191q16 0 62 -3q-76 -228 -76 -512q0 -102 41 -204q-89 -52 -165 -52q-97 0 -97 100q0 65 15 174l23 173q-198 -358 -305 -358
q-114 0 -167 342z" />
    <glyph glyph-name="arrowupleft" unicode="&#x21b0;" horiz-adv-x="1877" 
d="M697 1329l994 -995q163 -163 274 -222q-59 -112 -117 -112q-65 0 -275 210l-1013 1014q11 -62 11 -104q0 -291 -171 -291q-24 0 -69 10q56 246 56 487q0 99 -24 209q163 -42 329 -42q222 0 358 86q3 -44 3 -70q0 -193 -226 -193q-59 0 -130 13z" />
    <glyph glyph-name="arrowdownright" unicode="&#x21b3;" horiz-adv-x="1877" 
d="M1528 206l-994 995q-163 163 -274 222q59 113 118 113q63 0 274 -211l1013 -1014q-11 70 -11 104q0 291 171 291q21 0 69 -9q-56 -248 -56 -486q0 -101 25 -211q-168 42 -329 42q-223 0 -359 -86q-3 44 -3 70q0 194 226 194q54 0 130 -14z" />
    <glyph glyph-name="pageup" unicode="&#x21de;" horiz-adv-x="1536" 
d="M1005 968h146q203 0 203 -107q0 -30 -23 -102q-83 38 -296 38h-30v-170h146q203 0 203 -107q0 -30 -23 -102q-83 38 -296 38h-30v-89q0 -170 54 -334q-70 -45 -114 -45q-93 0 -103 185l-7 124v159h-80q-157 0 -170 2q-108 16 -108 97q0 36 24 118q66 -46 286 -46h48v170
h-80q-278 0 -278 99q0 36 24 118q66 -46 286 -46h48v384q-156 -211 -289 -211q-66 0 -147 106q292 145 520 464q261 -390 514 -452q-84 -111 -189 -111q-112 0 -239 192v-372z" />
    <glyph glyph-name="pagedown" unicode="&#x21df;" horiz-adv-x="1536" 
d="M827 732h-146q-203 0 -203 107q0 30 23 102q83 -38 296 -38h30v170h-146q-203 0 -203 107q0 30 23 102q83 -38 296 -38h30v89q0 170 -54 334q70 45 114 45q93 0 103 -185l7 -124v-159h80q157 0 170 -2q108 -16 108 -97q0 -36 -24 -118q-66 46 -286 46h-48v-170h80
q278 0 278 -99q0 -36 -24 -118q-66 46 -286 46h-48v-384q156 211 289 211q66 0 147 -106q-292 -145 -520 -464q-261 390 -514 452q84 111 189 111q112 0 239 -192v372z" />
    <glyph glyph-name="arrowdashleft" unicode="&#x21e0;" horiz-adv-x="2048" 
d="M1172 683v170h342v-170h-342zM1684 683v170q68 4 80 4q135 0 243 32q19 -65 19 -95q0 -111 -229 -111h-113zM678 683q213 -153 213 -287q0 -81 -104 -149q-224 359 -468 517q392 233 457 515q113 -100 113 -185q0 -111 -188 -241h301v-170h-324z" />
    <glyph glyph-name="arrowdashup" unicode="&#x21e1;" horiz-adv-x="1536" 
d="M889 853h171v-341h-171v341zM889 341h171q4 -68 4 -79q0 -136 32 -243q-65 -19 -96 -19q-108 0 -110 229zM889 1347q-153 -212 -287 -212q-80 0 -148 103q358 223 516 469q233 -392 516 -457q-101 -113 -185 -113q-111 0 -241 187v-300h-171v323z" />
    <glyph glyph-name="arrowdashright" unicode="&#x21e2;" horiz-adv-x="2048" 
d="M1172 683v170h-342v-170h342zM660 683v170q-68 4 -80 4q-135 0 -243 32q-19 -65 -19 -95q0 -111 229 -111h113zM1666 683q-213 -153 -213 -287q0 -81 104 -149q224 359 468 517q-392 233 -457 515q-113 -100 -113 -185q0 -111 188 -241h-301v-170h324z" />
    <glyph glyph-name="arrowdashdown" unicode="&#x21e3;" horiz-adv-x="1536" 
d="M977 853h-171v341h171v-341zM977 1365h-171q-4 68 -4 79q0 136 -32 243q65 19 96 19q108 0 110 -229zM977 359q153 212 287 212q80 0 148 -103q-358 -223 -516 -469q-233 392 -516 457q101 113 185 113q111 0 241 -187v300h171v-323z" />
    <glyph glyph-name="arrowtableft" unicode="&#x21e4;" horiz-adv-x="2048" 
d="M1006 853l901 8q62 3 149 28q19 -64 19 -95q0 -111 -229 -111h-863q212 -153 212 -287q0 -81 -103 -149q-224 359 -468 517q392 233 456 515q114 -100 114 -185q0 -110 -188 -241zM581 209q-57 -38 -99 -38q-114 0 -114 309v507q0 168 -53 333q70 46 117 46
q106 0 106 -310v-507q0 -212 43 -340z" />
    <glyph glyph-name="arrowtabright" unicode="&#x21e5;" horiz-adv-x="2048" 
d="M1363 683l-901 -8q-62 -3 -149 -28q-19 64 -19 95q0 111 229 111h863q-212 153 -212 287q0 81 103 149q224 -359 468 -517q-392 -233 -456 -515q-114 100 -114 185q0 110 188 241zM1788 1327q57 38 99 38q114 0 114 -309v-507q0 -168 53 -333q-70 -46 -117 -46
q-106 0 -106 310v507q0 212 -43 340z" />
    <glyph glyph-name="arrowupwhite" unicode="&#x21e7;" horiz-adv-x="2389" 
d="M1832 23q-190 -23 -571 -23q-222 0 -208 -1q-119 7 -178 50q-76 55 -76 178q0 360 6 438q-113 -5 -604 -52q590 444 1130 1107q405 -494 1054 -1097q-136 5 -280 5h-119q-97 0 -171 1v-58q0 -344 17 -548zM1650 187q-1 37 -1 136q0 173 -6 487q110 0 160 -1l160 -3
q-476 401 -648 664q-205 -313 -636 -642q103 9 310 22q-13 -159 -13 -490q0 -113 51 -156q40 -35 131 -36q-388 5 181 5q123 0 311 14z" />
    <glyph glyph-name="capslock" unicode="&#x21ea;" horiz-adv-x="2389" 
d="M1832 354q-181 -23 -476 -23q-3306 0 -232 -8q-149 1 -225 41q-100 53 -100 182q0 27 6 119q-113 -5 -604 -52q590 444 1130 1107q405 -494 1054 -1097q-135 5 -274 5h-131q-92 0 -165 1v-58q0 -91 17 -217zM812 196q150 -25 374 -25q12 0 122 2q164 3 248 3
q163 0 213 -28q72 -41 72 -184q0 -144 -40 -287q-312 -18 -554 -18h-48l-125 1q-167 1 -216 27q-77 39 -77 181q0 102 31 328zM1650 519q-1 97 -7 291h43q67 0 117 -1l160 -3q-476 401 -648 664q-205 -313 -636 -642q103 9 310 22q-12 -66 -12 -90q0 -163 29 -203
q36 -49 182 -49q355 0 462 11zM978 13q-3 -79 -3 -98q0 -90 357 -96q147 -2 311 13q7 66 7 83q0 88 -121 87q-187 -2 -196 -2q-207 0 -355 13z" />
    <glyph glyph-name="partialdiff" unicode="&#x2202;" horiz-adv-x="1245" 
d="M345 1272q174 476 580 476q405 0 405 -532q0 -418 -190 -789q-230 -452 -609 -452q-333 0 -333 329q0 299 202 555q216 274 507 274q130 0 237 -80q3 64 3 102q0 333 -294 333q-226 0 -508 -216zM1108 867q-86 87 -171 87q-172 0 -296 -240q-105 -205 -105 -395
q0 -137 108 -137q157 0 305 273q109 199 159 412z" />
    <glyph glyph-name="product" unicode="&#x220f;" horiz-adv-x="1706" 
d="M581 1452h-19q-155 0 -269 -52q76 310 437 310q35 0 104 -1.5t104 -1.5q83 0 247.5 -3.5t247.5 -3.5q380 0 595 50q0 -298 -324 -298l-198 -994q-49 -246 -49 -328q0 -28 8 -82q-136 -60 -244 -60q-140 0 -140 94q0 68 40 230l59 238l180 902h-435l-198 -994
q-49 -246 -49 -328q0 -28 8 -82q-135 -60 -243 -60q-140 0 -140 94q0 73 39 231l59 237z" />
    <glyph glyph-name="summation" unicode="&#x2211;" 
d="M441 266h210q522 0 706 73v-41q0 -311 -271 -311q-76 0 -227.5 6.5t-227.5 6.5q-65 0 -194 -8.5t-194 -8.5q-155 0 -155 92q0 56 52 191q104 61 228 172l214 192q139 124 250 229q-401 587 -401 790q0 40 7 96q254 -38 521 -38q432 0 669 67q-62 -192 -152 -247
q-79 -47 -296 -47l-331 -1q138 -342 309 -558q-109 -95 -357 -330q-227 -215 -360 -325z" />
    <glyph glyph-name="radical" unicode="&#x221a;" horiz-adv-x="1712" 
d="M292 210l-168 61q129 400 327 400q196 0 411 -675q223 492 666 1342q60 115 221 410h218q-30 -59 -173 -319q-217 -396 -757 -1551q-90 -192 -351 -219q-14 105 -122 390q-119 311 -173 311q-43 0 -99 -150z" />
    <glyph glyph-name="infinity" unicode="&#x221e;" horiz-adv-x="1730" 
d="M941 523q-267 -253 -451 -253q-288 0 -288 304q0 204 125 354q132 159 332 159q206 0 400 -252q265 254 453 254q286 0 286 -304q0 -204 -125 -354q-132 -159 -332 -159q-203 0 -400 251zM842 651q-142 193 -265 193q-187 0 -187 -212q0 -160 151 -160q126 0 301 179z
M1158 708q143 -193 265 -193q187 0 187 211q0 160 -151 160q-125 0 -301 -178z" />
    <glyph glyph-name="integral" unicode="&#x222b;" horiz-adv-x="1024" 
d="M881 1593q-96 -92 -96 -305q0 -35 3 -104t3 -104v-558q0 -863 -501 -863q-88 0 -176 45q-106 54 -106 133q0 49 73 138q178 -44 271 -161q102 96 102 346q0 32 -2 95t-2 95v1l1 557q0 840 496 840q88 0 175 -43q104 -52 104 -131q0 -47 -70 -136q-179 39 -275 155z" />
    <glyph glyph-name="approxequal" unicode="&#x2248;" horiz-adv-x="1352" 
d="M1153 586q50 21 89 21q88 0 88 -87q0 -153 -96 -260q-100 -111 -251 -111q-99 0 -288.5 106.5t-223.5 106.5q-122 0 -122 -151q0 -16 2 -33q-50 -21 -90 -21q-87 0 -87 87q0 153 96 260q99 111 250 111q100 0 289.5 -106.5t223.5 -106.5q122 0 122 152q0 15 -2 32z
M1274 1196q50 22 90 22q87 0 87 -87q0 -154 -96 -260q-99 -111 -251 -111q-102 0 -290 106.5t-222 106.5q-122 0 -122 -153q0 -15 2 -31q-53 -22 -89 -22q-88 0 -88 87q0 153 96 260q100 112 251 112q98 0 288 -106.5t224 -106.5q122 0 122 149q0 17 -2 34z" />
    <glyph glyph-name="approxequal" unicode="&#x22f2;" horiz-adv-x="1352" 
d="M1153 586q50 21 89 21q88 0 88 -87q0 -153 -96 -260q-100 -111 -251 -111q-99 0 -288.5 106.5t-223.5 106.5q-122 0 -122 -151q0 -16 2 -33q-50 -21 -90 -21q-87 0 -87 87q0 153 96 260q99 111 250 111q100 0 289.5 -106.5t223.5 -106.5q122 0 122 152q0 15 -2 32z
M1274 1196q50 22 90 22q87 0 87 -87q0 -154 -96 -260q-99 -111 -251 -111q-102 0 -290 106.5t-222 106.5q-122 0 -122 -153q0 -15 2 -31q-53 -22 -89 -22q-88 0 -88 87q0 153 96 260q100 112 251 112q98 0 288 -106.5t224 -106.5q122 0 122 149q0 17 -2 34z" />
    <glyph glyph-name="notequal" unicode="&#x2260;" 
d="M277 292q32 176 102.5 235.5t248.5 59.5q37 59 106 181h-24q-199 0 -338 -54l10 65q36 236 327 236q31 0 92 -2t92 -2q140 222 306 222q58 0 142 -15q-84 -79 -167 -207h1q36 0 182 53q-84 -280 -337 -296q-20 -36 -110 -181h22q207 0 330 53q-22 -204 -145 -261
q-77 -36 -319 -36q-43 -95 -43 -141q0 -19 8 -46q-113 -27 -176 -27q-131 0 -131 56q0 22 60 158q-123 0 -239 -51z" />
    <glyph glyph-name="lessequal" unicode="&#x2264;" horiz-adv-x="1195" 
d="M709 947q402 -211 402 -405q0 -77 -58 -174q-217 246 -500 387q-148 74 -177 105q-41 45 -68 185q315 62 542 195q156 91 468 352q3 -41 3 -64q0 -359 -612 -581zM90 -48q74 189 154 243q89 59 240 59h339q187 0 333 53q-87 -314 -476 -314q-46 0 -136.5 3.5t-136.5 3.5
q-194 0 -317 -48z" />
    <glyph glyph-name="greaterequal" unicode="&#x2265;" horiz-adv-x="1195" 
d="M875 1013q-401 212 -401 405q0 77 58 174q220 -252 498 -387q148 -72 178 -104q43 -46 69 -186q-315 -62 -542 -195q-157 -92 -468 -352q-3 43 -3 67q0 352 611 578zM90 -48q74 189 154 243q89 59 240 59h339q187 0 333 53q-87 -314 -476 -314q-46 0 -136.5 3.5
t-136.5 3.5q-194 0 -317 -48z" />
    <glyph glyph-name="control" unicode="&#x2303;" horiz-adv-x="1877" 
d="M1087 1187q-88 -115 -262 -278q-214 -201 -294 -201q-92 0 -166 166q426 297 722 662q306 -382 722 -662q-77 -166 -166 -166q-82 0 -295 200q-172 162 -261 279z" />
    <glyph glyph-name="propellor" unicode="&#x2318;" horiz-adv-x="1877" 
d="M1359 640q407 -58 407 -319q0 -133 -101.5 -227t-235.5 -94q-295 0 -295 327q0 54 16 148q-28 4 -116 4q-89 0 -118 -4q-110 -475 -467 -475q-231 0 -231 211q0 352 555 429q32 148 51 256q-407 58 -407 319q0 133 103 228q100 93 234 93q294 0 294 -327q0 -62 -16 -148
q29 -4 117 -4q89 0 118 4q107 475 467 475q231 0 231 -211q0 -354 -555 -429q-32 -148 -51 -256zM727 454q-109 -4 -208 -55q-122 -62 -122 -159q0 -74 86 -74q159 0 244 288zM1331 454q-5 -50 -5 -82q0 -206 133 -206q125 0 125 117q0 160 -253 171zM1177 652q13 79 46 232
q-55 -1 -109 -1t-108 1q-15 -89 -46 -232q54 1 108 1q55 0 109 -1zM1456 1082q109 4 208 55q122 63 122 160q0 73 -86 73q-159 0 -244 -288zM852 1082q5 49 5 81q0 207 -133 207q-125 0 -125 -117q0 -160 253 -171z" />
    <glyph glyph-name="option" unicode="&#x2325;" horiz-adv-x="2389" 
d="M1084 1538q367 -543 685 -1374q122 -18 198 -18q239 0 404 54q9 -35 9 -60q0 -167 -362 -167q-234 0 -419 27q-70 260 -292 694q-201 395 -382 656l-346 -8q-236 0 -236 128q0 33 24 95q102 -49 395 -49q173 0 322 22zM1552 1572q85 -25 323 -27q517 -4 517 -143
q0 -25 -15 -79q-91 39 -320 39q-31 0 -93.5 -1t-93.5 -1q-337 0 -337 117q0 31 19 95z" />
    <glyph glyph-name="deleteright" unicode="&#x2326;" horiz-adv-x="2645" 
d="M1987 1542q191 -363 643 -760q-489 -324 -947 -782q-183 -28 -707 -28q-291 0 -736 56q13 334 92 780q107 605 248 691q113 69 814 69q272 0 593 -26zM1861 1365q-211 33 -608 33q-89 0 -188 -3l-230 -7q-171 -23 -256 -261q-31 -88 -83 -389q-55 -321 -63 -549
q369 -47 812 -47q210 0 379 23q109 87 356 306q225 200 361 304q-255 234 -480 590zM1070 1270q33 -211 155 -388q305 232 354 372q147 -22 147 -105q0 -84 -172 -218q-76 -56 -229 -168q158 -225 349 -304q-89 -138 -185 -138q-123 0 -317 320q-217 -194 -274 -349
q-179 23 -179 124q0 62 351 347q-194 206 -194 345q0 119 194 162z" />
    <glyph glyph-name="clear" unicode="&#x2327;" horiz-adv-x="2219" 
d="M171 0l305 1536h339q-75 128 -148 171q103 128 199 128q112 0 206 -299h704q287 341 384 341q87 0 147 -142q-105 -31 -292 -199h339l-306 -1536h-321q60 -102 147 -190q-126 -105 -188 -105q-79 0 -135 112l-71 183h-721q-240 -310 -367 -310q-75 0 -150 98
q152 86 264 212h-335zM1231 623q-263 -372 -335 -452h516q-88 183 -181 452zM1153 775q-80 197 -251 590h-289l-238 -1194h288q244 264 490 604zM1291 917q67 84 346 448h-500zM1372 767q143 -356 261 -596h278l238 1194h-296q-192 -209 -481 -598z" />
    <glyph glyph-name="deleteleft" unicode="&#x232b;" horiz-adv-x="2645" 
d="M1272 1542q318 26 701 26q-596 0 276 11q204 2 315 -38q151 -54 151 -191q0 -488 -298 -1322q-482 -56 -758 -56q-523 0 -696 28q-289 470 -637 782q613 399 946 760zM1327 1365q-369 -357 -714 -590q231 -259 330 -407q47 -71 144 -203q154 -22 393 -22q424 0 808 46
q225 626 225 1024q0 162 -162 170q-286 15 -403 15q-398 0 -621 -33zM1549 1270q32 -209 155 -388q304 226 354 372q147 -22 147 -105q0 -79 -167 -211q-78 -58 -234 -175q158 -225 349 -304q-88 -138 -185 -138q-123 0 -317 320q-214 -192 -274 -349q-179 23 -179 124
q0 62 351 347q-194 206 -194 345q0 119 194 162z" />
    <glyph glyph-name="carriagereturn" unicode="&#x240d;" horiz-adv-x="2389" 
d="M689 683h950q622 0 622 435q0 229 -286 229q-70 0 -164 -32q0 206 215 206q177 0 291 -104q119 -107 119 -282q0 -314 -276 -482q-230 -141 -564 -141h-964q158 -133 158 -260q0 -97 -136 -175q-153 359 -365 516q437 234 559 516q80 -87 80 -149q0 -132 -239 -277z" />
    <glyph glyph-name="escape" unicode="&#x241b;" horiz-adv-x="1877" 
d="M389 1533q182 -42 366 -42q159 0 321 76q2 -32 2 -56q0 -197 -225 -197q-49 0 -143 11l219 -207q24 -23 84 -83q130 -130 218 -174q-55 -105 -127 -105q-44 0 -126 75l-61 56l-332 328l2 -104q6 -287 -156 -287q-27 0 -82 10q58 222 58 460q0 118 -18 239zM1243 1318
q-3 29 -3 50q0 122 115 122q223 0 399 -257q160 -234 160 -468q0 -319 -226 -542t-545 -223q-249 0 -470 168q-238 181 -238 422q0 114 114 114q31 0 75 -8q-3 -42 -3 -71q0 -195 173 -329q161 -124 361 -124q244 0 416 176t172 421q0 184 -124 361q-135 193 -312 193
q-26 0 -64 -5z" />
    <glyph glyph-name="blank" unicode="&#x2423;" 
d="M356 -7q-36 -79 -36 -118q0 -46 224 -46q243 0 423 22q27 150 147 150q24 0 79 -9q-61 -132 -77 -287q-234 -49 -547 -49q-238 0 -257 2q-176 22 -176 131q0 212 143 212q20 0 77 -8z" />
    <glyph glyph-name="blackdiamond" unicode="&#x25c6;" horiz-adv-x="1536" 
d="M768 1195l598 -598l-598 -597l-597 597z" />
    <glyph glyph-name="lozenge" unicode="&#x25ca;" 
d="M998 1328q46 -53 46 -96q0 -27 -27 -64q158 -166 395 -485q-235 -205 -699 -624q-487 444 -487 611q0 205 772 658zM859 956q-314 -211 -314 -283q0 -88 222 -262q103 95 314 279q-96 135 -222 266z" />
    <glyph glyph-name="checkmark" unicode="&#x2713;" horiz-adv-x="2219" 
d="M1058 0q-259 556 -687 669q108 201 235 201q179 0 484 -499q142 249 422 578q352 417 516 417q89 0 201 -202q-323 -163 -661 -504q-320 -324 -510 -660z" />
    <glyph glyph-name="apple" unicode="&#xf000;" horiz-adv-x="1877" 
d="M1712 1224q-215 -152 -215 -365q0 -257 265 -393q-57 -164 -171 -317q-146 -195 -280 -195q-57 0 -165.5 40.5t-166.5 40.5t-167.5 -40.5t-167.5 -40.5q-204 0 -371 351q-143 302 -143 533q0 250 133 406q141 167 386 167q62 0 169 -40.5t142 -40.5q46 0 168 40.5
t191 40.5q244 0 393 -187zM1325 1845q3 -33 3 -51q0 -162 -115.5 -282.5t-277.5 -123.5q-4 31 -4 53q0 154 122 271q114 110 272 133z" />
    <glyph glyph-name="fi" unicode="&#xf001;" horiz-adv-x="1461" 
d="M804 981l-148 -745q-60 -302 -60 -420q0 -46 26 -104q-126 -53 -263 -53q-135 0 -135 107q0 84 30 208l50 206l159 801h-20q-95 0 -206 -52q10 159 60.5 209t206.5 50l28 138q86 422 552 422q235 0 235 -145q0 -89 -206 -161q-7 144 -85 144q-106 0 -182 -398h369
q106 43 183 43q150 0 150 -107q0 -52 -19 -127q-139 -548 -139 -746q0 -114 60 -192q-116 -73 -225 -73q-196 0 -196 181q0 145 144 814h-369zM1653 1487q-108 -52 -184 -52q-122 0 -122 73q0 25 10 75t10 75q0 20 -13 43q126 47 210 47q129 0 129 -109q0 -60 -40 -152z" />
    <glyph glyph-name="fl" unicode="&#xf002;" horiz-adv-x="1569" 
d="M846 1188h25q72 0 237 34q4 -32 4 -58q0 -183 -308 -183l-148 -745q-60 -302 -60 -420q0 -46 26 -104q-126 -53 -263 -53q-135 0 -135 107q0 84 30 208l50 206l159 801h-20q-95 0 -206 -52q10 159 60.5 209t206.5 50l28 138q86 422 640 422q113 0 209 -38q61 10 109 10
q153 0 153 -116q0 -73 -31 -190l-49 -189l-134 -674q-39 -196 -39 -300q0 -114 60 -192q-116 -73 -225 -73q-196 0 -196 181q0 85 50 337l184 928q-44 154 -164 154q-130 0 -191 -143q-24 -56 -62 -255z" />
    <glyph glyph-name="ch240" unicode="&#xf8ff;" horiz-adv-x="1877" 
d="M1712 1224q-215 -152 -215 -365q0 -257 265 -393q-57 -164 -171 -317q-146 -195 -280 -195q-57 0 -165.5 40.5t-166.5 40.5t-167.5 -40.5t-167.5 -40.5q-204 0 -371 351q-143 302 -143 533q0 250 133 406q141 167 386 167q62 0 169 -40.5t142 -40.5q46 0 168 40.5
t191 40.5q244 0 393 -187zM1325 1845q3 -33 3 -51q0 -162 -115.5 -282.5t-277.5 -123.5q-4 31 -4 53q0 154 122 271q114 110 272 133z" />
    <glyph glyph-name="HT" horiz-adv-x="683" 
 />
    <glyph glyph-name="nonmarkingreturn" horiz-adv-x="1536" 
 />
    <glyph glyph-name="carriagereturnleft" horiz-adv-x="2389" 
d="M1982 683q-144 115 -144 201q0 108 155 225q0 -278 354 -516q-276 -157 -571 -516q-77 57 -77 122q0 141 272 313h-964q-629 0 -629 433q0 239 187 410q182 166 424 166q149 0 149 -106q0 -35 -26 -100q-83 32 -151 32q-173 0 -288 -102q-120 -106 -120 -276
q0 -286 479 -286h950z" />
    <glyph glyph-name="Inodot" horiz-adv-x="943" 
d="M598 1494q-93 -5 -177 -37l-1 45q-5 205 245 205h229q1 0 146 8q64 4 124 24l1 -27q8 -206 -223 -217l-254 -1279q102 0 177 29q3 -36 3 -53q0 -187 -192 -189l-294 -3q-158 -2 -264 -25q0 239 225 239z" />
    <glyph glyph-name="idot" horiz-adv-x="680" 
d="M363 1328q138 51 251 51q152 0 152 -116q0 -53 -19 -127q-166 -650 -166 -885q0 -114 60 -192q-116 -73 -225 -73q-196 0 -196 181q0 175 86 518t86 518q0 63 -29 125zM814 1587q-107 -51 -196 -51q-134 0 -134 74q0 25 10 75t10 75q0 17 -13 41q129 47 218 47
q146 0 146 -111q0 -49 -41 -150z" />
    <glyph glyph-name="napostrophe" 
d="M668 848q269 545 547 545q211 0 211 -214q0 -156 -73.5 -459.5t-73.5 -459.5q0 -123 60 -201q-115 -73 -227 -73q-188 0 -188 181q0 134 40 332q101 499 101 549q0 55 -34 55q-100 0 -306 -436q-198 -419 -198 -562q0 -38 17 -91q-102 -28 -197 -28q-172 0 -172 124
q0 62 25 162l40 160q141 564 141 796q0 55 -20 104q133 47 230 47q153 0 153 -127q0 -70 -76 -404zM410 1726q29 -8 60 -8q239 0 239 238q0 96 -90 176q136 87 280 87q139 0 139 -141q0 -181 -176 -336q-170 -150 -354 -150q-104 0 -104 77q0 17 6 57z" />
    <glyph glyph-name="coloncur" 
d="M1081 252q122 56 249 154q21 -81 21 -101q0 -152 -313 -269q-14 -80 -14 -111q0 -38 14 -104q-54 -16 -83 -16q-91 0 -91 66q0 48 16 116q-62 -14 -151 -26q-4 -40 -4 -60q0 -29 11 -82q-45 -14 -80 -14q-85 0 -85 78q0 33 10 80q-394 60 -394 506q0 388 189 736
q210 387 551 499q3 20 3 70q0 49 -14 91q35 12 69 12q105 0 105 -75q0 -16 -7 -61q49 6 105 6q20 0 42 -1q3 20 3 41q0 49 -22 78q34 12 66 12q104 0 104 -87q0 -22 -7 -65q200 -50 200 -166q0 -75 -146 -160q-19 74 -93 130zM778 210q35 -8 53 -8q25 0 93 7l271 1362l-27 3
h-81l-38 -1zM897 1551q-158 -140 -259 -481q-86 -294 -86 -550q0 -193 80 -296z" />
    <glyph glyph-name="rupees" horiz-adv-x="2126" 
d="M1052 862l102 -304q104 -311 342 -382q-94 -203 -287 -203q-182 0 -306 314q-36 92 -130 466q-43 -9 -131 -24l-60 -290q-34 -164 -34 -296q0 -46 21 -92q-148 -65 -258 -65q-130 0 -130 95q0 64 27 167q237 908 237 1243q0 61 -29 116q268 141 653 141q468 0 468 -309
q0 -339 -485 -577zM680 921q495 61 495 457q0 194 -204 194q-68 0 -166 -26zM1639 257q49 -153 169 -153q122 0 122 127q0 66 -196 213q-69 66 -69 159q0 321 369 321q203 0 203 -77q0 -70 -95 -137q-80 108 -155 108q-104 0 -104 -111q0 -60 201 -206q70 -67 70 -162
q0 -353 -405 -353q-229 0 -229 109q0 84 119 162z" />
    <glyph glyph-name="pesoph" horiz-adv-x="1311" 
d="M647 695q-87 -405 -87 -548q0 -52 20 -96q-148 -65 -267 -65q-138 0 -138 96q0 64 27 167l43 164q3 13 145 724h-25q-84 0 -158 -19q34 192 213 192q24 123 24 170q0 59 -35 127q216 141 602 141q456 0 456 -357q0 -32 -3 -68l112 18q-24 -172 -165 -198
q-197 -385 -764 -448zM1058 1137h-323l-52 -262q263 19 375 262zM769 1310h328l1 54q0 206 -157 206q-60 0 -123 -17z" />
    <glyph glyph-name="leftarrow" horiz-adv-x="2048" 
d="M701 853l1157 8q62 3 148 28q20 -65 20 -95q0 -111 -229 -111h-1119q212 -153 212 -287q0 -81 -103 -149q-224 359 -468 517q391 233 456 515q113 -100 113 -185q0 -111 -187 -241z" />
    <glyph glyph-name="rightarrow" horiz-adv-x="2048" 
d="M1644 853l-1157 8q-62 3 -148 28q-20 -65 -20 -95q0 -111 229 -111h1119q-212 -153 -212 -287q0 -81 103 -149q224 359 468 517q-391 233 -456 515q-113 -100 -113 -185q0 -111 187 -241z" />
    <glyph glyph-name="glyph344" horiz-adv-x="2219" 
d="M1319 1016q-91 -118 -262 -278q-213 -200 -294 -200q-91 0 -166 165q411 278 722 662q299 -373 722 -662q-72 -165 -166 -165q-81 0 -294 200q-171 160 -262 278zM2243 1323q-98 42 -317 42l-1317 2q-229 0 -229 110q0 31 19 95q114 -34 351 -34h1174q334 0 334 -136
q0 -25 -15 -79z" />
    <glyph glyph-name="help" horiz-adv-x="1804" 
d="M907 -41q-657 0 -657 690q0 1098 926 1098q669 0 669 -660q0 -1128 -938 -1128zM1153 1585q-735 0 -735 -909q0 -555 506 -555q753 0 753 944q0 520 -524 520zM1016 551q-68 -37 -129 -37q-94 0 -94 98q0 99 278 346q96 109 96 234q0 119 -116 119q-109 0 -203 -99
q-39 45 -39 84q0 160 332 160q264 0 264 -231q0 -150 -297 -404q-107 -92 -107 -198q0 -41 15 -72zM750 422q73 18 124 18q101 0 101 -73q0 -54 -50 -97t-104 -43q-73 0 -73 54q0 16 5 48t5 48q0 22 -8 45z" />
    <glyph glyph-name="uparrow" horiz-adv-x="1536" 
d="M1060 1324l7 -1156q2 -61 29 -149q-65 -19 -96 -19q-108 0 -110 229l-1 137v981q-153 -212 -287 -212q-81 0 -148 103q358 223 516 469q233 -392 516 -457q-101 -113 -185 -113q-111 0 -241 187z" />
    <glyph glyph-name="downarrow" horiz-adv-x="1536" 
d="M806 382l-7 1156q-2 61 -29 149q65 19 96 19q108 0 110 -229l1 -1118q153 212 287 212q81 0 148 -103q-358 -223 -516 -469q-233 392 -516 457q101 113 185 113q111 0 241 -187z" />
    <glyph glyph-name="power" horiz-adv-x="1804" 
d="M907 -41q-657 0 -657 690q0 1098 926 1098q669 0 669 -660q0 -1128 -938 -1128zM1153 1585q-735 0 -735 -909q0 -555 506 -555q753 0 753 944q0 520 -524 520zM1024 1473q190 -35 190 -119q0 -178 -97 -530t-97 -531q0 -37 4 -66q-190 11 -190 103q0 167 98 534t98 541
q0 41 -6 68z" />
    <glyph glyph-name="contextmenu" horiz-adv-x="1804" 
d="M1233 1260q-31 -7 -49 -7q-103 0 -103 82q0 70 29 206t29 206q149 -8 149 -113q0 -57 -28.5 -168t-28.5 -168q0 -20 2 -38zM1745 1559q70 -56 70 -123q0 -42 -48 -84q-196 -171 -270 -269q-55 72 -55 125q0 61 128 181q162 152 175 170zM944 1178q-55 -62 -119 -62
q-38 0 -170 152q-151 175 -176 192q68 47 123 47q60 0 179 -139q156 -184 163 -190zM1239 -41l-131 573q-61 -215 -158 -215q-67 0 -166 78q164 218 220 516q20 106 108 162q227 -405 485 -463q-18 -182 -106 -182q-90 0 -236 127l127 -557zM1501 780q-4 41 -4 56
q0 110 223 110h49q119 0 222 25q-11 -174 -267 -174h-86q-79 0 -137 -17zM705 950q4 -22 4 -55q0 -120 -146 -115l-112 4q-123 4 -244 -24q10 183 194 178l138 -4q98 -3 166 16zM664 674q71 -58 71 -121q0 -38 -146 -182q-172 -169 -186 -189q-55 70 -55 131q0 57 136 181
q160 145 180 180z" />
    <glyph glyph-name="Scommaaccent" horiz-adv-x="1234" 
d="M321 409q13 -261 283 -261q298 0 298 272q0 136 -133 241q-16 12 -247 184q-133 120 -133 277q0 278 212 457q200 169 483 169q334 0 334 -148q0 -101 -150 -202q-93 169 -303 169q-256 0 -256 -223q0 -91 164 -231l234 -176q139 -136 139 -309q0 -284 -245 -482
q-231 -187 -521 -187q-125 0 -244 41q-161 56 -161 157q0 148 246 252zM156 -635q32 -9 60 -9q239 0 239 239q0 96 -90 176q137 86 279 86q140 0 140 -140q0 -181 -176 -337q-170 -150 -354 -150q-104 0 -104 78q0 16 6 57z" />
    <glyph glyph-name="scommaaccent" horiz-adv-x="1057" 
d="M264 383q74 -232 256 -232q185 0 185 192q0 101 -298 322q-104 100 -104 242q0 232 168 364q154 122 392 122q307 0 307 -117q0 -102 -144 -207q-123 164 -235 164q-158 0 -158 -168q0 -88 107 -167l197 -145q107 -103 107 -251q0 -254 -185 -397q-168 -132 -429 -132
q-347 0 -347 165q0 124 181 245zM114 -621q32 -9 60 -9q239 0 239 239q0 96 -90 176q137 86 279 86q140 0 140 -140q0 -181 -176 -337q-170 -150 -354 -150q-104 0 -104 78q0 16 6 57z" />
    <glyph glyph-name="Tcommaaccent" horiz-adv-x="1024" 
d="M608 1465h-39q-142 0 -284 -82q-17 65 -17 107q0 227 214 227q42 0 126.5 -5t126.5 -5h324q173 0 340 50l1 -34v-9q0 -96 -60 -175q-66 -86 -159 -86q-34 0 -114 7q-57 5 -93 5h-21l-201 -1009q-40 -201 -40 -312q0 -46 21 -93q-154 -65 -267 -65q-139 0 -139 95
q0 70 40 230l59 238zM143 -608q32 -9 60 -9q239 0 239 239q0 96 -90 176q137 86 279 86q140 0 140 -140q0 -181 -176 -337q-170 -150 -354 -150q-104 0 -104 78q0 16 6 57z" />
    <glyph glyph-name="tcommaaccent" horiz-adv-x="1024" 
d="M414 981h-45q-114 0 -224 -44q-5 48 -5 70q0 130 98 165q49 18 217 18q54 275 54 354q0 63 -29 125q136 51 251 51q152 0 152 -116q0 -73 -34 -207l-52 -207h110q133 0 289 30q-13 -242 -279 -242q-27 0 -81 1.5t-81 1.5q-92 -438 -92 -589q0 -158 116 -158
q102 0 242 102q33 -64 33 -113q0 -116 -152 -189q-124 -59 -254 -59q-332 0 -332 327q0 215 98 679zM166 -619q32 -9 60 -9q239 0 239 239q0 96 -90 176q137 86 279 86q140 0 140 -140q0 -181 -176 -337q-170 -150 -354 -150q-104 0 -104 78q0 16 6 57z" />
    <glyph glyph-name="Gcommaaccent" horiz-adv-x="1301" 
d="M1360 1313q-80 261 -303 261q-247 0 -382 -408q-99 -300 -99 -612q0 -357 185 -357q64 0 163 42q67 174 115 424h-20q-101 0 -199 -43q18 172 92 222q61 41 248 41q43 0 127.5 3t127.5 3q-127 -386 -155 -660q-20 -193 -205 -193q-35 0 -90 4q-175 -81 -325 -81
q-213 0 -337 151q-116 142 -116 359q0 287 116 575q124 309 335 495q239 210 535 210q375 0 375 -179q0 -104 -188 -257zM295 -635q32 -9 60 -9q239 0 239 239q0 96 -90 176q137 86 279 86q140 0 140 -140q0 -181 -176 -337q-170 -150 -354 -150q-104 0 -104 78q0 16 6 57z
" />
    <glyph glyph-name="gcommaaccent" 
d="M223 100q153 -244 379 -244q150 0 239 146q66 110 104 316l44 300q-297 -431 -544 -431q-248 0 -248 364q0 320 172 566q193 276 500 276q143 0 264 -74q38 60 146 60t228 -52q-83 -151 -131 -473l-58 -402q-44 -246 -119 -403q-97 -202 -259.5 -296.5t-376.5 -94.5
q-140 0 -309 56q-216 73 -216 183q0 124 185 203zM1076 1027q-107 158 -231 158q-149 0 -224 -233q-54 -165 -54 -354q0 -112 62 -112q169 0 447 541zM1290 1987q-33 9 -61 9q-238 0 -238 -239q0 -95 90 -175q-136 -87 -280 -87q-139 0 -139 140q0 181 176 337
q170 150 354 150q103 0 103 -78q0 -22 -5 -57z" />
    <glyph glyph-name="Lcommaaccent" horiz-adv-x="1195" 
d="M579 274q143 -24 234 -24q220 0 416 81v-7q0 -218 -180 -291q-111 -45 -373 -45q-42 0 -125 5.5t-125 5.5q-19 0 -57 -8.5t-57 -8.5q-135 0 -135 92q0 70 30 182q242 900 242 1249q0 71 -38 128q150 88 303 88q125 0 125 -91q0 -4 -54 -275l-168 -844q-29 -144 -38 -237z
M228 -612q32 -9 60 -9q239 0 239 239q0 96 -90 176q137 86 279 86q140 0 140 -140q0 -181 -176 -337q-170 -150 -354 -150q-104 0 -104 78q0 16 6 57z" />
    <glyph glyph-name="lcommaaccent" horiz-adv-x="680" 
d="M431 1669q135 51 251 51q152 0 152 -116q0 -74 -31 -191l-49 -188l-134 -674q-39 -196 -39 -300q0 -113 60 -192q-116 -73 -225 -73q-196 0 -196 181q0 86 50 337l137 688q53 266 53 352q0 63 -29 125zM-30 -608q32 -9 60 -9q239 0 239 239q0 96 -90 176q137 86 279 86
q140 0 140 -140q0 -181 -176 -337q-170 -150 -354 -150q-104 0 -104 78q0 16 6 57z" />
    <glyph glyph-name="Kcommaaccent" horiz-adv-x="1536" 
d="M565 47q-136 -61 -244 -61q-140 0 -140 96q0 64 27 166q241 910 241 1257q0 70 -39 131q164 84 302 84q127 0 127 -93l-54 -272l-87 -439q613 805 883 805q139 0 139 -131q0 -16 -15 -124l-53 2h-16q-126 0 -264 -99q-105 -76 -231 -220q-93 -113 -186 -225
q315 -679 564 -679h11q-46 -273 -244 -273q-184 0 -384 331q-137 225 -228 493q-118 -550 -118 -667q0 -31 9 -82zM430 -622q32 -9 60 -9q239 0 239 239q0 96 -90 176q137 86 279 86q140 0 140 -140q0 -181 -176 -337q-170 -150 -354 -150q-104 0 -104 78q0 16 6 57z" />
    <glyph glyph-name="kcommaaccent" horiz-adv-x="1286" 
d="M648 755q414 610 630 610q119 0 139 -233q-207 0 -497 -360q55 -178 169 -346q141 -208 283 -242q-141 -198 -274 -198q-203 0 -463 701q-99 -463 -99 -586q0 -36 12 -84q-98 -31 -190 -31q-176 0 -176 122q0 76 29 199q16 66 46 197l145 726q43 215 43 335q0 38 -11 86
q114 69 221 69q155 0 155 -131q0 -82 -162 -834zM308 -608q32 -9 60 -9q239 0 239 239q0 96 -90 176q137 86 279 86q140 0 140 -140q0 -181 -176 -337q-170 -150 -354 -150q-104 0 -104 78q0 16 6 57z" />
    <glyph glyph-name="Ncommaaccent" horiz-adv-x="1536" 
d="M533 56q-150 -70 -253 -70q-142 0 -142 129q0 58 145 618l125 483q59 228 59 272q0 48 -42 96q176 137 306 137q112 0 181 -316q154 -705 292 -1053l119 548q79 380 79 567q0 94 -53 180q129 73 240 73q149 0 149 -117q0 -78 -35 -202l-58 -205q-29 -101 -167 -653
q-5 -21 -47 -184q-29 -113 -29 -188q0 -25 12 -71q-161 -114 -274 -114q-114 0 -235 272q-88 197 -179 536q-48 187 -95 375q-175 -729 -175 -891q0 -129 77 -222zM373 -608q32 -9 60 -9q239 0 239 239q0 96 -90 176q137 86 279 86q140 0 140 -140q0 -181 -176 -337
q-170 -150 -354 -150q-104 0 -104 78q0 16 6 57z" />
    <glyph glyph-name="Rcommaaccent" horiz-adv-x="1474" 
d="M1052 862l102 -304q104 -311 342 -382q-94 -203 -287 -203q-182 0 -306 314q-36 92 -130 466q-43 -9 -131 -24l-60 -290q-34 -164 -34 -296q0 -46 21 -92q-148 -65 -258 -65q-130 0 -130 95q0 64 27 167q237 908 237 1243q0 61 -29 116q268 141 653 141q468 0 468 -309
q0 -339 -485 -577zM680 921q495 61 495 457q0 194 -204 194q-68 0 -166 -26zM323 -621q32 -9 60 -9q239 0 239 239q0 96 -90 176q137 86 279 86q140 0 140 -140q0 -181 -176 -337q-170 -150 -354 -150q-104 0 -104 78q0 16 6 57z" />
    <glyph glyph-name="rcommaaccent" horiz-adv-x="1024" 
d="M544 16q-94 -28 -198 -28q-170 0 -170 123q0 69 63 322q142 571 142 797q0 50 -21 101q133 47 230 47q154 0 154 -127q0 -82 -77 -403q298 542 499 542q107 0 107 -101q0 -192 -183 -403q-47 68 -86 68q-135 0 -313 -356q-164 -329 -164 -491q0 -38 17 -91zM26 -606
q32 -9 60 -9q239 0 239 239q0 96 -90 176q137 86 279 86q140 0 140 -140q0 -181 -176 -337q-170 -150 -354 -150q-104 0 -104 78q0 16 6 57z" />
    <glyph glyph-name="appleopen" horiz-adv-x="2219" 
d="M1965 1380q-171 -121 -218 -262q-23 -67 -23 -146q0 -164 115 -306q55 -68 181 -133q-44 -130 -139 -276q-104 -160 -202 -233q-85 -63 -165 -63q-60 0 -159 39l-33 13q-75 30 -129 36q-26 3 -48 3q-72 0 -157 -31l-41 -15l-51 -21q-58 -24 -121 -24q-146 0 -310 219
q-127 170 -192 353q-75 209 -75 421q0 273 150 449q159 187 427 187q100 0 182 -35l40 -17l40 -16q57 -23 87 -23q49 0 96 19l54 22l39 14q98 35 212 35q168 0 306 -83q66 -41 134 -126zM1703 1380l-16 8q-62 31 -163 31q-47 0 -113 -15q-17 -4 -39 -10l-36 -13l-53 -21
q-81 -32 -160 -32q-63 0 -150 36l-41 17l-40 16q-55 22 -116 22q-197 0 -306 -136q-101 -125 -101 -327q0 -351 225 -658q121 -166 180 -166q29 0 61 13l54 22l41 14q120 41 215 41q70 0 136 -15q24 -5 103 -35l32 -12q75 -28 99 -28q51 0 139 105q62 74 107 150l45 76
l-14 10q-81 58 -161 198q-77 134 -77 301q0 209 146 404zM1533 2074q3 -37 3 -56q0 -178 -132 -316.5t-308 -138.5q-4 40 -4 59q0 156 126 292q124 133 280 155z" />
    <glyph glyph-name="glyph418" horiz-adv-x="0" 
d="M24 1800v-1800h-1024z" />
  </font>
</defs>
</svg>
