<svg id="Camada_1" data-name="Camada 1" xmlns="http://www.w3.org/2000/svg" viewBox="0 0 180 53.19"><defs><style>.cls-1{fill:#3f2154;}.cls-2{fill:#be97c6;}</style></defs><path class="cls-1" d="M110,10.66a15.21,15.21,0,0,0-7.85,2.19V5.43a1.5,1.5,0,0,0-1.5-1.5H96.21a1.5,1.5,0,0,0-1.5,1.5V26.36h0A15.32,15.32,0,1,0,110,10.66Zm0,23.17A7.85,7.85,0,1,1,117.88,26,7.85,7.85,0,0,1,110,33.83Z" transform="translate(0 -0.41)"/><path class="cls-1" d="M92.25,26a15.39,15.39,0,1,0-7.48,13.13v.47a1.5,1.5,0,0,0,1.5,1.5h4.48a1.5,1.5,0,0,0,1.5-1.5V27.48h-.08A14.72,14.72,0,0,0,92.25,26ZM76.92,33.83A7.85,7.85,0,1,1,84.77,26,7.85,7.85,0,0,1,76.92,33.83Z" transform="translate(0 -0.41)"/><path class="cls-1" d="M158.14,26a15.39,15.39,0,1,0-7.48,13.13v.47a1.5,1.5,0,0,0,1.5,1.5h4.48a1.5,1.5,0,0,0,1.5-1.5V27.48h-.08A14.72,14.72,0,0,0,158.14,26Zm-15.33,7.84A7.85,7.85,0,1,1,150.66,26,7.85,7.85,0,0,1,142.81,33.83Z" transform="translate(0 -0.41)"/><path class="cls-1" d="M171.39,41.78a9.86,9.86,0,0,1-10.94-8.07,1.45,1.45,0,0,1,1.43-1.7h4.74A1.51,1.51,0,0,1,168,33a2.38,2.38,0,0,0,2.78,1.35A2.34,2.34,0,0,0,172.31,33,2.38,2.38,0,0,0,171,29.78l-4.22-1.52A9.13,9.13,0,1,1,179.11,18a1.49,1.49,0,0,1-1.48,1.76H173a1.55,1.55,0,0,1-1.39-.77,1.66,1.66,0,1,0-2.13,2.29l4,1.45a9.85,9.85,0,0,1-2.14,19Z" transform="translate(0 -0.41)"/><circle class="cls-2" cx="139.05" cy="51.12" r="1.74"/><path class="cls-1" d="M146.29,46.1a3.52,3.52,0,0,1,2.61,1.12A3.67,3.67,0,0,1,150,49.87a3.57,3.57,0,0,1-1.1,2.64,3.68,3.68,0,0,1-2.66,1.08,3.73,3.73,0,0,1-2.61-6.39,3.69,3.69,0,0,1,2.69-1.09Zm-.23,1.67-.15,0a2.18,2.18,0,0,0-.63.23,2.28,2.28,0,0,0-.52.39,2,2,0,0,0-.44.67,2.3,2.3,0,0,0-.14.79,2.05,2.05,0,0,0,.58,1.47,1.92,1.92,0,0,0,1.45.62,2,2,0,0,0,1.49-.6,2.05,2.05,0,0,0,.58-1.49,2.1,2.1,0,0,0-.6-1.5,2,2,0,0,0-1.47-.62Z" transform="translate(0 -0.41)"/><path class="cls-1" d="M150.92,46.33h1.57V47h0a2,2,0,0,1,.77-.61,3.13,3.13,0,0,1,1-.25h.36a2.93,2.93,0,0,1,1,.27,2.6,2.6,0,0,1,.82.6l.1.09a1,1,0,0,1,.08.11,2.61,2.61,0,0,1,.48,1.22,11.41,11.41,0,0,1,.08,1.32v3.64h-1.69V49.72c0-.12,0-.24,0-.36a3.35,3.35,0,0,0-.08-.54,1.8,1.8,0,0,0-.2-.47,1.19,1.19,0,0,0-.45-.41,1.56,1.56,0,0,0-.59-.18h-.25a1.69,1.69,0,0,0-.57.2,1.24,1.24,0,0,0-.44.41,2.09,2.09,0,0,0-.19.48,3.45,3.45,0,0,0-.07.55c0,.11,0,.22,0,.33v3.63h-1.69Z" transform="translate(0 -0.41)"/><path class="cls-1" d="M158.55,44h1.69v9.39h-1.69Z" transform="translate(0 -0.41)"/><path class="cls-1" d="M161.6,44h1.69v1.53H161.6Zm0,2.35h1.69v7H161.6Z" transform="translate(0 -0.41)"/><path class="cls-1" d="M164.65,46.33h1.56V47h0a2,2,0,0,1,.77-.61,3.07,3.07,0,0,1,1-.25h.36a2.81,2.81,0,0,1,1,.27,2.49,2.49,0,0,1,.82.6l.1.09a.44.44,0,0,1,.08.11,2.61,2.61,0,0,1,.48,1.22,9.55,9.55,0,0,1,.08,1.32v3.64h-1.69V49.72c0-.12,0-.24,0-.36a5.07,5.07,0,0,0-.09-.54,1.78,1.78,0,0,0-.19-.47,1.19,1.19,0,0,0-.45-.41,1.61,1.61,0,0,0-.59-.18h-.26a1.85,1.85,0,0,0-.57.2,1.13,1.13,0,0,0-.43.41,1.46,1.46,0,0,0-.19.48,3.47,3.47,0,0,0-.08.55c0,.11,0,.22,0,.33v3.63h-1.69Z" transform="translate(0 -0.41)"/><path class="cls-1" d="M173.76,50.6a1.91,1.91,0,0,0,.7,1,2,2,0,0,0,1.16.37,2.44,2.44,0,0,0,.9-.17,1.67,1.67,0,0,0,.67-.44l1.87,0a3.11,3.11,0,0,1-1.29,1.61,3.66,3.66,0,0,1-2.09.65A3.67,3.67,0,0,1,172,49.91a3.71,3.71,0,0,1,1.08-2.68,3.52,3.52,0,0,1,2.65-1.12,3.37,3.37,0,0,1,2.56,1.11,3.64,3.64,0,0,1,1.05,2.58,1.72,1.72,0,0,1,0,.32,2.91,2.91,0,0,1,0,.31.29.29,0,0,0,0,.09s0,0,0,.08Zm3.85-1.5a1.82,1.82,0,0,0-.74-1,2.05,2.05,0,0,0-1.18-.36h-.1a2.27,2.27,0,0,0-1.14.4,1.71,1.71,0,0,0-.72.94Z" transform="translate(0 -0.41)"/><rect class="cls-1" x="24.93" y="26.23" width="18.84" height="19.64" rx="4" transform="translate(68.7 71.69) rotate(-180)"/><path class="cls-1" d="M0,42.88a3,3,0,0,0,3,3H15.85a3,3,0,0,0,3-3V3.4a3,3,0,0,0-3-3H8.77L0,9.18Z" transform="translate(0 -0.41)"/><path class="cls-2" d="M0,9.18H5.78a3,3,0,0,0,3-3V.41Z" transform="translate(0 -0.41)"/></svg>